<?xml version="1.0" encoding="UTF-8" standalone="no"?>
<!-- Created with Inkscape (http://www.inkscape.org/) -->

<svg
   width="127.62109mm"
   height="102.68707mm"
   viewBox="0 0 127.62109 102.68707"
   version="1.1"
   id="svg5"
   inkscape:version="1.2.2 (732a01da63, 2022-12-09)"
   sodipodi:docname="20230320_dryml_Object_Load_2.svg"
   xmlns:inkscape="http://www.inkscape.org/namespaces/inkscape"
   xmlns:sodipodi="http://sodipodi.sourceforge.net/DTD/sodipodi-0.dtd"
   xmlns:xlink="http://www.w3.org/1999/xlink"
   xmlns="http://www.w3.org/2000/svg"
   xmlns:svg="http://www.w3.org/2000/svg">
  <sodipodi:namedview
     id="namedview7"
     pagecolor="#ffffff"
     bordercolor="#666666"
     borderopacity="1.0"
     inkscape:showpageshadow="2"
     inkscape:pageopacity="0.0"
     inkscape:pagecheckerboard="0"
     inkscape:deskcolor="#d1d1d1"
     inkscape:document-units="mm"
     showgrid="false"
     inkscape:zoom="1.1237655"
     inkscape:cx="306.11369"
     inkscape:cy="495.21008"
     inkscape:window-width="1337"
     inkscape:window-height="1356"
     inkscape:window-x="2394"
     inkscape:window-y="1649"
     inkscape:window-maximized="0"
     inkscape:current-layer="layer1">
    <inkscape:grid
       type="xygrid"
       id="grid6998" />
  </sodipodi:namedview>
  <defs
     id="defs2" />
  <g
     inkscape:label="Layer 1"
     inkscape:groupmode="layer"
     id="layer1"
     transform="translate(-9.4687502,-57.047304)">
    <path
       style="color:#000000;fill:#000000;-inkscape-stroke:none"
       d="M 9.46875,72.238281 V 159.73437 H 9.8691406 V 72.238281 Z"
       id="path3778-92" />
    <g
       aria-label="load_object(object)"
       id="text2439"
       style="font-size:3.52778px;font-family:Hack;-inkscape-font-specification:Hack;letter-spacing:0px;word-spacing:0px;stroke-width:0.264583">
      <path
         d="m 14.748485,90.375925 q -0.284221,0 -0.440973,-0.18259 -0.155029,-0.184313 -0.155029,-0.516765 v -1.746665 h -0.508152 v -0.248047 h 0.825101 v 1.994712 q 0,0.210151 0.07924,0.320394 0.07924,0.110243 0.230822,0.110243 h 0.370348 v 0.268718 z"
         id="path1924" />
      <path
         d="m 16.52271,90.412098 q -0.403076,0 -0.616672,-0.260104 -0.211874,-0.261828 -0.211874,-0.751032 0,-0.490926 0.213596,-0.752754 0.213596,-0.261827 0.613228,-0.261827 0.399631,0 0.611505,0.261827 0.213596,0.260105 0.213596,0.754477 0,0.490926 -0.211874,0.751031 -0.211873,0.258382 -0.611505,0.258382 z m -0.0017,-0.268717 q 0.235989,0 0.361735,-0.192926 0.127469,-0.192925 0.127469,-0.552938 0,-0.35829 -0.127469,-0.549493 -0.125746,-0.192925 -0.361735,-0.192925 -0.237712,0 -0.365181,0.192925 -0.125746,0.191203 -0.125746,0.549493 0,0.360013 0.127469,0.552938 0.127469,0.192926 0.363458,0.192926 z"
         id="path1926" />
      <path
         d="m 18.458855,90.412098 q -0.279053,0 -0.461643,-0.160197 -0.180867,-0.161919 -0.180867,-0.463365 0,-0.24977 0.120578,-0.389296 0.120578,-0.141249 0.315226,-0.198093 0.194649,-0.05685 0.415135,-0.05685 h 0.425469 v -0.04995 q 0,-0.246325 -0.125746,-0.342788 -0.124023,-0.09646 -0.349677,-0.09646 -0.1757,0 -0.34451,0.04823 -0.16881,0.04823 -0.315226,0.134359 V 88.52074 q 0.158474,-0.05857 0.320394,-0.09646 0.161919,-0.0379 0.330729,-0.0379 0.172255,0 0.334175,0.04823 0.163642,0.04651 0.282498,0.15503 0.118855,0.106798 0.158474,0.287665 0.02756,0.127469 0.02756,0.384129 v 0.394463 q 0,0.16192 0.01722,0.358291 0.01895,0.19637 0.08441,0.347954 h -0.318671 q -0.02928,-0.06718 -0.04651,-0.142971 -0.01723,-0.07751 -0.02756,-0.149862 -0.10163,0.173978 -0.282498,0.258382 -0.179145,0.08441 -0.378961,0.08441 z m 0.07752,-0.265272 q 0.196371,0 0.318672,-0.09646 0.124023,-0.09646 0.180867,-0.251492 0.05684,-0.156752 0.05684,-0.335897 v -0.07063 H 18.6914 q -0.134358,0 -0.26355,0.03101 -0.127468,0.02928 -0.211873,0.113689 -0.08268,0.0844 -0.08268,0.246324 0,0.18259 0.111965,0.273885 0.111966,0.08957 0.291111,0.08957 z"
         id="path1928" />
      <path
         d="m 20.660273,90.412098 q -0.210151,0 -0.353123,-0.08957 -0.142971,-0.08957 -0.229099,-0.239434 -0.08441,-0.149862 -0.122301,-0.33073 -0.0379,-0.18259 -0.0379,-0.366903 0,-0.461643 0.201539,-0.73036 0.20326,-0.268718 0.54777,-0.268718 0.16881,0 0.303169,0.07235 0.134358,0.07062 0.213596,0.220486 v -0.997356 h 0.316949 v 2.680286 H 21.21493 L 21.18392,90.11927 q -0.170533,0.292833 -0.523655,0.292833 z m 0.05684,-0.268717 q 0.149862,0 0.241157,-0.07063 0.09302,-0.07062 0.141249,-0.18259 0.04995,-0.113688 0.06718,-0.242879 0.01723,-0.130914 0.01723,-0.24977 0,-0.117133 -0.01723,-0.246324 -0.01722,-0.129192 -0.06718,-0.241157 -0.04823,-0.113688 -0.141249,-0.184313 -0.09129,-0.07062 -0.241157,-0.07062 -0.151584,0 -0.244602,0.07062 -0.0913,0.07062 -0.139526,0.184313 -0.04651,0.111965 -0.06374,0.241157 -0.01722,0.129191 -0.01722,0.246324 0,0.117133 0.01722,0.248047 0.01723,0.129191 0.06374,0.24288 0.04823,0.111965 0.139526,0.184312 0.09302,0.07063 0.244602,0.07063 z"
         id="path1930" />
      <path
         d="m 21.991803,90.689429 h 1.798341 v 0.206706 h -1.798341 z"
         id="path1932" />
      <path
         d="m 25.018322,90.412098 q -0.403076,0 -0.616672,-0.260104 -0.211874,-0.261828 -0.211874,-0.751032 0,-0.490926 0.213596,-0.752754 0.213596,-0.261827 0.613227,-0.261827 0.399632,0 0.611505,0.261827 0.213596,0.260105 0.213596,0.754477 0,0.490926 -0.211873,0.751031 -0.211874,0.258382 -0.611505,0.258382 z m -0.0017,-0.268717 q 0.23599,0 0.361736,-0.192926 0.127468,-0.192925 0.127468,-0.552938 0,-0.35829 -0.127468,-0.549493 -0.125746,-0.192925 -0.361736,-0.192925 -0.237711,0 -0.36518,0.192925 -0.125746,0.191203 -0.125746,0.549493 0,0.360013 0.127469,0.552938 0.127468,0.192926 0.363457,0.192926 z"
         id="path1934" />
      <path
         d="m 27.257635,90.412098 q -0.36518,0 -0.530545,-0.292833 l -0.03101,0.242879 h -0.285943 v -2.680286 h 0.316949 v 0.997356 q 0.07924,-0.149862 0.218764,-0.220486 0.139526,-0.07235 0.313504,-0.07235 0.206706,0 0.347955,0.08957 0.141249,0.08785 0.225653,0.23599 0.08613,0.146416 0.122301,0.325561 0.0379,0.179145 0.0379,0.358291 0,0.180867 -0.0379,0.361735 -0.0379,0.179145 -0.124023,0.327284 -0.08441,0.148139 -0.225654,0.237712 -0.141249,0.08957 -0.347955,0.08957 z m -0.06373,-0.268717 q 0.151584,0 0.242879,-0.07063 0.09302,-0.07062 0.139527,-0.184312 0.04823,-0.113689 0.06546,-0.24288 0.01722,-0.129191 0.01722,-0.246324 0,-0.117134 -0.01722,-0.246325 -0.01723,-0.130914 -0.06546,-0.242879 -0.04651,-0.113688 -0.139527,-0.184313 -0.09129,-0.07062 -0.242879,-0.07062 -0.149862,0 -0.24288,0.07062 -0.0913,0.07062 -0.141249,0.18259 -0.04823,0.111966 -0.06546,0.24288 -0.01723,0.129191 -0.01723,0.246324 0,0.118856 0.01723,0.24977 0.01722,0.129191 0.06546,0.242879 0.04995,0.111966 0.141249,0.18259 0.09302,0.07063 0.24288,0.07063 z"
         id="path1936" />
      <path
         d="m 29.324693,88.083212 q -0.05168,0 -0.05168,-0.05168 v -0.298001 q 0,-0.05168 0.05168,-0.05168 h 0.248047 q 0.05168,0 0.05168,0.05168 v 0.298001 q 0,0.05168 -0.05168,0.05168 z m -0.713135,2.744021 h 0.403077 q 0.310058,0 0.310058,-0.430638 V 88.679214 H 28.778645 V 88.43289 h 0.862997 v 1.963705 q 0,0.334175 -0.155029,0.516765 -0.155029,0.18259 -0.437527,0.18259 h -0.437528 z"
         id="path1938" />
      <path
         d="m 31.493383,90.412098 q -0.44614,0 -0.701077,-0.266995 -0.253215,-0.268717 -0.253215,-0.732083 0,-0.287666 0.09991,-0.52021 0.10163,-0.232544 0.299723,-0.368625 0.199816,-0.137804 0.492649,-0.137804 0.385851,0 0.597725,0.248047 0.213596,0.246324 0.213596,0.683852 v 0.155029 H 30.86982 v 0.01034 q 0,0.301446 0.158475,0.480591 0.158474,0.179145 0.468533,0.179145 0.179145,0 0.346232,-0.05684 0.16881,-0.05684 0.325562,-0.137804 v 0.315226 q -0.163642,0.06718 -0.332452,0.106798 -0.167087,0.04134 -0.342787,0.04134 z m 0.43236,-1.186836 q 0,-0.160197 -0.04823,-0.289388 -0.04823,-0.129191 -0.155029,-0.204983 -0.105076,-0.07579 -0.279053,-0.07579 -0.1757,0 -0.294556,0.07751 -0.117133,0.07579 -0.184313,0.204984 -0.06546,0.129191 -0.08268,0.287665 z"
         id="path1940" />
      <path
         d="m 33.663795,90.412098 q -0.304891,0 -0.51332,-0.127468 -0.206705,-0.129191 -0.313503,-0.35829 -0.105076,-0.229099 -0.105076,-0.5271 0,-0.299724 0.106798,-0.5271 0.106798,-0.229099 0.315227,-0.356568 0.208428,-0.129191 0.516764,-0.129191 0.160197,0 0.289388,0.0379 0.129192,0.03617 0.26355,0.110243 v 0.332452 q -0.122301,-0.108521 -0.246324,-0.160197 -0.122301,-0.05168 -0.279053,-0.05168 -0.232544,0 -0.372071,0.09991 -0.137804,0.09991 -0.199815,0.268718 -0.06029,0.16881 -0.06029,0.375516 0,0.204983 0.06201,0.375515 0.06201,0.16881 0.199816,0.268718 0.137804,0.09991 0.368625,0.09991 0.151585,0 0.282498,-0.04995 0.130914,-0.04995 0.244602,-0.158475 v 0.329007 q -0.246324,0.148139 -0.559828,0.148139 z"
         id="path1942" />
      <path
         d="m 35.963398,90.369035 q -0.354845,0 -0.502984,-0.142972 -0.146417,-0.144694 -0.146417,-0.492649 v -1.0542 H 34.798955 V 88.43289 h 0.515042 v -0.504707 l 0.316949,-0.137804 v 0.642511 h 0.720026 v 0.246324 h -0.720026 v 1.0542 q 0,0.211874 0.08096,0.298001 0.08096,0.08441 0.282498,0.08441 h 0.356568 v 0.253215 z"
         id="path1944" />
      <path
         d="m 37.722119,90.827233 q -0.26355,-0.41858 -0.387573,-0.799263 -0.127469,-0.392741 -0.127469,-0.773424 0,-0.377239 0.127469,-0.773425 0.06546,-0.198093 0.160197,-0.392741 0.09474,-0.196371 0.227376,-0.403076 h 0.275608 q -0.122301,0.208428 -0.204983,0.399631 -0.08096,0.18948 -0.136082,0.382406 -0.113688,0.396186 -0.113688,0.787205 0,0.782037 0.454753,1.572687 z"
         id="path1946" />
      <path
         d="m 39.885641,90.412098 q -0.403076,0 -0.616672,-0.260104 -0.211874,-0.261828 -0.211874,-0.751032 0,-0.490926 0.213596,-0.752754 0.213596,-0.261827 0.613228,-0.261827 0.399631,0 0.611504,0.261827 0.213597,0.260105 0.213597,0.754477 0,0.490926 -0.211874,0.751031 -0.211874,0.258382 -0.611505,0.258382 z m -0.0017,-0.268717 q 0.235989,0 0.361735,-0.192926 0.127468,-0.192925 0.127468,-0.552938 0,-0.35829 -0.127468,-0.549493 -0.125746,-0.192925 -0.361735,-0.192925 -0.237712,0 -0.365181,0.192925 -0.125746,0.191203 -0.125746,0.549493 0,0.360013 0.127469,0.552938 0.127468,0.192926 0.363458,0.192926 z"
         id="path1948" />
      <path
         d="m 42.124955,90.412098 q -0.36518,0 -0.530545,-0.292833 l -0.03101,0.242879 h -0.285943 v -2.680286 h 0.316949 v 0.997356 q 0.07924,-0.149862 0.218764,-0.220486 0.139526,-0.07235 0.313504,-0.07235 0.206706,0 0.347955,0.08957 0.141249,0.08785 0.225654,0.23599 0.08613,0.146416 0.1223,0.325561 0.0379,0.179145 0.0379,0.358291 0,0.180867 -0.0379,0.361735 -0.0379,0.179145 -0.124023,0.327284 -0.0844,0.148139 -0.225654,0.237712 -0.141249,0.08957 -0.347955,0.08957 z m -0.06373,-0.268717 q 0.151584,0 0.242879,-0.07063 0.09302,-0.07062 0.139527,-0.184312 0.04823,-0.113689 0.06546,-0.24288 0.01722,-0.129191 0.01722,-0.246324 0,-0.117134 -0.01722,-0.246325 -0.01723,-0.130914 -0.06546,-0.242879 -0.04651,-0.113688 -0.139527,-0.184313 -0.09129,-0.07062 -0.242879,-0.07062 -0.149862,0 -0.242879,0.07062 -0.0913,0.07062 -0.14125,0.18259 -0.04823,0.111966 -0.06546,0.24288 -0.01723,0.129191 -0.01723,0.246324 0,0.118856 0.01723,0.24977 0.01723,0.129191 0.06546,0.242879 0.04995,0.111966 0.14125,0.18259 0.09302,0.07063 0.242879,0.07063 z"
         id="path1950" />
      <path
         d="m 44.192012,88.083212 q -0.05168,0 -0.05168,-0.05168 v -0.298001 q 0,-0.05168 0.05168,-0.05168 h 0.248047 q 0.05168,0 0.05168,0.05168 v 0.298001 q 0,0.05168 -0.05168,0.05168 z m -0.713135,2.744021 h 0.403077 q 0.310058,0 0.310058,-0.430638 V 88.679214 H 43.645964 V 88.43289 h 0.862997 v 1.963705 q 0,0.334175 -0.155029,0.516765 -0.155029,0.18259 -0.437527,0.18259 h -0.437528 z"
         id="path1952" />
      <path
         d="m 46.360702,90.412098 q -0.44614,0 -0.701077,-0.266995 -0.253215,-0.268717 -0.253215,-0.732083 0,-0.287666 0.09991,-0.52021 0.10163,-0.232544 0.299723,-0.368625 0.199816,-0.137804 0.492649,-0.137804 0.385851,0 0.597725,0.248047 0.213596,0.246324 0.213596,0.683852 v 0.155029 h -1.372872 v 0.01034 q 0,0.301446 0.158475,0.480591 0.158474,0.179145 0.468533,0.179145 0.179145,0 0.346232,-0.05684 0.16881,-0.05684 0.325562,-0.137804 v 0.315226 q -0.163642,0.06718 -0.332452,0.106798 -0.167087,0.04134 -0.342787,0.04134 z m 0.43236,-1.186836 q 0,-0.160197 -0.04823,-0.289388 -0.04823,-0.129191 -0.155029,-0.204983 -0.105075,-0.07579 -0.279053,-0.07579 -0.1757,0 -0.294556,0.07751 -0.117133,0.07579 -0.184313,0.204984 -0.06546,0.129191 -0.08268,0.287665 z"
         id="path1954" />
      <path
         d="m 48.531114,90.412098 q -0.304891,0 -0.513319,-0.127468 -0.206706,-0.129191 -0.313504,-0.35829 -0.105076,-0.229099 -0.105076,-0.5271 0,-0.299724 0.106798,-0.5271 0.106798,-0.229099 0.315227,-0.356568 0.208428,-0.129191 0.516764,-0.129191 0.160197,0 0.289388,0.0379 0.129192,0.03617 0.26355,0.110243 v 0.332452 q -0.1223,-0.108521 -0.246324,-0.160197 -0.122301,-0.05168 -0.279053,-0.05168 -0.232544,0 -0.37207,0.09991 -0.137804,0.09991 -0.199816,0.268718 -0.06029,0.16881 -0.06029,0.375516 0,0.204983 0.06201,0.375515 0.06201,0.16881 0.199816,0.268718 0.137804,0.09991 0.368626,0.09991 0.151584,0 0.282498,-0.04995 0.130913,-0.04995 0.244601,-0.158475 v 0.329007 q -0.246324,0.148139 -0.559828,0.148139 z"
         id="path1956" />
      <path
         d="m 50.830715,90.369035 q -0.354845,0 -0.502984,-0.142972 -0.146416,-0.144694 -0.146416,-0.492649 v -1.0542 H 49.666272 V 88.43289 h 0.515043 v -0.504707 l 0.316949,-0.137804 v 0.642511 h 0.720025 v 0.246324 h -0.720025 v 1.0542 q 0,0.211874 0.08096,0.298001 0.08096,0.08441 0.282498,0.08441 h 0.356568 v 0.253215 z"
         id="path1958" />
      <path
         d="m 52.387902,90.827233 q 0.225654,-0.394464 0.342787,-0.79065 0.0534,-0.184313 0.08268,-0.382406 0.02928,-0.198093 0.02928,-0.399631 0,-0.396187 -0.111966,-0.78376 -0.0534,-0.184313 -0.139526,-0.382406 -0.08441,-0.198093 -0.203261,-0.403076 h 0.275608 q 0.26355,0.408244 0.387573,0.795817 0.127469,0.396186 0.127469,0.773425 0,0.380683 -0.127469,0.776869 -0.125746,0.389296 -0.387573,0.795818 z"
         id="path1960" />
    </g>
    <g
       aria-label="obj"
       id="text2439-0"
       style="font-size:3.52778px;font-family:Hack;-inkscape-font-specification:Hack;letter-spacing:0px;word-spacing:0px;stroke-width:0.264583">
      <path
         d="m 31.514053,148.26686 q -0.403076,0 -0.616672,-0.26011 -0.211874,-0.26182 -0.211874,-0.75103 0,-0.49092 0.213596,-0.75275 0.213597,-0.26183 0.613228,-0.26183 0.399631,0 0.611505,0.26183 0.213596,0.2601 0.213596,0.75447 0,0.49093 -0.211874,0.75104 -0.211873,0.25838 -0.611505,0.25838 z m -0.0017,-0.26872 q 0.235989,0 0.361735,-0.19293 0.127469,-0.19292 0.127469,-0.55293 0,-0.35829 -0.127469,-0.5495 -0.125746,-0.19292 -0.361735,-0.19292 -0.237712,0 -0.365181,0.19292 -0.125746,0.19121 -0.125746,0.5495 0,0.36001 0.127469,0.55293 0.127469,0.19293 0.363458,0.19293 z"
         id="path2001" />
      <path
         d="m 33.753367,148.26686 q -0.36518,0 -0.530545,-0.29284 l -0.03101,0.24288 h -0.285943 v -2.68028 h 0.316949 v 0.99735 q 0.07924,-0.14986 0.218764,-0.22048 0.139526,-0.0724 0.313504,-0.0724 0.206705,0 0.347954,0.0896 0.141249,0.0879 0.225654,0.23599 0.08613,0.14642 0.122301,0.32556 0.0379,0.17915 0.0379,0.35829 0,0.18087 -0.0379,0.36174 -0.0379,0.17914 -0.124023,0.32728 -0.08441,0.14814 -0.225654,0.23772 -0.141249,0.0896 -0.347955,0.0896 z m -0.06373,-0.26872 q 0.151584,0 0.242879,-0.0706 0.09302,-0.0706 0.139527,-0.18432 0.04823,-0.11369 0.06546,-0.24288 0.01723,-0.12919 0.01723,-0.24632 0,-0.11713 -0.01723,-0.24633 -0.01723,-0.13091 -0.06546,-0.24287 -0.04651,-0.11369 -0.139527,-0.18432 -0.0913,-0.0706 -0.242879,-0.0706 -0.149862,0 -0.24288,0.0706 -0.0913,0.0706 -0.141249,0.18259 -0.04823,0.11197 -0.06546,0.24288 -0.01722,0.12919 -0.01722,0.24633 0,0.11885 0.01722,0.24977 0.01723,0.12919 0.06546,0.24288 0.04995,0.11196 0.141249,0.18259 0.09302,0.0706 0.24288,0.0706 z"
         id="path2003" />
      <path
         d="m 35.820426,145.93797 q -0.05168,0 -0.05168,-0.0517 v -0.29801 q 0,-0.0517 0.05168,-0.0517 h 0.248047 q 0.05168,0 0.05168,0.0517 v 0.29801 q 0,0.0517 -0.05168,0.0517 z m -0.713136,2.74402 h 0.403077 q 0.310059,0 0.310059,-0.43064 v -1.71738 h -0.546048 v -0.24632 h 0.862997 v 1.9637 q 0,0.33418 -0.15503,0.51677 -0.155029,0.18259 -0.437527,0.18259 H 35.10729 Z"
         id="path2005" />
    </g>
    <path
       style="font-style:normal;font-variant:normal;font-weight:600;font-stretch:normal;font-size:4.23333px;line-height:1.25;font-family:Montserrat;-inkscape-font-specification:'Montserrat Semi-Bold';letter-spacing:0px;word-spacing:0px;stroke-width:0.264583"
       sodipodi:type="inkscape:offset"
       inkscape:radius="0"
       inkscape:original="M 127.64844 74.212891 C 127.55248 74.212891 127.47311 74.242599 127.4082 74.304688 C 127.34329 74.363954 127.31055 74.438986 127.31055 74.529297 C 127.31055 74.619608 127.34329 74.695724 127.4082 74.757812 C 127.47311 74.817079 127.55248 74.847656 127.64844 74.847656 C 127.74722 74.847656 127.82854 74.815995 127.89062 74.753906 C 127.95554 74.688995 127.98828 74.610711 127.98828 74.517578 C 127.98828 74.430089 127.95554 74.357226 127.89062 74.300781 C 127.82571 74.241515 127.74439 74.212891 127.64844 74.212891 z M 124.45703 74.339844 L 124.45703 77.480469 L 124.96094 77.480469 L 124.96094 77.1875 C 125.04843 77.294744 125.1562 77.376065 125.2832 77.429688 C 125.41303 77.48331 125.55572 77.509766 125.71094 77.509766 C 125.93107 77.509766 126.12667 77.463143 126.29883 77.367188 C 126.47381 77.271232 126.61021 77.133962 126.70898 76.958984 C 126.80776 76.781185 126.85742 76.578209 126.85742 76.349609 C 126.85742 76.12101 126.80776 75.919118 126.70898 75.744141 C 126.61021 75.569163 126.47381 75.433846 126.29883 75.337891 C 126.12667 75.241935 125.93107 75.195312 125.71094 75.195312 C 125.56418 75.195312 125.42887 75.220684 125.30469 75.271484 C 125.18333 75.322284 125.07664 75.397316 124.98633 75.496094 L 124.98633 74.339844 L 124.45703 74.339844 z M 122.32812 74.474609 C 122.02615 74.474609 121.75443 74.541184 121.51172 74.673828 C 121.26901 74.80365 121.07774 74.986459 120.93945 75.220703 C 120.80116 75.452125 120.73242 75.71018 120.73242 75.998047 C 120.73242 76.285913 120.80116 76.547006 120.93945 76.78125 C 121.07774 77.012672 121.26901 77.195481 121.51172 77.328125 C 121.75443 77.457947 122.02615 77.523438 122.32812 77.523438 C 122.6301 77.523437 122.90182 77.457947 123.14453 77.328125 C 123.38724 77.195481 123.57851 77.012672 123.7168 76.78125 C 123.85509 76.549828 123.92383 76.288736 123.92383 75.998047 C 123.92383 75.707358 123.85509 75.446266 123.7168 75.214844 C 123.57851 74.983422 123.38724 74.80365 123.14453 74.673828 C 122.90182 74.541184 122.6301 74.474609 122.32812 74.474609 z M 133.80469 74.720703 L 133.80469 75.236328 L 133.43164 75.236328 L 133.43164 75.660156 L 133.80469 75.660156 L 133.80469 76.748047 C 133.80469 76.996402 133.87235 77.186584 134.00781 77.316406 C 134.14328 77.446228 134.33563 77.509766 134.58398 77.509766 C 134.68276 77.509766 134.77579 77.498056 134.86328 77.472656 C 134.95359 77.447256 135.02971 77.408222 135.0918 77.357422 L 134.94336 76.980469 C 134.86434 77.042558 134.76502 77.074219 134.64648 77.074219 C 134.54488 77.074219 134.46768 77.046679 134.41406 76.990234 C 134.36044 76.930968 134.33398 76.846395 134.33398 76.736328 L 134.33398 75.660156 L 134.93945 75.660156 L 134.93945 75.236328 L 134.33398 75.236328 L 134.33398 74.720703 L 133.80469 74.720703 z M 122.32812 74.957031 C 122.52568 74.957031 122.70328 75.003439 122.86133 75.09375 C 123.01937 75.181239 123.14406 75.303977 123.23438 75.464844 C 123.32469 75.622888 123.36914 75.800491 123.36914 75.998047 C 123.36914 76.195602 123.32469 76.376243 123.23438 76.537109 C 123.14406 76.695154 123.01937 76.817892 122.86133 76.908203 C 122.70328 76.995692 122.52568 77.041016 122.32812 77.041016 C 122.13057 77.041016 121.95297 76.995692 121.79492 76.908203 C 121.63688 76.817892 121.51219 76.695154 121.42188 76.537109 C 121.33156 76.376243 121.28711 76.195602 121.28711 75.998047 C 121.28711 75.800491 121.33156 75.622888 121.42188 75.464844 C 121.51219 75.303977 121.63688 75.181239 121.79492 75.09375 C 121.95297 75.003439 122.13057 74.957031 122.32812 74.957031 z M 129.5918 75.195312 C 129.36884 75.195312 129.16803 75.243019 128.99023 75.341797 C 128.81243 75.440575 128.67387 75.580013 128.57227 75.757812 C 128.47349 75.93279 128.42383 76.129476 128.42383 76.349609 C 128.42383 76.572565 128.47457 76.773372 128.57617 76.951172 C 128.68059 77.12615 128.82654 77.26255 129.01562 77.361328 C 129.20471 77.460106 129.42352 77.509766 129.67188 77.509766 C 129.86661 77.509766 130.04204 77.480058 130.19727 77.417969 C 130.35249 77.35588 130.48043 77.263934 130.58203 77.142578 L 130.29883 76.816406 C 130.13796 76.980095 129.9339 77.060547 129.68555 77.060547 C 129.49081 77.060547 129.326 77.013924 129.19336 76.917969 C 129.06354 76.819191 128.98417 76.686042 128.95312 76.519531 L 130.72656 76.519531 C 130.73221 76.451798 130.73438 76.39997 130.73438 76.363281 C 130.73438 76.131859 130.68667 75.928884 130.58789 75.753906 C 130.49194 75.576106 130.35662 75.437752 130.18164 75.341797 C 130.00949 75.243019 129.81193 75.195312 129.5918 75.195312 z M 132.28125 75.195312 C 132.04418 75.195312 131.8308 75.243019 131.64453 75.341797 C 131.46109 75.440575 131.31731 75.578929 131.21289 75.753906 C 131.10847 75.928884 131.05664 76.126654 131.05664 76.349609 C 131.05664 76.572565 131.10847 76.773372 131.21289 76.951172 C 131.31731 77.12615 131.46412 77.26255 131.65039 77.361328 C 131.83666 77.460106 132.04701 77.509766 132.28125 77.509766 C 132.50138 77.509766 132.69482 77.465311 132.86133 77.375 C 133.03066 77.281867 133.1586 77.149802 133.24609 76.980469 L 132.83984 76.744141 C 132.77493 76.848563 132.69253 76.926847 132.59375 76.980469 C 132.49779 77.031269 132.3911 77.056641 132.27539 77.056641 C 132.07501 77.056641 131.91107 76.994187 131.78125 76.867188 C 131.65425 76.737365 131.58984 76.564098 131.58984 76.349609 C 131.58984 76.135121 131.65533 75.964891 131.78516 75.837891 C 131.91498 75.708069 132.07784 75.642578 132.27539 75.642578 C 132.3911 75.642578 132.49779 75.670987 132.59375 75.724609 C 132.69253 75.775409 132.77493 75.852609 132.83984 75.957031 L 133.24609 75.71875 C 133.16143 75.549417 133.03457 75.420389 132.86523 75.330078 C 132.69872 75.239767 132.50421 75.195312 132.28125 75.195312 z M 127.38672 75.220703 L 127.38672 77.535156 C 127.38672 77.653689 127.36026 77.743468 127.30664 77.802734 C 127.25584 77.864823 127.18081 77.894531 127.08203 77.894531 C 126.95503 77.894531 126.85246 77.865907 126.77344 77.806641 L 126.62109 78.201172 C 126.7368 78.288661 126.90595 78.332031 127.12891 78.332031 C 127.37726 78.332031 127.5707 78.259168 127.70898 78.115234 C 127.84727 77.971301 127.91602 77.774615 127.91602 77.523438 L 127.91602 75.220703 L 127.38672 75.220703 z M 129.5918 75.617188 C 129.76395 75.617187 129.90773 75.667931 130.02344 75.769531 C 130.13915 75.871131 130.20984 76.00428 130.23242 76.167969 L 128.94922 76.167969 C 128.97462 76.001458 129.04445 75.868309 129.16016 75.769531 C 129.27869 75.667931 129.42246 75.617188 129.5918 75.617188 z M 125.65039 75.642578 C 125.84512 75.642578 126.00473 75.708069 126.12891 75.837891 C 126.25591 75.967713 126.32031 76.137943 126.32031 76.349609 C 126.32031 76.561276 126.25591 76.733459 126.12891 76.863281 C 126.00473 76.993103 125.84512 77.056641 125.65039 77.056641 C 125.52339 77.056641 125.41019 77.029101 125.30859 76.972656 C 125.20699 76.91339 125.12567 76.829901 125.06641 76.722656 C 125.00714 76.615412 124.97852 76.49072 124.97852 76.349609 C 124.97852 76.208498 125.00714 76.08576 125.06641 75.978516 C 125.12567 75.871271 125.20699 75.788866 125.30859 75.732422 C 125.41019 75.673155 125.52339 75.642578 125.65039 75.642578 z "
       xlink:href="#text790"
       id="path1129"
       inkscape:href="#text790"
       d="m 127.64844,74.212891 c -0.096,0 -0.17533,0.02971 -0.24024,0.0918 -0.0649,0.05927 -0.0976,0.134298 -0.0976,0.224609 0,0.09031 0.0327,0.166427 0.0976,0.228515 0.0649,0.05927 0.14428,0.08984 0.24024,0.08984 0.0988,0 0.1801,-0.03166 0.24218,-0.09375 0.0649,-0.06491 0.0977,-0.143195 0.0977,-0.236328 0,-0.08749 -0.0327,-0.160352 -0.0977,-0.216797 -0.0649,-0.05927 -0.14623,-0.08789 -0.24218,-0.08789 z m -3.19141,0.126953 v 3.140625 h 0.50391 V 77.1875 c 0.0875,0.107244 0.19526,0.188565 0.32226,0.242188 0.12983,0.05362 0.27252,0.08008 0.42774,0.08008 0.22013,0 0.41573,-0.04662 0.58789,-0.142578 0.17498,-0.09596 0.31138,-0.233226 0.41015,-0.408204 0.0988,-0.177799 0.14844,-0.380775 0.14844,-0.609375 0,-0.228599 -0.0497,-0.430491 -0.14844,-0.605468 -0.0988,-0.174978 -0.23517,-0.310295 -0.41015,-0.40625 -0.17216,-0.09596 -0.36776,-0.142579 -0.58789,-0.142579 -0.14676,0 -0.28207,0.02537 -0.40625,0.07617 -0.12136,0.0508 -0.22805,0.125832 -0.31836,0.22461 v -1.15625 z m -2.12891,0.134765 c -0.30197,0 -0.57369,0.06658 -0.8164,0.199219 -0.24271,0.129822 -0.43398,0.312631 -0.57227,0.546875 -0.13829,0.231422 -0.20703,0.489477 -0.20703,0.777344 0,0.287866 0.0687,0.548959 0.20703,0.783203 0.13829,0.231422 0.32956,0.414231 0.57227,0.546875 0.24271,0.129822 0.51443,0.195313 0.8164,0.195313 0.30198,-10e-7 0.5737,-0.06549 0.81641,-0.195313 0.24271,-0.132644 0.43398,-0.315453 0.57227,-0.546875 0.13829,-0.231422 0.20703,-0.492514 0.20703,-0.783203 0,-0.290689 -0.0687,-0.551781 -0.20703,-0.783203 -0.13829,-0.231422 -0.32956,-0.411194 -0.57227,-0.541016 -0.24271,-0.132644 -0.51443,-0.199219 -0.81641,-0.199219 z m 11.47657,0.246094 v 0.515625 h -0.37305 v 0.423828 h 0.37305 v 1.087891 c 0,0.248355 0.0677,0.438537 0.20312,0.568359 0.13547,0.129822 0.32782,0.19336 0.57617,0.19336 0.0988,0 0.19181,-0.01171 0.2793,-0.03711 0.0903,-0.0254 0.16643,-0.06443 0.22852,-0.115234 l -0.14844,-0.376953 c -0.079,0.06209 -0.17834,0.09375 -0.29688,0.09375 -0.1016,0 -0.1788,-0.02754 -0.23242,-0.08398 -0.0536,-0.05927 -0.0801,-0.143839 -0.0801,-0.253906 v -1.076172 h 0.60547 v -0.423828 h -0.60547 v -0.515625 z m -11.47657,0.236328 c 0.19756,0 0.37516,0.04641 0.53321,0.136719 0.15804,0.08749 0.28273,0.210227 0.37305,0.371094 0.0903,0.158044 0.13476,0.335647 0.13476,0.533203 0,0.197555 -0.0444,0.378196 -0.13476,0.539062 -0.0903,0.158045 -0.21501,0.280783 -0.37305,0.371094 -0.15805,0.08749 -0.33565,0.132813 -0.53321,0.132813 -0.19755,0 -0.37515,-0.04532 -0.5332,-0.132813 -0.15804,-0.09031 -0.28273,-0.213049 -0.37304,-0.371094 -0.0903,-0.160866 -0.13477,-0.341507 -0.13477,-0.539062 0,-0.197556 0.0444,-0.375159 0.13477,-0.533203 0.0903,-0.160867 0.215,-0.283605 0.37304,-0.371094 0.15805,-0.09031 0.33565,-0.136719 0.5332,-0.136719 z m 7.26368,0.238281 c -0.22296,0 -0.42377,0.04771 -0.60157,0.146485 -0.1778,0.09878 -0.31636,0.238216 -0.41796,0.416015 -0.0988,0.174978 -0.14844,0.371664 -0.14844,0.591797 0,0.222956 0.0507,0.423763 0.15234,0.601563 0.10442,0.174978 0.25037,0.311378 0.43945,0.410156 0.18909,0.09878 0.4079,0.148438 0.65626,0.148438 0.19473,0 0.37016,-0.02971 0.52539,-0.0918 0.15522,-0.06209 0.28316,-0.154035 0.38476,-0.275391 l -0.2832,-0.326172 c -0.16087,0.163689 -0.36493,0.244141 -0.61328,0.244141 -0.19474,0 -0.35955,-0.04662 -0.49219,-0.142578 -0.12982,-0.09878 -0.20919,-0.231927 -0.24024,-0.398438 h 1.77344 c 0.006,-0.06773 0.008,-0.119561 0.008,-0.15625 0,-0.231422 -0.0477,-0.434397 -0.14649,-0.609375 -0.0959,-0.1778 -0.23127,-0.316154 -0.40625,-0.412109 -0.17215,-0.09878 -0.36971,-0.146485 -0.58984,-0.146485 z m 2.68945,0 c -0.23707,0 -0.45045,0.04771 -0.63672,0.146485 -0.18344,0.09878 -0.32722,0.237132 -0.43164,0.412109 -0.10442,0.174978 -0.15625,0.372748 -0.15625,0.595703 0,0.222956 0.0518,0.423763 0.15625,0.601563 0.10442,0.174978 0.25123,0.311378 0.4375,0.410156 0.18627,0.09878 0.39662,0.148438 0.63086,0.148438 0.22013,0 0.41357,-0.04445 0.58008,-0.134766 0.16933,-0.09313 0.29727,-0.225198 0.38476,-0.394531 l -0.40625,-0.236328 c -0.0649,0.104422 -0.14731,0.182706 -0.24609,0.236328 -0.096,0.0508 -0.20265,0.07617 -0.31836,0.07617 -0.20038,0 -0.36432,-0.06245 -0.49414,-0.189453 -0.127,-0.129823 -0.19141,-0.30309 -0.19141,-0.517579 0,-0.214488 0.0655,-0.384718 0.19532,-0.511718 0.12982,-0.129822 0.29268,-0.195313 0.49023,-0.195313 0.11571,0 0.2224,0.02841 0.31836,0.08203 0.0988,0.0508 0.18118,0.128 0.24609,0.232422 l 0.40625,-0.238281 c -0.0847,-0.169333 -0.21152,-0.298361 -0.38086,-0.388672 -0.16651,-0.09031 -0.36102,-0.134766 -0.58398,-0.134766 z m -4.89453,0.02539 v 2.314453 c 0,0.118533 -0.0265,0.208312 -0.0801,0.267578 -0.0508,0.06209 -0.12583,0.0918 -0.22461,0.0918 -0.127,0 -0.22957,-0.02862 -0.30859,-0.08789 l -0.15235,0.394531 c 0.11571,0.08749 0.28486,0.130859 0.50782,0.130859 0.24835,0 0.44179,-0.07286 0.58007,-0.216797 0.13829,-0.143933 0.20704,-0.340619 0.20704,-0.591796 v -2.302735 z m 2.20508,0.396485 c 0.17215,-10e-7 0.31593,0.05074 0.43164,0.152343 0.11571,0.1016 0.1864,0.234749 0.20898,0.398438 h -1.2832 c 0.0254,-0.166511 0.0952,-0.29966 0.21094,-0.398438 0.11853,-0.1016 0.2623,-0.152343 0.43164,-0.152343 z m -3.94141,0.02539 c 0.19473,0 0.35434,0.06549 0.47852,0.195313 0.127,0.129822 0.1914,0.300052 0.1914,0.511718 0,0.211667 -0.0644,0.38385 -0.1914,0.513672 -0.12418,0.129822 -0.28379,0.19336 -0.47852,0.19336 -0.127,0 -0.2402,-0.02754 -0.3418,-0.08398 -0.1016,-0.05927 -0.18292,-0.142755 -0.24218,-0.25 -0.0593,-0.107244 -0.0879,-0.231936 -0.0879,-0.373047 0,-0.141111 0.0286,-0.263849 0.0879,-0.371093 0.0593,-0.107245 0.14058,-0.18965 0.24218,-0.246094 0.1016,-0.05927 0.2148,-0.08984 0.3418,-0.08984 z"
       inkscape:export-filename="20230320_dryml_Object_Load_2_Render.svg"
       inkscape:export-xdpi="150"
       inkscape:export-ydpi="150" />
    <g
       id="g7193">
      <g
         id="rect2734">
        <path
           style="color:#000000;fill:#ffffff;stroke-width:0.4;-inkscape-stroke:none"
           d="m 119.08518,72.664734 h 17.80533 v 7.191961 h -17.80533 z"
           id="path2018" />
        <path
           style="color:#000000;fill:#000000;-inkscape-stroke:none"
           d="m 118.88477,72.464844 v 0.199218 7.392579 h 18.20507 v -7.591797 z m 0.40039,0.40039 h 17.40625 v 6.791016 h -17.40625 z"
           id="path2020" />
      </g>
      <g
         aria-label="Object"
         id="text790"
         style="font-weight:600;font-size:4.23333px;font-family:Montserrat;-inkscape-font-specification:'Montserrat Semi-Bold';letter-spacing:0px;word-spacing:0px;stroke-width:0.264583">
        <path
           d="m 122.32786,77.522909 q -0.45297,0 -0.81704,-0.194733 -0.36406,-0.198967 -0.5715,-0.5461 -0.20743,-0.351366 -0.20743,-0.783166 0,-0.431799 0.20743,-0.778933 0.20744,-0.351366 0.5715,-0.546099 0.36407,-0.198967 0.81704,-0.198967 0.45296,0 0.81703,0.198967 0.36406,0.194733 0.5715,0.541866 0.20743,0.347133 0.20743,0.783166 0,0.436033 -0.20743,0.783166 -0.20744,0.347133 -0.5715,0.5461 -0.36407,0.194733 -0.81703,0.194733 z m 0,-0.4826 q 0.29633,0 0.5334,-0.131233 0.23706,-0.135467 0.37253,-0.372533 0.13546,-0.2413 0.13546,-0.537633 0,-0.296333 -0.13546,-0.533399 -0.13547,-0.2413 -0.37253,-0.372533 -0.23707,-0.135467 -0.5334,-0.135467 -0.29634,0 -0.5334,0.135467 -0.23707,0.131233 -0.37254,0.372533 -0.13546,0.237066 -0.13546,0.533399 0,0.296333 0.13546,0.537633 0.13547,0.237066 0.37254,0.372533 0.23706,0.131233 0.5334,0.131233 z"
           id="path2022" />
        <path
           d="m 125.71029,75.194577 q 0.3302,0 0.58843,0.143934 0.26247,0.143933 0.41064,0.406399 0.14816,0.262467 0.14816,0.605367 0,0.342899 -0.14816,0.609599 -0.14817,0.262466 -0.41064,0.4064 -0.25823,0.143933 -0.58843,0.143933 -0.23283,0 -0.42757,-0.08043 -0.1905,-0.08043 -0.32173,-0.2413 v 0.2921 h -0.50377 v -3.141131 h 0.52917 v 1.155699 q 0.13547,-0.148167 0.3175,-0.224367 0.18627,-0.0762 0.4064,-0.0762 z m -0.0593,1.862666 q 0.2921,0 0.47837,-0.194734 0.1905,-0.194733 0.1905,-0.512232 0,-0.3175 -0.1905,-0.512233 -0.18627,-0.194734 -0.47837,-0.194734 -0.1905,0 -0.3429,0.0889 -0.1524,0.08467 -0.2413,0.245533 -0.0889,0.160867 -0.0889,0.372534 0,0.211666 0.0889,0.372533 0.0889,0.160866 0.2413,0.249766 0.1524,0.08467 0.3429,0.08467 z"
           id="path2024" />
        <path
           d="m 127.12846,78.331475 q -0.33443,0 -0.508,-0.131233 l 0.1524,-0.3937 q 0.11853,0.0889 0.30903,0.0889 0.14817,0 0.22437,-0.09313 0.0804,-0.0889 0.0804,-0.2667 V 75.21998 h 0.52917 v 2.302932 q 0,0.376766 -0.20743,0.592666 -0.20744,0.2159 -0.57997,0.2159 z m 0.5207,-3.484031 q -0.14393,0 -0.2413,-0.0889 -0.0974,-0.09313 -0.0974,-0.2286 0,-0.135467 0.0974,-0.224367 0.0974,-0.09313 0.2413,-0.09313 0.14393,0 0.2413,0.0889 0.0974,0.08467 0.0974,0.2159 0,0.1397 -0.0974,0.237066 -0.0931,0.09313 -0.2413,0.09313 z"
           id="path2026" />
        <path
           d="m 130.73526,76.362977 q 0,0.05503 -0.008,0.156633 h -1.77377 q 0.0466,0.249766 0.2413,0.397933 0.19897,0.143933 0.49107,0.143933 0.37253,0 0.61383,-0.245533 l 0.28364,0.325966 q -0.1524,0.182033 -0.38524,0.275167 -0.23283,0.09313 -0.52493,0.09313 -0.37253,0 -0.65617,-0.148167 -0.28363,-0.148166 -0.44026,-0.410633 -0.1524,-0.266699 -0.1524,-0.601132 0,-0.3302 0.14816,-0.592667 0.1524,-0.266699 0.4191,-0.414866 0.2667,-0.148167 0.60114,-0.148167 0.3302,0 0.58843,0.148167 0.26247,0.143933 0.4064,0.410633 0.14817,0.262466 0.14817,0.6096 z m -1.143,-0.745067 q -0.254,0 -0.4318,0.1524 -0.17357,0.148167 -0.21167,0.397933 h 1.2827 q -0.0339,-0.245533 -0.20743,-0.397933 -0.17357,-0.1524 -0.4318,-0.1524 z"
           id="path2028" />
        <path
           d="m 132.28042,77.510209 q -0.35137,0 -0.63077,-0.148167 -0.2794,-0.148166 -0.43603,-0.410633 -0.15663,-0.266699 -0.15663,-0.601132 0,-0.334434 0.15663,-0.5969 0.15663,-0.262466 0.4318,-0.410633 0.2794,-0.148167 0.635,-0.148167 0.33443,0 0.5842,0.135467 0.254,0.135467 0.381,0.389466 l -0.4064,0.237067 q -0.0974,-0.156633 -0.24553,-0.232833 -0.14394,-0.08043 -0.3175,-0.08043 -0.29634,0 -0.49107,0.194734 -0.19473,0.190499 -0.19473,0.512233 0,0.321733 0.1905,0.516466 0.19473,0.1905 0.4953,0.1905 0.17356,0 0.3175,-0.0762 0.14816,-0.08043 0.24553,-0.237067 l 0.4064,0.237067 q -0.13123,0.253999 -0.38523,0.393699 -0.24977,0.135467 -0.57997,0.135467 z"
           id="path2030" />
        <path
           d="m 135.09135,77.357809 q -0.0931,0.0762 -0.2286,0.1143 -0.13123,0.0381 -0.2794,0.0381 -0.37253,0 -0.57573,-0.194733 -0.2032,-0.194733 -0.2032,-0.567266 v -1.087966 h -0.37254 v -0.423333 h 0.37254 v -0.516466 h 0.52916 v 0.516466 h 0.60537 v 0.423333 h -0.60537 v 1.075266 q 0,0.165099 0.0804,0.253999 0.0804,0.08467 0.23283,0.08467 0.1778,0 0.29633,-0.09313 z"
           id="path2032" />
      </g>
    </g>
    <g
       id="g7203">
      <g
         id="rect2734-2">
        <path
           style="color:#000000;fill:#ffffff;stroke-width:0.4;-inkscape-stroke:none"
           d="M 42.818062,73.068306 H 71.490959 V 79.45313 H 42.818062 Z"
           id="path2049" />
        <path
           style="color:#000000;fill:#000000;-inkscape-stroke:none"
           d="m 42.617187,72.869141 v 0.199218 6.583985 h 29.074219 v -6.783203 z m 0.400391,0.398437 h 28.273438 v 5.986328 H 43.017578 Z"
           id="path2051" />
      </g>
      <g
         aria-label="User Class 2"
         id="text844-3-3"
         style="font-weight:600;font-size:4.23333px;font-family:Montserrat;-inkscape-font-specification:'Montserrat Semi-Bold';letter-spacing:0px;word-spacing:0px;stroke-width:0">
        <path
           d="m 45.648781,77.79389 q -0.613833,0 -0.956732,-0.3429 -0.3429,-0.347133 -0.3429,-0.990599 v -1.672165 h 0.550333 v 1.650998 q 0,0.872066 0.753532,0.872066 0.7493,0 0.7493,-0.872066 v -1.650998 h 0.541866 v 1.672165 q 0,0.643466 -0.3429,0.990599 -0.338666,0.3429 -0.952499,0.3429 z"
           id="path2053" />
        <path
           d="m 48.362344,77.78119 q -0.275167,0 -0.537633,-0.07197 -0.262467,-0.07197 -0.4191,-0.182033 l 0.2032,-0.402166 q 0.1524,0.1016 0.364066,0.165099 0.2159,0.05927 0.423333,0.05927 0.474133,0 0.474133,-0.249766 0,-0.118534 -0.122766,-0.1651 -0.118534,-0.04657 -0.385233,-0.0889 -0.2794,-0.04233 -0.4572,-0.09737 -0.173566,-0.05503 -0.3048,-0.1905 -0.127,-0.139699 -0.127,-0.385233 0,-0.321733 0.2667,-0.512233 0.270933,-0.194733 0.728133,-0.194733 0.232833,0 0.465666,0.05503 0.232833,0.0508 0.381,0.139699 l -0.2032,0.402167 q -0.287866,-0.169333 -0.647699,-0.169333 -0.232834,0 -0.3556,0.07197 -0.118533,0.06773 -0.118533,0.182033 0,0.127 0.127,0.182034 0.131233,0.0508 0.402166,0.09737 0.270933,0.04233 0.444499,0.09737 0.173567,0.05503 0.296334,0.186266 0.126999,0.131233 0.126999,0.372533 0,0.3175 -0.275166,0.508 -0.275166,0.1905 -0.749299,0.1905 z"
           id="path2055" />
        <path
           d="m 51.969138,76.633957 q 0,0.05503 -0.0085,0.156634 h -1.773765 q 0.04657,0.249766 0.2413,0.397933 0.198966,0.143933 0.491066,0.143933 0.372533,0 0.613833,-0.245533 l 0.283633,0.325966 q -0.1524,0.182033 -0.385233,0.275166 -0.232833,0.09313 -0.524933,0.09313 -0.372533,0 -0.656166,-0.148167 -0.283633,-0.148166 -0.440266,-0.410633 -0.1524,-0.2667 -0.1524,-0.601133 0,-0.330199 0.148166,-0.592666 0.1524,-0.2667 0.4191,-0.414866 0.2667,-0.148167 0.601133,-0.148167 0.3302,0 0.588433,0.148167 0.262466,0.143933 0.406399,0.410633 0.148167,0.262466 0.148167,0.609599 z m -1.142999,-0.745066 q -0.254,0 -0.4318,0.1524 -0.173566,0.148167 -0.211666,0.397933 h 1.282699 q -0.03387,-0.245533 -0.207433,-0.397933 -0.173567,-0.1524 -0.4318,-0.1524 z"
           id="path2057" />
        <path
           d="m 52.980902,75.821158 q 0.2286,-0.3556 0.804333,-0.3556 v 0.503767 q -0.06773,-0.0127 -0.122767,-0.0127 -0.309033,0 -0.482599,0.182033 -0.173567,0.1778 -0.173567,0.516466 v 1.096432 h -0.529166 v -2.260598 h 0.503766 z"
           id="path2059" />
        <path
           d="m 56.845929,77.79389 q -0.448733,0 -0.8128,-0.194733 -0.359833,-0.198967 -0.567266,-0.5461 -0.2032,-0.347133 -0.2032,-0.783166 0,-0.436033 0.207434,-0.783166 0.207433,-0.347133 0.567266,-0.541866 0.364066,-0.198967 0.812799,-0.198967 0.364066,0 0.664633,0.127 0.300566,0.127 0.507999,0.3683 l -0.355599,0.334433 q -0.321733,-0.347133 -0.791633,-0.347133 -0.3048,0 -0.546099,0.135466 -0.2413,0.131234 -0.376767,0.3683 -0.135466,0.237067 -0.135466,0.537633 0,0.300566 0.135466,0.537633 0.135467,0.237066 0.376767,0.372533 0.241299,0.131233 0.546099,0.131233 0.4699,0 0.791633,-0.351366 l 0.355599,0.338666 q -0.207433,0.2413 -0.512232,0.3683 -0.300567,0.127 -0.664633,0.127 z"
           id="path2061" />
        <path
           d="m 58.501158,74.610426 h 0.529166 v 3.14113 h -0.529166 z"
           id="path2063" />
        <path
           d="m 60.588188,75.465558 q 0.499533,0 0.761999,0.2413 0.2667,0.237067 0.2667,0.719666 v 1.325032 H 61.117354 V 77.47639 q -0.09737,0.148167 -0.2794,0.2286 -0.177799,0.0762 -0.431799,0.0762 -0.254,0 -0.4445,-0.08467 -0.1905,-0.0889 -0.296333,-0.2413 -0.1016,-0.156633 -0.1016,-0.351366 0,-0.3048 0.224367,-0.486833 0.2286,-0.186266 0.715432,-0.186266 h 0.5842 v -0.03387 q 0,-0.237067 -0.143933,-0.364066 -0.1397,-0.127 -0.4191,-0.127 -0.1905,0 -0.376766,0.05927 -0.182033,0.05927 -0.309033,0.1651 l -0.207434,-0.385233 q 0.1778,-0.135466 0.427567,-0.207433 0.249766,-0.07197 0.529166,-0.07197 z m -0.07197,1.930399 q 0.198967,0 0.351367,-0.0889 0.156633,-0.09313 0.220133,-0.262467 v -0.262466 h -0.5461 q -0.457199,0 -0.457199,0.300566 0,0.143934 0.1143,0.2286 0.1143,0.08467 0.317499,0.08467 z"
           id="path2065" />
        <path
           d="m 62.992721,77.78119 q -0.275167,0 -0.537633,-0.07197 -0.262467,-0.07197 -0.4191,-0.182033 l 0.2032,-0.402166 q 0.1524,0.1016 0.364066,0.165099 0.2159,0.05927 0.423333,0.05927 0.474133,0 0.474133,-0.249766 0,-0.118534 -0.122766,-0.1651 -0.118534,-0.04657 -0.385233,-0.0889 -0.2794,-0.04233 -0.4572,-0.09737 -0.173566,-0.05503 -0.3048,-0.1905 -0.127,-0.139699 -0.127,-0.385233 0,-0.321733 0.2667,-0.512233 0.270933,-0.194733 0.728133,-0.194733 0.232833,0 0.465666,0.05503 0.232833,0.0508 0.381,0.139699 l -0.2032,0.402167 q -0.287866,-0.169333 -0.647699,-0.169333 -0.232834,0 -0.3556,0.07197 -0.118533,0.06773 -0.118533,0.182033 0,0.127 0.127,0.182034 0.131233,0.0508 0.402166,0.09737 0.270933,0.04233 0.4445,0.09737 0.173566,0.05503 0.296333,0.186266 0.127,0.131233 0.127,0.372533 0,0.3175 -0.275167,0.508 -0.275166,0.1905 -0.749299,0.1905 z"
           id="path2067" />
        <path
           d="m 65.172883,77.78119 q -0.275166,0 -0.537633,-0.07197 -0.262466,-0.07197 -0.419099,-0.182033 l 0.203199,-0.402166 q 0.1524,0.1016 0.364067,0.165099 0.2159,0.05927 0.423333,0.05927 0.474133,0 0.474133,-0.249766 0,-0.118534 -0.122767,-0.1651 -0.118533,-0.04657 -0.385233,-0.0889 -0.2794,-0.04233 -0.457199,-0.09737 -0.173567,-0.05503 -0.3048,-0.1905 -0.127,-0.139699 -0.127,-0.385233 0,-0.321733 0.2667,-0.512233 0.270933,-0.194733 0.728132,-0.194733 0.232834,0 0.465667,0.05503 0.232833,0.0508 0.380999,0.139699 l -0.2032,0.402167 q -0.287866,-0.169333 -0.647699,-0.169333 -0.232833,0 -0.3556,0.07197 -0.118533,0.06773 -0.118533,0.182033 0,0.127 0.127,0.182034 0.131233,0.0508 0.402166,0.09737 0.270933,0.04233 0.4445,0.09737 0.173566,0.05503 0.296333,0.186266 0.127,0.131233 0.127,0.372533 0,0.3175 -0.275167,0.508 -0.275166,0.1905 -0.749299,0.1905 z"
           id="path2069" />
        <path
           d="m 69.808372,77.28589 v 0.465666 h -2.184398 v -0.368299 l 1.176865,-1.117599 q 0.198967,-0.1905 0.2667,-0.3302 0.07197,-0.143933 0.07197,-0.283633 0,-0.207433 -0.1397,-0.3175 -0.1397,-0.110066 -0.410633,-0.110066 -0.452966,0 -0.694266,0.309033 l -0.385233,-0.296333 q 0.173566,-0.232834 0.465666,-0.359834 0.296333,-0.131233 0.6604,-0.131233 0.482599,0 0.770466,0.2286 0.287866,0.2286 0.287866,0.6223 0,0.241299 -0.1016,0.452966 -0.1016,0.211666 -0.389466,0.482599 l -0.791633,0.753533 z"
           id="path2071" />
      </g>
    </g>
    <g
       id="g7198">
      <g
         id="rect2734-3">
        <path
           style="color:#000000;fill:#ffffff;stroke-width:0.4;-inkscape-stroke:none"
           d="m 80.160873,73.026451 h 27.445187 v 6.468526 H 80.160873 Z"
           id="path2096" />
        <path
           style="color:#000000;fill:#000000;-inkscape-stroke:none"
           d="m 79.960937,72.826172 v 0.201172 6.667968 h 27.845703 v -6.86914 z m 0.400391,0.40039 h 27.044922 v 6.06836 H 80.361328 Z"
           id="path2098" />
      </g>
      <g
         aria-label="User Class 1"
         id="text844-3"
         style="font-weight:600;font-size:4.23333px;font-family:Montserrat;-inkscape-font-specification:'Montserrat Semi-Bold';letter-spacing:0px;word-spacing:0px;stroke-width:0">
        <path
           d="m 82.825875,77.791052 q -0.613833,0 -0.956733,-0.3429 -0.3429,-0.347133 -0.3429,-0.990599 v -1.672166 h 0.550333 v 1.650999 q 0,0.872066 0.753533,0.872066 0.749299,0 0.749299,-0.872066 v -1.650999 h 0.541867 v 1.672166 q 0,0.643466 -0.3429,0.990599 -0.338667,0.3429 -0.952499,0.3429 z"
           id="path2100" />
        <path
           d="m 85.539437,77.778352 q -0.275166,0 -0.537633,-0.07197 -0.262466,-0.07197 -0.419099,-0.182033 l 0.203199,-0.402167 q 0.1524,0.1016 0.364067,0.1651 0.2159,0.05927 0.423333,0.05927 0.474133,0 0.474133,-0.249767 0,-0.118533 -0.122767,-0.165099 -0.118533,-0.04657 -0.385233,-0.0889 -0.2794,-0.04233 -0.457199,-0.09737 -0.173567,-0.05503 -0.3048,-0.1905 -0.127,-0.1397 -0.127,-0.385233 0,-0.321733 0.2667,-0.512233 0.270933,-0.194733 0.728132,-0.194733 0.232834,0 0.465667,0.05503 0.232833,0.0508 0.380999,0.1397 l -0.203199,0.402167 q -0.287867,-0.169334 -0.6477,-0.169334 -0.232833,0 -0.3556,0.07197 -0.118533,0.06773 -0.118533,0.182033 0,0.127 0.127,0.182033 0.131233,0.0508 0.402166,0.09737 0.270933,0.04233 0.4445,0.09737 0.173566,0.05503 0.296333,0.186266 0.127,0.131233 0.127,0.372533 0,0.3175 -0.275166,0.508 -0.275167,0.1905 -0.7493,0.1905 z"
           id="path2102" />
        <path
           d="m 89.146231,76.631119 q 0,0.05503 -0.0085,0.156633 H 87.364 q 0.04657,0.249767 0.241299,0.397933 0.198967,0.143934 0.491067,0.143934 0.372533,0 0.613833,-0.245534 l 0.283633,0.325967 q -0.1524,0.182033 -0.385233,0.275166 -0.232834,0.09313 -0.524933,0.09313 -0.372533,0 -0.656166,-0.148167 -0.283634,-0.148167 -0.440267,-0.410633 -0.1524,-0.2667 -0.1524,-0.601133 0,-0.3302 0.148167,-0.592666 0.1524,-0.2667 0.4191,-0.414866 0.266699,-0.148167 0.601132,-0.148167 0.3302,0 0.588433,0.148167 0.262467,0.143933 0.4064,0.410633 0.148166,0.262466 0.148166,0.609599 z m -1.142999,-0.745066 q -0.253999,0 -0.431799,0.1524 -0.173567,0.148167 -0.211667,0.397933 h 1.282699 q -0.03387,-0.245533 -0.207433,-0.397933 -0.173566,-0.1524 -0.4318,-0.1524 z"
           id="path2104" />
        <path
           d="m 90.157996,75.81832 q 0.2286,-0.3556 0.804332,-0.3556 v 0.503766 q -0.06773,-0.0127 -0.122766,-0.0127 -0.309033,0 -0.4826,0.182034 -0.173566,0.177799 -0.173566,0.516466 v 1.096432 H 89.65423 V 75.48812 h 0.503766 z"
           id="path2106" />
        <path
           d="m 94.023022,77.791052 q -0.448733,0 -0.812799,-0.194734 -0.359833,-0.198966 -0.567266,-0.546099 -0.2032,-0.347133 -0.2032,-0.783166 0,-0.436033 0.207433,-0.783166 0.207433,-0.347133 0.567266,-0.541866 0.364067,-0.198967 0.8128,-0.198967 0.364066,0 0.664632,0.127 0.300567,0.127 0.508,0.3683 l -0.3556,0.334433 q -0.321733,-0.347133 -0.791632,-0.347133 -0.3048,0 -0.5461,0.135466 -0.2413,0.131233 -0.376766,0.3683 -0.135467,0.237066 -0.135467,0.537633 0,0.300566 0.135467,0.537633 0.135466,0.237066 0.376766,0.372533 0.2413,0.131233 0.5461,0.131233 0.469899,0 0.791632,-0.351366 l 0.3556,0.338666 q -0.207433,0.2413 -0.512233,0.3683 -0.300566,0.127 -0.664633,0.127 z"
           id="path2108" />
        <path
           d="m 95.678252,74.607588 h 0.529166 v 3.14113 h -0.529166 z"
           id="path2110" />
        <path
           d="m 97.765282,75.46272 q 0.499532,0 0.761999,0.2413 0.2667,0.237066 0.2667,0.719666 v 1.325032 h -0.499533 v -0.275166 q -0.09737,0.148166 -0.2794,0.2286 -0.1778,0.0762 -0.4318,0.0762 -0.253999,0 -0.444499,-0.08467 -0.1905,-0.0889 -0.296333,-0.2413 -0.1016,-0.156633 -0.1016,-0.351366 0,-0.3048 0.224366,-0.486833 0.2286,-0.186267 0.715433,-0.186267 h 0.584199 v -0.03387 q 0,-0.237067 -0.143933,-0.364067 -0.1397,-0.127 -0.419099,-0.127 -0.1905,0 -0.376767,0.05927 -0.182033,0.05927 -0.309033,0.1651 L 96.808549,75.74212 q 0.1778,-0.135467 0.427566,-0.207433 0.249767,-0.07197 0.529167,-0.07197 z m -0.07197,1.930399 q 0.198966,0 0.351366,-0.0889 0.156633,-0.09313 0.220133,-0.262467 v -0.262466 h -0.546099 q -0.4572,0 -0.4572,0.300566 0,0.143933 0.1143,0.2286 0.1143,0.08467 0.3175,0.08467 z"
           id="path2112" />
        <path
           d="m 100.16981,77.778352 q -0.275162,0 -0.537629,-0.07197 -0.262466,-0.07197 -0.419099,-0.182033 l 0.2032,-0.402167 q 0.152399,0.1016 0.364066,0.1651 0.2159,0.05927 0.423332,0.05927 0.47413,0 0.47413,-0.249767 0,-0.118533 -0.12276,-0.165099 -0.11854,-0.04657 -0.38524,-0.0889 -0.279396,-0.04233 -0.457195,-0.09737 -0.173567,-0.05503 -0.3048,-0.1905 -0.127,-0.1397 -0.127,-0.385233 0,-0.321733 0.2667,-0.512233 0.270933,-0.194733 0.728135,-0.194733 0.23283,0 0.46566,0.05503 0.23284,0.0508 0.381,0.1397 l -0.2032,0.402167 q -0.28786,-0.169334 -0.6477,-0.169334 -0.23283,0 -0.355596,0.07197 -0.118533,0.06773 -0.118533,0.182033 0,0.127 0.127,0.182033 0.131229,0.0508 0.402169,0.09737 0.27093,0.04233 0.4445,0.09737 0.17356,0.05503 0.29633,0.186266 0.127,0.131233 0.127,0.372533 0,0.3175 -0.27517,0.508 -0.27516,0.1905 -0.7493,0.1905 z"
           id="path2114" />
        <path
           d="m 102.34998,77.778352 q -0.27517,0 -0.53764,-0.07197 -0.26246,-0.07197 -0.4191,-0.182033 l 0.2032,-0.402167 q 0.1524,0.1016 0.36407,0.1651 0.2159,0.05927 0.42333,0.05927 0.47414,0 0.47414,-0.249767 0,-0.118533 -0.12277,-0.165099 -0.11853,-0.04657 -0.38523,-0.0889 -0.2794,-0.04233 -0.4572,-0.09737 -0.17357,-0.05503 -0.3048,-0.1905 -0.127,-0.1397 -0.127,-0.385233 0,-0.321733 0.2667,-0.512233 0.27093,-0.194733 0.72813,-0.194733 0.23283,0 0.46567,0.05503 0.23283,0.0508 0.381,0.1397 l -0.2032,0.402167 q -0.28787,-0.169334 -0.6477,-0.169334 -0.23284,0 -0.3556,0.07197 -0.11854,0.06773 -0.11854,0.182033 0,0.127 0.127,0.182033 0.13124,0.0508 0.40217,0.09737 0.27093,0.04233 0.4445,0.09737 0.17357,0.05503 0.29633,0.186266 0.127,0.131233 0.127,0.372533 0,0.3175 -0.27516,0.508 -0.27517,0.1905 -0.7493,0.1905 z"
           id="path2116" />
        <path
           d="m 105.86363,74.785387 v 2.963331 H 105.3133 V 75.24682 h -0.62653 v -0.461433 z"
           id="path2118" />
      </g>
    </g>
    <g
       id="path2886">
      <path
         style="color:#000000;fill:#000000;-inkscape-stroke:none"
         d="m 78.136719,76.060547 -6.646485,0.0098 0.002,0.400391 6.644532,-0.0098 z"
         id="path2151" />
      <g
         id="g2143">
        <path
           style="color:#000000;fill:#000000;fill-rule:evenodd;-inkscape-stroke:none"
           d="m 77.757812,74.914062 0.0039,2.69336 2.328125,-1.34961 -0.300782,-0.171875 z m 0.400391,0.691407 1.132813,0.654297 -1.128907,0.654296 z"
           id="path2145" />
      </g>
    </g>
    <g
       id="path2886-2">
      <path
         style="color:#000000;fill:#000000;-inkscape-stroke:none"
         d="m 117.03516,76.060547 -9.42969,0.0098 v 0.400391 l 9.43164,-0.0098 z"
         id="path2163" />
      <g
         id="g2155">
        <path
           style="color:#000000;fill:#000000;fill-rule:evenodd;-inkscape-stroke:none"
           d="m 116.6582,74.914062 0.004,2.69336 2.32812,-1.34961 -0.30078,-0.171875 z m 0.40039,0.691407 1.13282,0.654297 -1.13086,0.654296 z"
           id="path2157" />
      </g>
    </g>
    <g
       id="g7043"
       transform="translate(9.1822979,1.2675847)">
      <g
         id="g1080"
         transform="translate(-3.8471654,40.324643)">
        <g
           id="rect394">
          <path
             style="color:#000000;fill:#97afe6;stroke-width:0.4;-inkscape-stroke:none"
             d="m 17.042404,15.655855 h 42.77227 v 8.659073 h -42.77227 z"
             id="path2167" />
          <path
             style="color:#000000;fill:#000000;-inkscape-stroke:none"
             d="m 16.841797,15.455078 v 0.201172 8.859375 h 43.173828 v -9.060547 z m 0.40039,0.400391 h 42.373047 v 8.259765 H 17.242187 Z"
             id="path2169" />
        </g>
        <g
           aria-label=".load_object(file)"
           id="text1023"
           style="font-size:3.52778px;font-family:Hack;-inkscape-font-specification:Hack;text-align:center;text-anchor:middle;stroke-width:0.4">
          <path
             d="m 20.343431,21.043398 q -0.117133,0 -0.198093,-0.08096 -0.08096,-0.08096 -0.08096,-0.210151 0,-0.129191 0.08096,-0.210151 0.08096,-0.08096 0.198093,-0.08096 0.117134,0 0.198094,0.08096 0.08096,0.08096 0.08096,0.210151 0,0.129191 -0.08096,0.210151 -0.08096,0.08096 -0.198094,0.08096 z"
             id="path2171" />
          <path
             d="m 22.825624,21.01067 q -0.28422,0 -0.440972,-0.182591 -0.155029,-0.184312 -0.155029,-0.516764 V 18.56465 h -0.508152 v -0.248047 h 0.825101 v 1.994712 q 0,0.210151 0.07924,0.320394 0.07924,0.110243 0.230821,0.110243 h 0.370348 v 0.268718 z"
             id="path2173" />
          <path
             d="m 24.59985,21.046843 q -0.403077,0 -0.616673,-0.260105 -0.211873,-0.261827 -0.211873,-0.751031 0,-0.490927 0.213596,-0.752754 0.213596,-0.261827 0.613227,-0.261827 0.399632,0 0.611505,0.261827 0.213596,0.260105 0.213596,0.754476 0,0.490927 -0.211873,0.751032 -0.211874,0.258382 -0.611505,0.258382 z m -0.0017,-0.268718 q 0.235989,0 0.361736,-0.192925 0.127468,-0.192926 0.127468,-0.552938 0,-0.35829 -0.127468,-0.549493 -0.125747,-0.192926 -0.361736,-0.192926 -0.237711,0 -0.36518,0.192926 -0.125746,0.191203 -0.125746,0.549493 0,0.360012 0.127468,0.552938 0.127469,0.192925 0.363458,0.192925 z"
             id="path2175" />
          <path
             d="m 26.535995,21.046843 q -0.279053,0 -0.461643,-0.160197 -0.180868,-0.16192 -0.180868,-0.463366 0,-0.249769 0.120578,-0.389296 0.120579,-0.141249 0.315227,-0.198093 0.194648,-0.05684 0.415134,-0.05684 h 0.42547 v -0.04995 q 0,-0.246324 -0.125746,-0.342787 -0.124024,-0.09646 -0.349678,-0.09646 -0.1757,0 -0.344509,0.04823 -0.16881,0.04823 -0.315227,0.134358 v -0.316949 q 0.158475,-0.05857 0.320394,-0.09646 0.16192,-0.0379 0.33073,-0.0379 0.172254,0 0.334174,0.04823 0.163642,0.04651 0.282498,0.155029 0.118856,0.106798 0.158475,0.287666 0.02756,0.127469 0.02756,0.384128 v 0.394464 q 0,0.16192 0.01723,0.35829 0.01895,0.196371 0.08441,0.347955 h -0.318672 q -0.02928,-0.06718 -0.04651,-0.142971 -0.01723,-0.07752 -0.02756,-0.149862 -0.101631,0.173977 -0.282498,0.258382 -0.179146,0.08441 -0.378961,0.08441 z m 0.07751,-0.265272 q 0.196371,0 0.318672,-0.09646 0.124024,-0.09646 0.180868,-0.251492 0.05684,-0.156752 0.05684,-0.335897 v -0.07062 h -0.401354 q -0.134359,0 -0.26355,0.03101 -0.127469,0.02928 -0.211874,0.113688 -0.08268,0.08441 -0.08268,0.246325 0,0.18259 0.111966,0.273885 0.111965,0.08957 0.29111,0.08957 z"
             id="path2177" />
          <path
             d="m 28.737412,21.046843 q -0.210151,0 -0.353122,-0.08957 -0.142972,-0.08957 -0.229099,-0.239434 -0.08441,-0.149862 -0.122301,-0.330729 -0.0379,-0.18259 -0.0379,-0.366903 0,-0.461643 0.201538,-0.730361 0.203261,-0.268717 0.54777,-0.268717 0.16881,0 0.303169,0.07235 0.134359,0.07062 0.213596,0.220486 v -0.997356 h 0.316949 v 2.680286 h -0.285943 l -0.03101,-0.242879 q -0.170532,0.292833 -0.523655,0.292833 z m 0.05684,-0.268718 q 0.149862,0 0.241157,-0.07062 0.09302,-0.07062 0.141249,-0.18259 0.04995,-0.113688 0.06718,-0.24288 0.01722,-0.130913 0.01722,-0.249769 0,-0.117134 -0.01722,-0.246325 -0.01723,-0.129191 -0.06718,-0.241157 -0.04823,-0.113688 -0.141249,-0.184312 -0.09129,-0.07062 -0.241157,-0.07062 -0.151584,0 -0.244602,0.07062 -0.09129,0.07062 -0.139526,0.184312 -0.04651,0.111966 -0.06373,0.241157 -0.01723,0.129191 -0.01723,0.246325 0,0.117133 0.01723,0.248047 0.01722,0.129191 0.06373,0.242879 0.04823,0.111966 0.139526,0.184313 0.09302,0.07062 0.244602,0.07062 z"
             id="path2179" />
          <path
             d="m 30.068943,21.324173 h 1.798341 v 0.206706 h -1.798341 z"
             id="path2181" />
          <path
             d="m 33.095461,21.046843 q -0.403076,0 -0.616672,-0.260105 -0.211874,-0.261827 -0.211874,-0.751031 0,-0.490927 0.213596,-0.752754 0.213596,-0.261827 0.613227,-0.261827 0.399632,0 0.611505,0.261827 0.213596,0.260105 0.213596,0.754476 0,0.490927 -0.211873,0.751032 -0.211874,0.258382 -0.611505,0.258382 z m -0.0017,-0.268718 q 0.23599,0 0.361736,-0.192925 0.127468,-0.192926 0.127468,-0.552938 0,-0.35829 -0.127468,-0.549493 -0.125746,-0.192926 -0.361736,-0.192926 -0.237711,0 -0.36518,0.192926 -0.125746,0.191203 -0.125746,0.549493 0,0.360012 0.127469,0.552938 0.127468,0.192925 0.363457,0.192925 z"
             id="path2183" />
          <path
             d="m 35.334774,21.046843 q -0.36518,0 -0.530545,-0.292833 l -0.03101,0.242879 H 34.48728 v -2.680286 h 0.316949 v 0.997356 q 0.07924,-0.149862 0.218764,-0.220486 0.139526,-0.07235 0.313504,-0.07235 0.206706,0 0.347955,0.08957 0.141249,0.08785 0.225653,0.235989 0.08613,0.146417 0.122301,0.325562 0.0379,0.179145 0.0379,0.35829 0,0.180868 -0.0379,0.361735 -0.0379,0.179146 -0.124023,0.327285 -0.08441,0.148139 -0.225654,0.237711 -0.141249,0.08957 -0.347955,0.08957 z m -0.06373,-0.268718 q 0.151584,0 0.242879,-0.07062 0.09302,-0.07062 0.139527,-0.184313 0.04823,-0.113688 0.06546,-0.242879 0.01723,-0.129191 0.01723,-0.246325 0,-0.117133 -0.01723,-0.246324 -0.01723,-0.130914 -0.06546,-0.24288 -0.04651,-0.113688 -0.139527,-0.184312 -0.0913,-0.07062 -0.242879,-0.07062 -0.149862,0 -0.24288,0.07062 -0.0913,0.07062 -0.141249,0.18259 -0.04823,0.111966 -0.06546,0.242879 -0.01723,0.129191 -0.01723,0.246325 0,0.118856 0.01723,0.249769 0.01722,0.129192 0.06546,0.24288 0.04995,0.111965 0.141249,0.18259 0.09302,0.07062 0.24288,0.07062 z"
             id="path2185" />
          <path
             d="m 37.401833,18.717957 q -0.05168,0 -0.05168,-0.05168 V 18.36828 q 0,-0.05168 0.05168,-0.05168 h 0.248047 q 0.05168,0 0.05168,0.05168 v 0.298001 q 0,0.05168 -0.05168,0.05168 z m -0.713135,2.74402 h 0.403076 q 0.310059,0 0.310059,-0.430637 v -1.717381 h -0.546048 v -0.246325 h 0.862997 v 1.963706 q 0,0.334175 -0.155029,0.516765 -0.15503,0.18259 -0.437528,0.18259 h -0.437527 z"
             id="path2187" />
          <path
             d="m 39.570523,21.046843 q -0.44614,0 -0.701078,-0.266995 -0.253214,-0.268718 -0.253214,-0.732083 0,-0.287666 0.09991,-0.52021 0.10163,-0.232544 0.299723,-0.368626 0.199816,-0.137803 0.492649,-0.137803 0.385851,0 0.597724,0.248047 0.213597,0.246324 0.213597,0.683852 v 0.155029 H 38.94696 v 0.01034 q 0,0.301446 0.158475,0.480591 0.158474,0.179145 0.468533,0.179145 0.179145,0 0.346232,-0.05684 0.16881,-0.05684 0.325562,-0.137804 v 0.315227 q -0.163642,0.06718 -0.332452,0.106798 -0.167087,0.04134 -0.342787,0.04134 z m 0.43236,-1.186836 q 0,-0.160197 -0.04823,-0.289388 -0.04823,-0.129192 -0.155029,-0.204984 -0.105076,-0.07579 -0.279053,-0.07579 -0.1757,0 -0.294556,0.07751 -0.117133,0.07579 -0.184313,0.204983 -0.06546,0.129191 -0.08268,0.287666 z"
             id="path2189" />
          <path
             d="m 41.740935,21.046843 q -0.304891,0 -0.51332,-0.127469 -0.206706,-0.129191 -0.313504,-0.35829 -0.105075,-0.229099 -0.105075,-0.5271 0,-0.299723 0.106798,-0.5271 0.106798,-0.229099 0.315226,-0.356567 0.208429,-0.129191 0.516765,-0.129191 0.160197,0 0.289388,0.0379 0.129191,0.03617 0.26355,0.110243 v 0.332452 q -0.122301,-0.108521 -0.246324,-0.160197 -0.122301,-0.05168 -0.279053,-0.05168 -0.232544,0 -0.372071,0.09991 -0.137804,0.09991 -0.199815,0.268718 -0.06029,0.168809 -0.06029,0.375515 0,0.204984 0.06201,0.375516 0.06201,0.16881 0.199816,0.268718 0.137804,0.09991 0.368625,0.09991 0.151585,0 0.282498,-0.04995 0.130914,-0.04995 0.244602,-0.158474 v 0.329007 q -0.246324,0.148139 -0.559828,0.148139 z"
             id="path2191" />
          <path
             d="m 44.040536,21.003779 q -0.354845,0 -0.502984,-0.142971 -0.146417,-0.144694 -0.146417,-0.492649 v -1.0542 h -0.515042 v -0.246325 h 0.515042 v -0.504706 l 0.316949,-0.137804 v 0.64251 h 0.720026 v 0.246325 h -0.720026 v 1.0542 q 0,0.211873 0.08096,0.298001 0.08096,0.08441 0.282498,0.08441 h 0.356568 v 0.253214 z"
             id="path2193" />
          <path
             d="m 45.799259,21.461977 q -0.26355,-0.418579 -0.387573,-0.799262 -0.127469,-0.392742 -0.127469,-0.773425 0,-0.377238 0.127469,-0.773424 0.06546,-0.198093 0.160197,-0.392741 0.09474,-0.196371 0.227376,-0.403077 h 0.275608 q -0.122301,0.208429 -0.204983,0.399632 -0.08096,0.18948 -0.136082,0.382405 -0.113688,0.396187 -0.113688,0.787205 0,0.782037 0.454753,1.572687 z"
             id="path2195" />
          <path
             d="m 47.700954,19.313959 h -0.515042 v -0.246325 h 0.515042 v -0.134358 q 0,-0.316949 0.144694,-0.466811 0.146416,-0.149862 0.454753,-0.149862 h 0.380683 v 0.26355 h -0.360013 q -0.16881,0 -0.235989,0.07062 -0.06718,0.0689 -0.06718,0.246324 v 0.170532 h 0.663181 v 0.246325 h -0.663181 v 1.68293 h -0.316949 z"
             id="path2197" />
          <path
             d="m 49.92304,18.717957 q -0.05168,0 -0.05168,-0.05168 V 18.36828 q 0,-0.05168 0.05168,-0.05168 h 0.248047 q 0.05168,0 0.05168,0.05168 v 0.298001 q 0,0.05168 -0.05168,0.05168 z m 0.578777,2.292713 q -0.284221,0 -0.440973,-0.182591 -0.155029,-0.184312 -0.155029,-0.516764 V 19.315681 H 49.48379 v -0.248047 h 0.738974 v 1.243681 q 0,0.210151 0.07924,0.320394 0.07924,0.110243 0.230822,0.110243 h 0.370348 v 0.268718 z"
             id="path2199" />
          <path
             d="m 52.560263,21.01067 q -0.28422,0 -0.440972,-0.182591 -0.15503,-0.184312 -0.15503,-0.516764 V 18.56465 h -0.508152 v -0.248047 h 0.825101 v 1.994712 q 0,0.210151 0.07924,0.320394 0.07924,0.110243 0.230822,0.110243 h 0.370348 v 0.268718 z"
             id="path2201" />
          <path
             d="m 54.437842,21.046843 q -0.44614,0 -0.701077,-0.266995 -0.253215,-0.268718 -0.253215,-0.732083 0,-0.287666 0.09991,-0.52021 0.10163,-0.232544 0.299723,-0.368626 0.199816,-0.137803 0.492649,-0.137803 0.385851,0 0.597725,0.248047 0.213596,0.246324 0.213596,0.683852 v 0.155029 h -1.372872 v 0.01034 q 0,0.301446 0.158475,0.480591 0.158474,0.179145 0.468533,0.179145 0.179145,0 0.346232,-0.05684 0.16881,-0.05684 0.325562,-0.137804 v 0.315227 q -0.163642,0.06718 -0.332452,0.106798 -0.167087,0.04134 -0.342787,0.04134 z m 0.43236,-1.186836 q 0,-0.160197 -0.04823,-0.289388 -0.04823,-0.129192 -0.155029,-0.204984 -0.105076,-0.07579 -0.279053,-0.07579 -0.1757,0 -0.294556,0.07751 -0.117133,0.07579 -0.184313,0.204983 -0.06546,0.129191 -0.08268,0.287666 z"
             id="path2203" />
          <path
             d="m 56.217234,21.461977 q 0.225653,-0.394463 0.342787,-0.79065 0.0534,-0.184312 0.08268,-0.382405 0.02928,-0.198094 0.02928,-0.399632 0,-0.396186 -0.111965,-0.78376 -0.0534,-0.184312 -0.139527,-0.382405 -0.0844,-0.198093 -0.20326,-0.403077 h 0.275607 q 0.26355,0.408244 0.387574,0.795818 0.127468,0.396186 0.127468,0.773424 0,0.380683 -0.127468,0.77687 -0.125746,0.389296 -0.387574,0.795817 z"
             id="path2205" />
        </g>
      </g>
    </g>
    <g
       id="g7048"
       transform="translate(-14.832944,2.0222452)">
      <g
         id="rect394-2">
        <path
           style="color:#000000;fill:#a1e697;stroke-width:0.4;-inkscape-stroke:none"
           d="m 89.988861,55.225838 h 52.254409 v 8.659073 H 89.988861 Z"
           id="path2246" />
        <path
           style="color:#000000;fill:#000000;-inkscape-stroke:none"
           d="m 89.789062,55.025391 v 0.201171 8.857422 h 52.654298 v -9.058593 z m 0.400391,0.40039 h 51.853517 v 8.259766 H 90.189453 Z"
           id="path2248" />
      </g>
      <g
         aria-label=".load_object_imp(file)"
         id="text1023-3"
         style="font-size:3.52778px;font-family:Hack;-inkscape-font-specification:Hack;text-align:center;text-anchor:middle;stroke-width:0.4">
        <path
           d="m 94.345649,60.61338 q -0.117133,0 -0.198093,-0.08096 -0.08096,-0.08096 -0.08096,-0.210151 0,-0.129191 0.08096,-0.210151 0.08096,-0.08096 0.198093,-0.08096 0.117133,0 0.198093,0.08096 0.08096,0.08096 0.08096,0.210151 0,0.129191 -0.08096,0.210151 -0.08096,0.08096 -0.198093,0.08096 z"
           id="path2250" />
        <path
           d="m 96.827842,60.580652 q -0.284221,0 -0.440973,-0.18259 -0.155029,-0.184313 -0.155029,-0.516765 v -1.746664 h -0.508152 v -0.248047 h 0.825101 v 1.994711 q 0,0.210151 0.07924,0.320394 0.07924,0.110243 0.230822,0.110243 h 0.370348 v 0.268718 z"
           id="path2252" />
        <path
           d="m 98.602067,60.616826 q -0.403076,0 -0.616672,-0.260105 -0.211874,-0.261828 -0.211874,-0.751032 0,-0.490926 0.213596,-0.752753 0.213596,-0.261828 0.613228,-0.261828 0.399631,0 0.611505,0.261828 0.213596,0.260104 0.213596,0.754476 0,0.490926 -0.211874,0.751031 -0.211873,0.258383 -0.611505,0.258383 z m -0.0017,-0.268718 q 0.235989,0 0.361735,-0.192926 0.127469,-0.192925 0.127469,-0.552938 0,-0.35829 -0.127469,-0.549493 -0.125746,-0.192925 -0.361735,-0.192925 -0.237712,0 -0.365181,0.192925 -0.125746,0.191203 -0.125746,0.549493 0,0.360013 0.127469,0.552938 0.127468,0.192926 0.363458,0.192926 z"
           id="path2254" />
        <path
           d="m 100.53821,60.616826 q -0.27905,0 -0.46164,-0.160197 -0.180869,-0.16192 -0.180869,-0.463366 0,-0.24977 0.120579,-0.389296 0.12058,-0.141249 0.31523,-0.198093 0.19464,-0.05684 0.41513,-0.05684 h 0.42547 v -0.04995 q 0,-0.246325 -0.12575,-0.342788 -0.12402,-0.09646 -0.34967,-0.09646 -0.1757,0 -0.34451,0.04823 -0.16881,0.04823 -0.31523,0.134359 v -0.316949 q 0.15847,-0.05857 0.32039,-0.09646 0.16192,-0.0379 0.33073,-0.0379 0.17226,0 0.33418,0.04823 0.16364,0.04651 0.2825,0.15503 0.11885,0.106798 0.15847,0.287666 0.0276,0.127468 0.0276,0.384128 v 0.394464 q 0,0.161919 0.0172,0.35829 0.019,0.19637 0.0844,0.347955 h -0.31867 q -0.0293,-0.06718 -0.0465,-0.142972 -0.0172,-0.07752 -0.0276,-0.149862 -0.10163,0.173978 -0.2825,0.258383 -0.17914,0.08441 -0.37896,0.08441 z m 0.0775,-0.265273 q 0.19637,0 0.31867,-0.09646 0.12402,-0.09646 0.18087,-0.251492 0.0568,-0.156752 0.0568,-0.335897 v -0.07062 h -0.40135 q -0.13436,0 -0.26355,0.03101 -0.12747,0.02928 -0.21188,0.113688 -0.0827,0.0844 -0.0827,0.246324 0,0.18259 0.11197,0.273885 0.11196,0.08957 0.29111,0.08957 z"
           id="path2256" />
        <path
           d="m 102.73963,60.616826 q -0.21015,0 -0.35312,-0.08957 -0.14297,-0.08957 -0.2291,-0.239434 -0.0844,-0.149862 -0.1223,-0.33073 -0.0379,-0.18259 -0.0379,-0.366903 0,-0.461643 0.20154,-0.73036 0.20326,-0.268718 0.54777,-0.268718 0.16881,0 0.30317,0.07235 0.13436,0.07062 0.21359,0.220486 v -0.997355 h 0.31695 v 2.680286 h -0.28594 l -0.031,-0.24288 q -0.17053,0.292834 -0.52365,0.292834 z m 0.0568,-0.268718 q 0.14987,0 0.24116,-0.07063 0.093,-0.07062 0.14125,-0.18259 0.0499,-0.113688 0.0672,-0.242879 0.0172,-0.130914 0.0172,-0.24977 0,-0.117133 -0.0172,-0.246324 -0.0172,-0.129191 -0.0672,-0.241157 -0.0482,-0.113688 -0.14125,-0.184313 -0.0913,-0.07062 -0.24116,-0.07062 -0.15158,0 -0.2446,0.07062 -0.0913,0.07062 -0.13952,0.184313 -0.0465,0.111966 -0.0637,0.241157 -0.0172,0.129191 -0.0172,0.246324 0,0.117134 0.0172,0.248047 0.0172,0.129191 0.0637,0.24288 0.0482,0.111965 0.13952,0.184312 0.093,0.07063 0.2446,0.07063 z"
           id="path2258" />
        <path
           d="m 104.07116,60.894156 h 1.79834 v 0.206706 h -1.79834 z"
           id="path2260" />
        <path
           d="m 107.09768,60.616826 q -0.40308,0 -0.61667,-0.260105 -0.21188,-0.261828 -0.21188,-0.751032 0,-0.490926 0.2136,-0.752753 0.21359,-0.261828 0.61323,-0.261828 0.39963,0 0.6115,0.261828 0.2136,0.260104 0.2136,0.754476 0,0.490926 -0.21188,0.751031 -0.21187,0.258383 -0.6115,0.258383 z m -0.002,-0.268718 q 0.23599,0 0.36173,-0.192926 0.12747,-0.192925 0.12747,-0.552938 0,-0.35829 -0.12747,-0.549493 -0.12574,-0.192925 -0.36173,-0.192925 -0.23772,0 -0.36518,0.192925 -0.12575,0.191203 -0.12575,0.549493 0,0.360013 0.12747,0.552938 0.12747,0.192926 0.36346,0.192926 z"
           id="path2262" />
        <path
           d="m 109.33699,60.616826 q -0.36518,0 -0.53054,-0.292834 l -0.031,0.24288 h -0.28594 v -2.680286 h 0.31695 v 0.997355 q 0.0792,-0.149861 0.21876,-0.220486 0.13953,-0.07235 0.3135,-0.07235 0.20671,0 0.34796,0.08957 0.14125,0.08785 0.22565,0.235989 0.0861,0.146416 0.1223,0.325562 0.0379,0.179145 0.0379,0.35829 0,0.180867 -0.0379,0.361735 -0.0379,0.179145 -0.12402,0.327284 -0.0844,0.148139 -0.22565,0.237712 -0.14125,0.08957 -0.34796,0.08957 z m -0.0637,-0.268718 q 0.15158,0 0.24288,-0.07063 0.093,-0.07062 0.13952,-0.184312 0.0482,-0.113689 0.0655,-0.24288 0.0172,-0.129191 0.0172,-0.246324 0,-0.117133 -0.0172,-0.246325 -0.0172,-0.130913 -0.0655,-0.242879 -0.0465,-0.113688 -0.13952,-0.184313 -0.0913,-0.07062 -0.24288,-0.07062 -0.14986,0 -0.24288,0.07062 -0.0913,0.07062 -0.14125,0.18259 -0.0482,0.111966 -0.0655,0.24288 -0.0172,0.129191 -0.0172,0.246324 0,0.118856 0.0172,0.24977 0.0172,0.129191 0.0655,0.242879 0.05,0.111966 0.14125,0.18259 0.093,0.07063 0.24288,0.07063 z"
           id="path2264" />
        <path
           d="m 111.40405,58.28794 q -0.0517,0 -0.0517,-0.05168 v -0.298001 q 0,-0.05168 0.0517,-0.05168 h 0.24805 q 0.0517,0 0.0517,0.05168 v 0.298001 q 0,0.05168 -0.0517,0.05168 z m -0.71313,2.74402 h 0.40307 q 0.31006,0 0.31006,-0.430637 V 58.883941 H 110.858 v -0.246324 h 0.863 v 1.963706 q 0,0.334174 -0.15503,0.516764 -0.15503,0.18259 -0.43753,0.18259 h -0.43752 z"
           id="path2266" />
        <path
           d="m 113.57274,60.616826 q -0.44614,0 -0.70108,-0.266996 -0.25321,-0.268717 -0.25321,-0.732083 0,-0.287665 0.0999,-0.52021 0.10163,-0.232544 0.29972,-0.368625 0.19982,-0.137804 0.49265,-0.137804 0.38585,0 0.59772,0.248047 0.2136,0.246325 0.2136,0.683852 v 0.155029 h -1.37287 v 0.01034 q 0,0.301446 0.15847,0.480591 0.15848,0.179145 0.46854,0.179145 0.17914,0 0.34623,-0.05684 0.16881,-0.05684 0.32556,-0.137804 v 0.315226 q -0.16364,0.06718 -0.33245,0.106798 -0.16709,0.04134 -0.34279,0.04134 z m 0.43236,-1.186837 q 0,-0.160197 -0.0482,-0.289388 -0.0482,-0.129191 -0.15503,-0.204983 -0.10508,-0.07579 -0.27905,-0.07579 -0.1757,0 -0.29456,0.07751 -0.11713,0.07579 -0.18431,0.204984 -0.0655,0.129191 -0.0827,0.287665 z"
           id="path2268" />
        <path
           d="m 115.74315,60.616826 q -0.30489,0 -0.51332,-0.127469 -0.2067,-0.129191 -0.3135,-0.35829 -0.10508,-0.229099 -0.10508,-0.5271 0,-0.299724 0.1068,-0.5271 0.1068,-0.229099 0.31523,-0.356568 0.20843,-0.129191 0.51676,-0.129191 0.1602,0 0.28939,0.0379 0.12919,0.03617 0.26355,0.110243 v 0.332452 q -0.1223,-0.10852 -0.24632,-0.160197 -0.1223,-0.05168 -0.27906,-0.05168 -0.23254,0 -0.37207,0.09991 -0.1378,0.09991 -0.19981,0.268717 -0.0603,0.16881 -0.0603,0.375516 0,0.204983 0.062,0.375515 0.062,0.16881 0.19982,0.268718 0.1378,0.09991 0.36862,0.09991 0.15159,0 0.2825,-0.04995 0.13091,-0.04995 0.2446,-0.158474 v 0.329006 q -0.24632,0.14814 -0.55983,0.14814 z"
           id="path2270" />
        <path
           d="m 118.04275,60.573762 q -0.35484,0 -0.50298,-0.142972 -0.14642,-0.144694 -0.14642,-0.492649 v -1.0542 h -0.51504 v -0.246324 h 0.51504 V 58.13291 l 0.31695,-0.137804 v 0.642511 h 0.72003 v 0.246324 h -0.72003 v 1.0542 q 0,0.211874 0.081,0.298001 0.081,0.0844 0.2825,0.0844 h 0.35657 v 0.253215 z"
           id="path2272" />
        <path
           d="m 118.93848,60.894156 h 1.79834 v 0.206706 h -1.79834 z"
           id="path2274" />
        <path
           d="m 121.80136,58.28794 q -0.0517,0 -0.0517,-0.05168 v -0.298001 q 0,-0.05168 0.0517,-0.05168 h 0.24804 q 0.0517,0 0.0517,0.05168 v 0.298001 q 0,0.05168 -0.0517,0.05168 z m 0.57877,2.292712 q -0.28422,0 -0.44097,-0.18259 -0.15503,-0.184313 -0.15503,-0.516765 v -0.995633 h -0.42202 v -0.248047 h 0.73897 v 1.24368 q 0,0.210151 0.0792,0.320394 0.0792,0.110243 0.23082,0.110243 h 0.37035 v 0.268718 z"
           id="path2276" />
        <path
           d="m 123.21212,58.637617 h 0.26011 l 0.0276,0.165365 q 0.11713,-0.211874 0.34623,-0.211874 0.24632,0 0.34279,0.242879 0.11713,-0.242879 0.36862,-0.242879 0.23427,0 0.32729,0.1757 0.0947,0.180868 0.0947,0.682129 v 1.117935 h -0.28939 v -1.104154 q 0,-0.217041 -0.0121,-0.335897 -0.0103,-0.118856 -0.0345,-0.1757 -0.0431,-0.09474 -0.17053,-0.09474 -0.13092,0 -0.18087,0.103353 -0.0293,0.06029 -0.0413,0.1757 -0.0121,0.11541 -0.0121,0.327284 v 1.104154 h -0.28939 v -1.104154 q 0,-0.208429 -0.0121,-0.33073 -0.0121,-0.122301 -0.0379,-0.179145 -0.0465,-0.09646 -0.17398,-0.09646 -0.12747,0 -0.17398,0.10163 -0.0276,0.05857 -0.0396,0.179145 -0.0121,0.118856 -0.0121,0.325562 v 1.104154 h -0.28767 z"
           id="path2278" />
        <path
           d="m 125.47555,58.637617 h 0.28767 l 0.031,0.246324 q 0.16537,-0.292833 0.51849,-0.292833 0.34623,0 0.54433,0.27044 0.19981,0.27044 0.19981,0.738974 0,0.471978 -0.20154,0.744141 -0.19981,0.272163 -0.5426,0.272163 -0.36173,0 -0.51849,-0.292834 v 0.976685 h -0.31867 z m 0.79582,1.710491 q 0.45303,0 0.45303,-0.744141 0,-0.744141 -0.45303,-0.744141 -0.23254,0 -0.35485,0.192925 -0.1223,0.192926 -0.1223,0.549493 0,0.35829 0.1223,0.552938 0.12403,0.192926 0.35485,0.192926 z"
           id="path2280" />
        <path
           d="m 128.29709,61.03196 q -0.26355,-0.41858 -0.38758,-0.799263 -0.12746,-0.392741 -0.12746,-0.773424 0,-0.377238 0.12746,-0.773425 0.0655,-0.198093 0.1602,-0.392741 0.0947,-0.19637 0.22738,-0.403076 h 0.27561 q -0.12231,0.208428 -0.20499,0.399631 -0.081,0.18948 -0.13608,0.382406 -0.11369,0.396186 -0.11369,0.787205 0,0.782037 0.45476,1.572687 z"
           id="path2282" />
        <path
           d="m 130.19878,58.883941 h -0.51504 v -0.246324 h 0.51504 v -0.134359 q 0,-0.316949 0.14469,-0.466811 0.14642,-0.149861 0.45476,-0.149861 h 0.38068 v 0.26355 h -0.36001 q -0.16881,0 -0.23599,0.07062 -0.0672,0.0689 -0.0672,0.246325 v 0.170532 h 0.66318 v 0.246324 h -0.66318 v 1.682931 h -0.31695 z"
           id="path2284" />
        <path
           d="m 132.42087,58.28794 q -0.0517,0 -0.0517,-0.05168 v -0.298001 q 0,-0.05168 0.0517,-0.05168 h 0.24805 q 0.0517,0 0.0517,0.05168 v 0.298001 q 0,0.05168 -0.0517,0.05168 z m 0.57878,2.292712 q -0.28422,0 -0.44098,-0.18259 -0.15502,-0.184313 -0.15502,-0.516765 v -0.995633 h -0.42203 v -0.248047 h 0.73897 v 1.24368 q 0,0.210151 0.0792,0.320394 0.0792,0.110243 0.23082,0.110243 h 0.37035 v 0.268718 z"
           id="path2286" />
        <path
           d="m 135.05809,60.580652 q -0.28422,0 -0.44097,-0.18259 -0.15503,-0.184313 -0.15503,-0.516765 v -1.746664 h -0.50815 v -0.248047 h 0.8251 v 1.994711 q 0,0.210151 0.0792,0.320394 0.0792,0.110243 0.23082,0.110243 h 0.37035 v 0.268718 z"
           id="path2288" />
        <path
           d="m 136.93567,60.616826 q -0.44614,0 -0.70107,-0.266996 -0.25322,-0.268717 -0.25322,-0.732083 0,-0.287665 0.0999,-0.52021 0.10163,-0.232544 0.29972,-0.368625 0.19982,-0.137804 0.49265,-0.137804 0.38585,0 0.59773,0.248047 0.21359,0.246325 0.21359,0.683852 v 0.155029 h -1.37287 v 0.01034 q 0,0.301446 0.15847,0.480591 0.15848,0.179145 0.46854,0.179145 0.17914,0 0.34623,-0.05684 0.16881,-0.05684 0.32556,-0.137804 v 0.315226 q -0.16364,0.06718 -0.33245,0.106798 -0.16709,0.04134 -0.34279,0.04134 z m 0.43236,-1.186837 q 0,-0.160197 -0.0482,-0.289388 -0.0482,-0.129191 -0.15503,-0.204983 -0.10507,-0.07579 -0.27905,-0.07579 -0.1757,0 -0.29456,0.07751 -0.11713,0.07579 -0.18431,0.204984 -0.0655,0.129191 -0.0827,0.287665 z"
           id="path2290" />
        <path
           d="m 138.71506,61.03196 q 0.22566,-0.394464 0.34279,-0.79065 0.0534,-0.184313 0.0827,-0.382406 0.0293,-0.198093 0.0293,-0.399631 0,-0.396187 -0.11197,-0.78376 -0.0534,-0.184313 -0.13953,-0.382406 -0.0844,-0.198093 -0.20326,-0.403076 h 0.27561 q 0.26355,0.408244 0.38758,0.795817 0.12746,0.396187 0.12746,0.773425 0,0.380683 -0.12746,0.776869 -0.12575,0.389296 -0.38758,0.795818 z"
           id="path2292" />
      </g>
    </g>
    <path
       style="color:#000000;fill:#000000;-inkscape-stroke:none"
       d="m 127.78711,79.857422 v 79.876948 h 0.40039 V 79.857422 Z"
       id="path3778-9-5" />
    <g
       id="rect394-7-9-4"
       transform="rotate(90)">
      <path
         style="color:#000000;fill:#97afe6;stroke-width:0.4;-inkscape-stroke:none"
         d="m 108.67534,-130.914 h 3.18949 v 5.85229 h -3.18949 z"
         id="path2345" />
      <path
         style="color:#000000;fill:#000000;-inkscape-stroke:none"
         d="m 108.47461,-131.11328 v 0.19922 6.05273 h 3.58984 v -6.25195 z m 0.40039,0.39844 h 2.78906 v 5.45312 H 108.875 Z"
         id="path2347" />
    </g>
    <g
       id="path3900">
      <path
         style="color:#000000;fill:#000000;-inkscape-stroke:none"
         d="m 9.859375,92.021484 v 0.398438 h 45.681641 v -0.398438 z"
         id="path2361" />
      <g
         id="g2351">
        <g
           id="path2353">
          <path
             style="color:#000000;fill:#000000;fill-rule:evenodd;stroke-width:0.2pt;-inkscape-stroke:none"
             d="m 56.694242,92.220612 -1.73,1 v -2 z"
             id="path2357" />
          <path
             style="color:#000000;fill:#000000;fill-rule:evenodd;-inkscape-stroke:none"
             d="m 54.830078,90.990234 v 2.460938 l 2.130859,-1.230469 -0.199218,-0.115234 z m 0.267578,0.460938 1.330078,0.769531 -1.330078,0.769531 z"
             id="path2359" />
        </g>
      </g>
    </g>
    <g
       id="path3900-4">
      <path
         style="color:#000000;fill:#000000;-inkscape-stroke:none"
         d="m 11.271484,149.98242 v 0.39844 h 45.681641 v -0.39844 z"
         id="path2375" />
      <g
         id="g2365">
        <g
           id="path2367">
          <path
             style="color:#000000;fill:#000000;fill-rule:evenodd;stroke-width:0.2pt;-inkscape-stroke:none"
             d="m 10.118233,150.18179 1.73,-1 v 2 z"
             id="path2371" />
          <path
             style="color:#000000;fill:#000000;fill-rule:evenodd;-inkscape-stroke:none"
             d="m 11.982422,148.95117 -2.1308595,1.23047 0.1992185,0.11523 1.931641,1.11524 z m -0.267578,0.46094 v 1.53906 l -1.330078,-0.76953 z"
             id="path2373" />
        </g>
      </g>
    </g>
    <g
       id="path3900-0">
      <path
         style="color:#000000;fill:#000000;-inkscape-stroke:none"
         d="m 57.353516,98.796875 v 0.400391 h 34.9375 v -0.400391 z"
         id="path2389" />
      <g
         id="g2379">
        <g
           id="path2381">
          <path
             style="color:#000000;fill:#000000;fill-rule:evenodd;stroke-width:0.2pt;-inkscape-stroke:none"
             d="m 93.444484,98.996728 -1.73,1 v -2 z"
             id="path2385" />
          <path
             style="color:#000000;fill:#000000;fill-rule:evenodd;-inkscape-stroke:none"
             d="m 91.582031,97.765625 v 2.462895 l 2.128906,-1.232426 -0.199218,-0.115235 z m 0.265625,0.460937 1.330078,0.769532 -1.330078,0.769531 z"
             id="path2387" />
        </g>
      </g>
    </g>
    <path
       style="color:#000000;fill:#000000;-inkscape-stroke:none"
       d="m 56.955078,79.453125 v 80.281245 h 0.400391 V 79.453125 Z"
       id="path3778" />
    <g
       id="rect394-7"
       transform="rotate(90)">
      <path
         style="color:#000000;fill:#97afe6;stroke-width:0.4;-inkscape-stroke:none"
         d="M 94.006821,-60.080654 H 148.7093 v 5.852287 H 94.006821 Z"
         id="path2397" />
      <path
         style="color:#000000;fill:#000000;-inkscape-stroke:none"
         d="m 93.806641,-60.28125 v 0.201172 6.050781 h 55.103519 v -6.251953 z m 0.40039,0.400391 h 54.302739 v 5.453125 H 94.207031 Z"
         id="path2399" />
    </g>
    <g
       id="rect394-2-0"
       transform="rotate(90)">
      <path
         style="color:#000000;fill:#a1e697;stroke-width:0.4;-inkscape-stroke:none"
         d="m 136.21933,-59.232754 h 11.05885 v 4.156487 h -11.05885 z"
         id="path2403" />
      <path
         style="color:#000000;fill:#000000;-inkscape-stroke:none"
         d="m 136.01953,-59.433594 v 0.201172 4.355469 h 11.45899 v -4.556641 z m 0.40039,0.400391 h 10.6582 v 3.757812 h -10.6582 z"
         id="path2405" />
    </g>
    <g
       id="path3900-0-45">
      <path
         style="color:#000000;fill:#000000;-inkscape-stroke:none"
         d="m 61.6875,133.32227 v 0.40039 h 32.195312 v -0.40039 z"
         id="path2419" />
      <g
         id="g2409">
        <g
           id="path2411">
          <path
             style="color:#000000;fill:#000000;fill-rule:evenodd;stroke-width:0.2pt;-inkscape-stroke:none"
             d="m 60.533913,133.52274 1.73,-1 v 2 z"
             id="path2415" />
          <path
             style="color:#000000;fill:#000000;fill-rule:evenodd;-inkscape-stroke:none"
             d="m 62.396484,132.29102 -2.128906,1.23242 0.199219,0.11523 1.929687,1.11524 z m -0.265625,0.46289 v 1.53906 l -1.330078,-0.76953 z"
             id="path2417" />
        </g>
      </g>
    </g>
    <g
       id="path3900-0-4">
      <path
         style="color:#000000;fill:#000000;-inkscape-stroke:none"
         d="m 94.09375,106.53711 v 0.40039 h 32.27539 v -0.40039 z"
         id="path2433" />
      <g
         id="g2423">
        <g
           id="path2425">
          <path
             style="color:#000000;fill:#000000;fill-rule:evenodd;stroke-width:0.2pt;-inkscape-stroke:none"
             d="m 127.52238,106.73657 -1.73,1 v -2 z"
             id="path2429" />
          <path
             style="color:#000000;fill:#000000;fill-rule:evenodd;-inkscape-stroke:none"
             d="m 125.6582,105.50586 v 2.46094 l 2.13086,-1.23047 -0.19922,-0.11524 z m 0.26758,0.46094 1.33008,0.76953 -1.33008,0.76953 z"
             id="path2431" />
        </g>
      </g>
    </g>
    <path
       style="color:#000000;fill:#000000;-inkscape-stroke:none"
       d="m 93.683594,79.318359 v 80.416011 h 0.40039 V 79.318359 Z"
       id="path3778-9" />
    <g
       id="rect394-7-9"
       transform="rotate(90)">
      <path
         style="color:#000000;fill:#97afe6;stroke-width:0.4;-inkscape-stroke:none"
         d="m 100.99065,-96.809616 h 31.11885 v 5.852287 h -31.11885 z"
         id="path2441" />
      <path
         style="color:#000000;fill:#000000;-inkscape-stroke:none"
         d="m 100.79102,-97.009766 v 0.199219 6.052735 h 31.51757 v -6.251954 z m 0.40039,0.400391 h 30.71875 v 5.451172 h -30.71875 z"
         id="path2443" />
    </g>
    <g
       id="rect394-2-0-8"
       transform="rotate(90)">
      <path
         style="color:#000000;fill:#a1e697;stroke-width:0.4;-inkscape-stroke:none"
         d="m 116.65347,-95.791412 h 13.76907 v 3.815872 h -13.76907 z"
         id="path2447" />
      <path
         style="color:#000000;fill:#000000;-inkscape-stroke:none"
         d="m 116.45313,-95.992187 v 0.201171 4.015625 h 14.16992 v -4.216796 z m 0.40039,0.40039 h 13.36914 v 3.416016 h -13.36914 z"
         id="path2449" />
    </g>
    <g
       id="path3900-0-4-4">
      <path
         style="color:#000000;fill:#000000;-inkscape-stroke:none"
         d="m 98.398437,113.70117 v 0.40039 h 29.589843 v -0.40039 z"
         id="path2463" />
      <g
         id="g2453">
        <g
           id="path2455">
          <path
             style="color:#000000;fill:#000000;fill-rule:evenodd;stroke-width:0.2pt;-inkscape-stroke:none"
             d="m 97.244532,113.90173 1.73,-1 v 2 z"
             id="path2459" />
          <path
             style="color:#000000;fill:#000000;fill-rule:evenodd;-inkscape-stroke:none"
             d="m 99.107422,112.66992 -2.128906,1.23242 0.199218,0.11524 1.929688,1.11523 z m -0.265625,0.46289 v 1.53907 l -1.332031,-0.76954 z"
             id="path2461" />
        </g>
      </g>
    </g>
  </g>
</svg>
