<?xml version="1.0" encoding="UTF-8" standalone="no"?>
<!-- Created with Inkscape (http://www.inkscape.org/) -->

<svg
   width="127.62234mm"
   height="125.16016mm"
   viewBox="0 0 127.62234 125.16016"
   version="1.1"
   id="svg5"
   inkscape:version="1.2.2 (732a01da63, 2022-12-09)"
   sodipodi:docname="20230320_dryml_Object_Save_2.svg"
   xmlns:inkscape="http://www.inkscape.org/namespaces/inkscape"
   xmlns:sodipodi="http://sodipodi.sourceforge.net/DTD/sodipodi-0.dtd"
   xmlns:xlink="http://www.w3.org/1999/xlink"
   xmlns="http://www.w3.org/2000/svg"
   xmlns:svg="http://www.w3.org/2000/svg">
  <sodipodi:namedview
     id="namedview7"
     pagecolor="#ffffff"
     bordercolor="#666666"
     borderopacity="1.0"
     inkscape:showpageshadow="2"
     inkscape:pageopacity="0.0"
     inkscape:pagecheckerboard="0"
     inkscape:deskcolor="#d1d1d1"
     inkscape:document-units="mm"
     showgrid="false"
     inkscape:zoom="1.1237655"
     inkscape:cx="288.31638"
     inkscape:cy="498.76954"
     inkscape:window-width="1338"
     inkscape:window-height="1226"
     inkscape:window-x="1348"
     inkscape:window-y="1653"
     inkscape:window-maximized="0"
     inkscape:current-layer="layer1">
    <inkscape:grid
       type="xygrid"
       id="grid6998" />
  </sodipodi:namedview>
  <defs
     id="defs2" />
  <g
     inkscape:label="Layer 1"
     inkscape:groupmode="layer"
     id="layer1"
     transform="translate(-9.4687502,-57.048827)">
    <path
       style="color:#000000;fill:#000000;-inkscape-stroke:none"
       d="M 9.46875,72.238281 V 182.20898 H 9.8691406 V 72.238281 Z"
       id="path3778-92" />
    <g
       aria-label="save_object(object)"
       id="text2439"
       style="font-size:3.52778px;font-family:Hack;-inkscape-font-specification:Hack;letter-spacing:0px;word-spacing:0px;stroke-width:0.264583">
      <path
         d="m 14.348854,90.412098 q -0.275608,0 -0.647679,-0.120578 v -0.327284 q 0.361736,0.18259 0.644234,0.18259 0.201538,0 0.322116,-0.08441 0.120579,-0.08441 0.120579,-0.225654 0,-0.122301 -0.101631,-0.196371 -0.09991,-0.07579 -0.320394,-0.1223 l -0.132636,-0.02756 q -0.272163,-0.05512 -0.399631,-0.180868 -0.125747,-0.127468 -0.125747,-0.346232 0,-0.277331 0.189481,-0.427192 0.18948,-0.149862 0.539158,-0.149862 0.296278,0 0.573608,0.113688 v 0.310059 q -0.27044,-0.158475 -0.564996,-0.158475 -0.416856,0 -0.416856,0.284221 0,0.09302 0.03617,0.148139 0.03617,0.0534 0.137804,0.0913 0.10163,0.03617 0.299724,0.07579 l 0.127468,0.02412 q 0.478869,0.09474 0.478869,0.521932 0,0.285944 -0.203261,0.451308 -0.203261,0.163642 -0.556383,0.163642 z"
         id="path3591" />
      <path
         d="m 16.334953,90.412098 q -0.279053,0 -0.461644,-0.160197 -0.180867,-0.161919 -0.180867,-0.463365 0,-0.24977 0.120578,-0.389296 0.120579,-0.141249 0.315227,-0.198093 0.194648,-0.05685 0.415134,-0.05685 h 0.42547 v -0.04995 q 0,-0.246325 -0.125747,-0.342788 -0.124023,-0.09646 -0.349677,-0.09646 -0.1757,0 -0.34451,0.04823 -0.16881,0.04823 -0.315226,0.134359 V 88.52074 q 0.158474,-0.05857 0.320394,-0.09646 0.16192,-0.0379 0.330729,-0.0379 0.172255,0 0.334175,0.04823 0.163642,0.04651 0.282498,0.15503 0.118856,0.106798 0.158474,0.287665 0.02756,0.127469 0.02756,0.384129 v 0.394463 q 0,0.16192 0.01723,0.358291 0.01895,0.19637 0.0844,0.347954 H 17.07048 q -0.02928,-0.06718 -0.04651,-0.142971 -0.01722,-0.07751 -0.02756,-0.149862 -0.10163,0.173978 -0.282498,0.258382 -0.179145,0.08441 -0.37896,0.08441 z m 0.07751,-0.265272 q 0.196371,0 0.318672,-0.09646 0.124023,-0.09646 0.180867,-0.251492 0.05684,-0.156752 0.05684,-0.335897 v -0.07063 h -0.401354 q -0.134359,0 -0.26355,0.03101 -0.127469,0.02928 -0.211874,0.113689 -0.08268,0.0844 -0.08268,0.246324 0,0.18259 0.111965,0.273885 0.111966,0.08957 0.291111,0.08957 z"
         id="path3593" />
      <path
         d="m 17.754333,88.43289 h 0.329007 l 0.559828,1.619196 0.561551,-1.619196 h 0.329007 l -0.685575,1.929254 h -0.408244 z"
         id="path3595" />
      <path
         d="m 20.873869,90.412098 q -0.44614,0 -0.701077,-0.266995 -0.253215,-0.268717 -0.253215,-0.732083 0,-0.287666 0.09991,-0.52021 0.10163,-0.232544 0.299723,-0.368625 0.199816,-0.137804 0.492649,-0.137804 0.385851,0 0.597725,0.248047 0.213596,0.246324 0.213596,0.683852 v 0.155029 h -1.372872 v 0.01034 q 0,0.301446 0.158475,0.480591 0.158474,0.179145 0.468533,0.179145 0.179145,0 0.346232,-0.05684 0.16881,-0.05684 0.325562,-0.137804 v 0.315226 q -0.163642,0.06718 -0.332452,0.106798 -0.167087,0.04134 -0.342787,0.04134 z m 0.43236,-1.186836 q 0,-0.160197 -0.04823,-0.289388 -0.04823,-0.129191 -0.155029,-0.204983 -0.105076,-0.07579 -0.279053,-0.07579 -0.1757,0 -0.294556,0.07751 -0.117133,0.07579 -0.184313,0.204984 -0.06546,0.129191 -0.08268,0.287665 z"
         id="path3597" />
      <path
         d="m 21.991803,90.689429 h 1.798341 v 0.206706 h -1.798341 z"
         id="path3599" />
      <path
         d="m 25.018322,90.412098 q -0.403076,0 -0.616672,-0.260104 -0.211874,-0.261828 -0.211874,-0.751032 0,-0.490926 0.213596,-0.752754 0.213596,-0.261827 0.613227,-0.261827 0.399632,0 0.611505,0.261827 0.213596,0.260105 0.213596,0.754477 0,0.490926 -0.211873,0.751031 -0.211874,0.258382 -0.611505,0.258382 z m -0.0017,-0.268717 q 0.23599,0 0.361736,-0.192926 0.127468,-0.192925 0.127468,-0.552938 0,-0.35829 -0.127468,-0.549493 -0.125746,-0.192925 -0.361736,-0.192925 -0.237711,0 -0.36518,0.192925 -0.125746,0.191203 -0.125746,0.549493 0,0.360013 0.127469,0.552938 0.127468,0.192926 0.363457,0.192926 z"
         id="path3601" />
      <path
         d="m 27.257635,90.412098 q -0.36518,0 -0.530545,-0.292833 l -0.03101,0.242879 h -0.285943 v -2.680286 h 0.316949 v 0.997356 q 0.07924,-0.149862 0.218764,-0.220486 0.139526,-0.07235 0.313504,-0.07235 0.206706,0 0.347955,0.08957 0.141249,0.08785 0.225653,0.23599 0.08613,0.146416 0.122301,0.325561 0.0379,0.179145 0.0379,0.358291 0,0.180867 -0.0379,0.361735 -0.0379,0.179145 -0.124023,0.327284 -0.08441,0.148139 -0.225654,0.237712 -0.141249,0.08957 -0.347955,0.08957 z m -0.06373,-0.268717 q 0.151584,0 0.242879,-0.07063 0.09302,-0.07062 0.139527,-0.184312 0.04823,-0.113689 0.06546,-0.24288 0.01722,-0.129191 0.01722,-0.246324 0,-0.117134 -0.01722,-0.246325 -0.01723,-0.130914 -0.06546,-0.242879 -0.04651,-0.113688 -0.139527,-0.184313 -0.09129,-0.07062 -0.242879,-0.07062 -0.149862,0 -0.24288,0.07062 -0.0913,0.07062 -0.141249,0.18259 -0.04823,0.111966 -0.06546,0.24288 -0.01723,0.129191 -0.01723,0.246324 0,0.118856 0.01723,0.24977 0.01722,0.129191 0.06546,0.242879 0.04995,0.111966 0.141249,0.18259 0.09302,0.07063 0.24288,0.07063 z"
         id="path3603" />
      <path
         d="m 29.324693,88.083212 q -0.05168,0 -0.05168,-0.05168 v -0.298001 q 0,-0.05168 0.05168,-0.05168 h 0.248047 q 0.05168,0 0.05168,0.05168 v 0.298001 q 0,0.05168 -0.05168,0.05168 z m -0.713135,2.744021 h 0.403077 q 0.310058,0 0.310058,-0.430638 V 88.679214 H 28.778645 V 88.43289 h 0.862997 v 1.963705 q 0,0.334175 -0.155029,0.516765 -0.155029,0.18259 -0.437527,0.18259 h -0.437528 z"
         id="path3605" />
      <path
         d="m 31.493383,90.412098 q -0.44614,0 -0.701077,-0.266995 -0.253215,-0.268717 -0.253215,-0.732083 0,-0.287666 0.09991,-0.52021 0.10163,-0.232544 0.299723,-0.368625 0.199816,-0.137804 0.492649,-0.137804 0.385851,0 0.597725,0.248047 0.213596,0.246324 0.213596,0.683852 v 0.155029 H 30.86982 v 0.01034 q 0,0.301446 0.158475,0.480591 0.158474,0.179145 0.468533,0.179145 0.179145,0 0.346232,-0.05684 0.16881,-0.05684 0.325562,-0.137804 v 0.315226 q -0.163642,0.06718 -0.332452,0.106798 -0.167087,0.04134 -0.342787,0.04134 z m 0.43236,-1.186836 q 0,-0.160197 -0.04823,-0.289388 -0.04823,-0.129191 -0.155029,-0.204983 -0.105076,-0.07579 -0.279053,-0.07579 -0.1757,0 -0.294556,0.07751 -0.117133,0.07579 -0.184313,0.204984 -0.06546,0.129191 -0.08268,0.287665 z"
         id="path3607" />
      <path
         d="m 33.663795,90.412098 q -0.304891,0 -0.51332,-0.127468 -0.206705,-0.129191 -0.313503,-0.35829 -0.105076,-0.229099 -0.105076,-0.5271 0,-0.299724 0.106798,-0.5271 0.106798,-0.229099 0.315227,-0.356568 0.208428,-0.129191 0.516764,-0.129191 0.160197,0 0.289388,0.0379 0.129192,0.03617 0.26355,0.110243 v 0.332452 q -0.122301,-0.108521 -0.246324,-0.160197 -0.122301,-0.05168 -0.279053,-0.05168 -0.232544,0 -0.372071,0.09991 -0.137804,0.09991 -0.199815,0.268718 -0.06029,0.16881 -0.06029,0.375516 0,0.204983 0.06201,0.375515 0.06201,0.16881 0.199816,0.268718 0.137804,0.09991 0.368625,0.09991 0.151585,0 0.282498,-0.04995 0.130914,-0.04995 0.244602,-0.158475 v 0.329007 q -0.246324,0.148139 -0.559828,0.148139 z"
         id="path3609" />
      <path
         d="m 35.963398,90.369035 q -0.354845,0 -0.502984,-0.142972 -0.146417,-0.144694 -0.146417,-0.492649 v -1.0542 H 34.798955 V 88.43289 h 0.515042 v -0.504707 l 0.316949,-0.137804 v 0.642511 h 0.720026 v 0.246324 h -0.720026 v 1.0542 q 0,0.211874 0.08096,0.298001 0.08096,0.08441 0.282498,0.08441 h 0.356568 v 0.253215 z"
         id="path3611" />
      <path
         d="m 37.722119,90.827233 q -0.26355,-0.41858 -0.387573,-0.799263 -0.127469,-0.392741 -0.127469,-0.773424 0,-0.377239 0.127469,-0.773425 0.06546,-0.198093 0.160197,-0.392741 0.09474,-0.196371 0.227376,-0.403076 h 0.275608 q -0.122301,0.208428 -0.204983,0.399631 -0.08096,0.18948 -0.136082,0.382406 -0.113688,0.396186 -0.113688,0.787205 0,0.782037 0.454753,1.572687 z"
         id="path3613" />
      <path
         d="m 39.885641,90.412098 q -0.403076,0 -0.616672,-0.260104 -0.211874,-0.261828 -0.211874,-0.751032 0,-0.490926 0.213596,-0.752754 0.213596,-0.261827 0.613228,-0.261827 0.399631,0 0.611504,0.261827 0.213597,0.260105 0.213597,0.754477 0,0.490926 -0.211874,0.751031 -0.211874,0.258382 -0.611505,0.258382 z m -0.0017,-0.268717 q 0.235989,0 0.361735,-0.192926 0.127468,-0.192925 0.127468,-0.552938 0,-0.35829 -0.127468,-0.549493 -0.125746,-0.192925 -0.361735,-0.192925 -0.237712,0 -0.365181,0.192925 -0.125746,0.191203 -0.125746,0.549493 0,0.360013 0.127469,0.552938 0.127468,0.192926 0.363458,0.192926 z"
         id="path3615" />
      <path
         d="m 42.124955,90.412098 q -0.36518,0 -0.530545,-0.292833 l -0.03101,0.242879 h -0.285943 v -2.680286 h 0.316949 v 0.997356 q 0.07924,-0.149862 0.218764,-0.220486 0.139526,-0.07235 0.313504,-0.07235 0.206706,0 0.347955,0.08957 0.141249,0.08785 0.225654,0.23599 0.08613,0.146416 0.1223,0.325561 0.0379,0.179145 0.0379,0.358291 0,0.180867 -0.0379,0.361735 -0.0379,0.179145 -0.124023,0.327284 -0.0844,0.148139 -0.225654,0.237712 -0.141249,0.08957 -0.347955,0.08957 z m -0.06373,-0.268717 q 0.151584,0 0.242879,-0.07063 0.09302,-0.07062 0.139527,-0.184312 0.04823,-0.113689 0.06546,-0.24288 0.01722,-0.129191 0.01722,-0.246324 0,-0.117134 -0.01722,-0.246325 -0.01723,-0.130914 -0.06546,-0.242879 -0.04651,-0.113688 -0.139527,-0.184313 -0.09129,-0.07062 -0.242879,-0.07062 -0.149862,0 -0.242879,0.07062 -0.0913,0.07062 -0.14125,0.18259 -0.04823,0.111966 -0.06546,0.24288 -0.01723,0.129191 -0.01723,0.246324 0,0.118856 0.01723,0.24977 0.01723,0.129191 0.06546,0.242879 0.04995,0.111966 0.14125,0.18259 0.09302,0.07063 0.242879,0.07063 z"
         id="path3617" />
      <path
         d="m 44.192012,88.083212 q -0.05168,0 -0.05168,-0.05168 v -0.298001 q 0,-0.05168 0.05168,-0.05168 h 0.248047 q 0.05168,0 0.05168,0.05168 v 0.298001 q 0,0.05168 -0.05168,0.05168 z m -0.713135,2.744021 h 0.403077 q 0.310058,0 0.310058,-0.430638 V 88.679214 H 43.645964 V 88.43289 h 0.862997 v 1.963705 q 0,0.334175 -0.155029,0.516765 -0.155029,0.18259 -0.437527,0.18259 h -0.437528 z"
         id="path3619" />
      <path
         d="m 46.360702,90.412098 q -0.44614,0 -0.701077,-0.266995 -0.253215,-0.268717 -0.253215,-0.732083 0,-0.287666 0.09991,-0.52021 0.10163,-0.232544 0.299723,-0.368625 0.199816,-0.137804 0.492649,-0.137804 0.385851,0 0.597725,0.248047 0.213596,0.246324 0.213596,0.683852 v 0.155029 h -1.372872 v 0.01034 q 0,0.301446 0.158475,0.480591 0.158474,0.179145 0.468533,0.179145 0.179145,0 0.346232,-0.05684 0.16881,-0.05684 0.325562,-0.137804 v 0.315226 q -0.163642,0.06718 -0.332452,0.106798 -0.167087,0.04134 -0.342787,0.04134 z m 0.43236,-1.186836 q 0,-0.160197 -0.04823,-0.289388 -0.04823,-0.129191 -0.155029,-0.204983 -0.105075,-0.07579 -0.279053,-0.07579 -0.1757,0 -0.294556,0.07751 -0.117133,0.07579 -0.184313,0.204984 -0.06546,0.129191 -0.08268,0.287665 z"
         id="path3621" />
      <path
         d="m 48.531114,90.412098 q -0.304891,0 -0.513319,-0.127468 -0.206706,-0.129191 -0.313504,-0.35829 -0.105076,-0.229099 -0.105076,-0.5271 0,-0.299724 0.106798,-0.5271 0.106798,-0.229099 0.315227,-0.356568 0.208428,-0.129191 0.516764,-0.129191 0.160197,0 0.289388,0.0379 0.129192,0.03617 0.26355,0.110243 v 0.332452 q -0.1223,-0.108521 -0.246324,-0.160197 -0.122301,-0.05168 -0.279053,-0.05168 -0.232544,0 -0.37207,0.09991 -0.137804,0.09991 -0.199816,0.268718 -0.06029,0.16881 -0.06029,0.375516 0,0.204983 0.06201,0.375515 0.06201,0.16881 0.199816,0.268718 0.137804,0.09991 0.368626,0.09991 0.151584,0 0.282498,-0.04995 0.130913,-0.04995 0.244601,-0.158475 v 0.329007 q -0.246324,0.148139 -0.559828,0.148139 z"
         id="path3623" />
      <path
         d="m 50.830715,90.369035 q -0.354845,0 -0.502984,-0.142972 -0.146416,-0.144694 -0.146416,-0.492649 v -1.0542 H 49.666272 V 88.43289 h 0.515043 v -0.504707 l 0.316949,-0.137804 v 0.642511 h 0.720025 v 0.246324 h -0.720025 v 1.0542 q 0,0.211874 0.08096,0.298001 0.08096,0.08441 0.282498,0.08441 h 0.356568 v 0.253215 z"
         id="path3625" />
      <path
         d="m 52.387902,90.827233 q 0.225654,-0.394464 0.342787,-0.79065 0.0534,-0.184313 0.08268,-0.382406 0.02928,-0.198093 0.02928,-0.399631 0,-0.396187 -0.111966,-0.78376 -0.0534,-0.184313 -0.139526,-0.382406 -0.08441,-0.198093 -0.203261,-0.403076 h 0.275608 q 0.26355,0.408244 0.387573,0.795817 0.127469,0.396186 0.127469,0.773425 0,0.380683 -0.127469,0.776869 -0.125746,0.389296 -0.387573,0.795818 z"
         id="path3627" />
    </g>
    <g
       id="g2820"
       transform="translate(72.7454,52.743254)"
       inkscape:export-filename="20230320_dryml_Object_Save_2_Render.svg"
       inkscape:export-xdpi="96"
       inkscape:export-ydpi="96">
      <path
         style="-inkscape-font-specification:'Montserrat Semi-Bold';stroke-width:0.264583"
         sodipodi:type="inkscape:offset"
         inkscape:radius="0"
         inkscape:original="M 54.904297 21.46875 C 54.808341 21.46875 54.72702 21.500411 54.662109 21.5625 C 54.597198 21.621767 54.564453 21.696798 54.564453 21.787109 C 54.564453 21.87742 54.597198 21.953536 54.662109 22.015625 C 54.72702 22.074892 54.808341 22.103516 54.904297 22.103516 C 55.003075 22.103516 55.082442 22.073808 55.144531 22.011719 C 55.209442 21.946808 55.242188 21.866571 55.242188 21.773438 C 55.242188 21.685949 55.209442 21.615038 55.144531 21.558594 C 55.07962 21.499327 55.000252 21.46875 54.904297 21.46875 z M 51.710938 21.595703 L 51.710938 24.738281 L 52.214844 24.738281 L 52.214844 24.445312 C 52.302333 24.552557 52.410109 24.631925 52.537109 24.685547 C 52.666931 24.739169 52.809622 24.767578 52.964844 24.767578 C 53.184977 24.767578 53.380579 24.719002 53.552734 24.623047 C 53.727712 24.527091 53.866066 24.391775 53.964844 24.216797 C 54.063621 24.038997 54.111328 23.836022 54.111328 23.607422 C 54.111328 23.378822 54.063621 23.176931 53.964844 23.001953 C 53.866066 22.826975 53.727712 22.691659 53.552734 22.595703 C 53.380579 22.499748 53.184977 22.451172 52.964844 22.451172 C 52.818088 22.451172 52.682771 22.476544 52.558594 22.527344 C 52.437238 22.578144 52.330545 22.653175 52.240234 22.751953 L 52.240234 21.595703 L 51.710938 21.595703 z M 49.582031 21.732422 C 49.280054 21.732422 49.008336 21.797043 48.765625 21.929688 C 48.522914 22.05951 48.331648 22.242318 48.193359 22.476562 C 48.055071 22.707985 47.986328 22.967993 47.986328 23.255859 C 47.986328 23.543726 48.055071 23.804818 48.193359 24.039062 C 48.331648 24.270485 48.522914 24.45134 48.765625 24.583984 C 49.008336 24.713806 49.280054 24.779297 49.582031 24.779297 C 49.884009 24.779297 50.15768 24.713806 50.400391 24.583984 C 50.643102 24.45134 50.832414 24.270485 50.970703 24.039062 C 51.108992 23.80764 51.177734 23.546548 51.177734 23.255859 C 51.177734 22.965171 51.108992 22.704078 50.970703 22.472656 C 50.832414 22.241234 50.643102 22.05951 50.400391 21.929688 C 50.15768 21.797043 49.884009 21.732422 49.582031 21.732422 z M 61.058594 21.976562 L 61.058594 22.494141 L 60.685547 22.494141 L 60.685547 22.916016 L 61.058594 22.916016 L 61.058594 24.005859 C 61.058594 24.254215 61.126252 24.442444 61.261719 24.572266 C 61.397185 24.702088 61.589535 24.767578 61.837891 24.767578 C 61.936668 24.767578 62.029699 24.753916 62.117188 24.728516 C 62.207499 24.703116 62.283614 24.666034 62.345703 24.615234 L 62.197266 24.238281 C 62.118243 24.30037 62.020877 24.330078 61.902344 24.330078 C 61.800744 24.330078 61.721591 24.302538 61.667969 24.246094 C 61.614347 24.186827 61.587891 24.102254 61.587891 23.992188 L 61.587891 22.916016 L 62.193359 22.916016 L 62.193359 22.494141 L 61.587891 22.494141 L 61.587891 21.976562 L 61.058594 21.976562 z M 49.582031 22.214844 C 49.779587 22.214844 49.95719 22.259298 50.115234 22.349609 C 50.273279 22.437098 50.39797 22.56179 50.488281 22.722656 C 50.578592 22.880701 50.623047 23.058304 50.623047 23.255859 C 50.623047 23.453415 50.578592 23.632102 50.488281 23.792969 C 50.39797 23.951013 50.273279 24.075705 50.115234 24.166016 C 49.95719 24.253504 49.779587 24.296875 49.582031 24.296875 C 49.384476 24.296875 49.206872 24.253504 49.048828 24.166016 C 48.890784 24.075705 48.766092 23.951013 48.675781 23.792969 C 48.58547 23.632102 48.541016 23.453415 48.541016 23.255859 C 48.541016 23.058304 48.58547 22.880701 48.675781 22.722656 C 48.766092 22.56179 48.890784 22.437098 49.048828 22.349609 C 49.206872 22.259298 49.384476 22.214844 49.582031 22.214844 z M 56.847656 22.451172 C 56.624701 22.451172 56.423894 22.500832 56.246094 22.599609 C 56.068294 22.698387 55.927772 22.835872 55.826172 23.013672 C 55.727394 23.18865 55.677734 23.387289 55.677734 23.607422 C 55.677734 23.830377 55.728478 24.031185 55.830078 24.208984 C 55.9345 24.383962 56.082396 24.520363 56.271484 24.619141 C 56.460573 24.717918 56.679379 24.767578 56.927734 24.767578 C 57.122468 24.767578 57.297903 24.735917 57.453125 24.673828 C 57.608347 24.611739 57.736291 24.519793 57.837891 24.398438 L 57.554688 24.072266 C 57.393821 24.235954 57.187808 24.318359 56.939453 24.318359 C 56.74472 24.318359 56.581863 24.269784 56.449219 24.173828 C 56.319397 24.07505 56.238076 23.941902 56.207031 23.775391 L 57.980469 23.775391 C 57.986113 23.707657 57.990234 23.655829 57.990234 23.619141 C 57.990234 23.387719 57.940575 23.184743 57.841797 23.009766 C 57.745841 22.831966 57.610525 22.695565 57.435547 22.599609 C 57.263391 22.500832 57.067789 22.451172 56.847656 22.451172 z M 59.535156 22.451172 C 59.29809 22.451172 59.086657 22.500832 58.900391 22.599609 C 58.716946 22.698387 58.573172 22.834788 58.46875 23.009766 C 58.364328 23.184743 58.3125 23.384467 58.3125 23.607422 C 58.3125 23.830377 58.364328 24.031185 58.46875 24.208984 C 58.573172 24.383962 58.71803 24.520363 58.904297 24.619141 C 59.090563 24.717918 59.300912 24.767578 59.535156 24.767578 C 59.755289 24.767578 59.948723 24.72117 60.115234 24.630859 C 60.284568 24.537726 60.412511 24.407614 60.5 24.238281 L 60.09375 24 C 60.028839 24.104422 59.946434 24.184659 59.847656 24.238281 C 59.751701 24.289081 59.646961 24.314453 59.53125 24.314453 C 59.330872 24.314453 59.164978 24.250047 59.035156 24.123047 C 58.908156 23.993225 58.845703 23.821911 58.845703 23.607422 C 58.845703 23.392933 58.90924 23.222703 59.039062 23.095703 C 59.168885 22.965881 59.333695 22.900391 59.53125 22.900391 C 59.646961 22.900391 59.751701 22.926847 59.847656 22.980469 C 59.946434 23.031269 60.028839 23.108468 60.09375 23.212891 L 60.5 22.976562 C 60.415333 22.807229 60.288474 22.676249 60.119141 22.585938 C 59.95263 22.495626 59.758112 22.451172 59.535156 22.451172 z M 54.640625 22.476562 L 54.640625 24.792969 C 54.640625 24.911502 54.614169 24.999327 54.560547 25.058594 C 54.509747 25.120683 54.434715 25.152344 54.335938 25.152344 C 54.208938 25.152344 54.106366 25.121767 54.027344 25.0625 L 53.875 25.457031 C 53.990711 25.54452 54.159857 25.587891 54.382812 25.587891 C 54.631168 25.587891 54.824602 25.51698 54.962891 25.373047 C 55.101179 25.229114 55.169922 25.030474 55.169922 24.779297 L 55.169922 22.476562 L 54.640625 22.476562 z M 56.847656 22.875 C 57.019812 22.875 57.163586 22.925744 57.279297 23.027344 C 57.395008 23.128944 57.46375 23.262092 57.486328 23.425781 L 56.203125 23.425781 C 56.228525 23.25927 56.300305 23.126121 56.416016 23.027344 C 56.534549 22.925744 56.678323 22.875 56.847656 22.875 z M 52.90625 22.900391 C 53.100983 22.900391 53.260588 22.965881 53.384766 23.095703 C 53.511766 23.225525 53.574219 23.395755 53.574219 23.607422 C 53.574219 23.819088 53.511766 23.989319 53.384766 24.119141 C 53.260588 24.248963 53.100983 24.314453 52.90625 24.314453 C 52.77925 24.314453 52.6641 24.28496 52.5625 24.228516 C 52.4609 24.169249 52.381532 24.087713 52.322266 23.980469 C 52.262999 23.873224 52.232422 23.748533 52.232422 23.607422 C 52.232422 23.466311 52.262999 23.341619 52.322266 23.234375 C 52.381532 23.127131 52.4609 23.044726 52.5625 22.988281 C 52.6641 22.929015 52.77925 22.900391 52.90625 22.900391 z "
         xlink:href="#text790"
         id="path1129"
         inkscape:href="#text790"
         d="m 54.904297,21.46875 c -0.09596,0 -0.177277,0.03166 -0.242188,0.09375 -0.06491,0.05927 -0.09766,0.134298 -0.09766,0.224609 0,0.09031 0.03274,0.166427 0.09766,0.228516 0.06491,0.05927 0.146232,0.08789 0.242188,0.08789 0.09878,0 0.178145,-0.02971 0.240234,-0.0918 0.06491,-0.06491 0.09766,-0.145148 0.09766,-0.238281 0,-0.08749 -0.03275,-0.1584 -0.09766,-0.214844 -0.06491,-0.05927 -0.144279,-0.08984 -0.240234,-0.08984 z m -3.193359,0.126953 v 3.142578 h 0.503906 v -0.292969 c 0.08749,0.107245 0.195265,0.186613 0.322265,0.240235 0.129822,0.05362 0.272513,0.08203 0.427735,0.08203 0.220133,0 0.415735,-0.04858 0.58789,-0.144531 0.174978,-0.09596 0.313332,-0.231272 0.41211,-0.40625 0.09878,-0.1778 0.146484,-0.380775 0.146484,-0.609375 0,-0.2286 -0.04771,-0.430491 -0.146484,-0.605469 -0.09878,-0.174978 -0.237132,-0.310294 -0.41211,-0.40625 -0.172155,-0.09596 -0.367757,-0.144531 -0.58789,-0.144531 -0.146756,0 -0.282073,0.02537 -0.40625,0.07617 -0.121356,0.0508 -0.228049,0.125831 -0.31836,0.224609 v -1.15625 z m -2.128907,0.136719 c -0.301977,0 -0.573695,0.06462 -0.816406,0.197266 -0.242711,0.129822 -0.433977,0.31263 -0.572266,0.546874 -0.138288,0.231423 -0.207031,0.491431 -0.207031,0.779297 0,0.287867 0.06874,0.548959 0.207031,0.783203 0.138289,0.231423 0.329555,0.412278 0.572266,0.544922 0.242711,0.129822 0.514429,0.195313 0.816406,0.195313 0.301978,0 0.575649,-0.06549 0.81836,-0.195313 0.242711,-0.132644 0.432023,-0.313499 0.570312,-0.544922 0.138289,-0.231422 0.207031,-0.492514 0.207031,-0.783203 0,-0.290688 -0.06874,-0.551781 -0.207031,-0.783203 -0.138289,-0.231422 -0.327601,-0.413146 -0.570312,-0.542968 -0.242711,-0.132645 -0.516382,-0.197266 -0.81836,-0.197266 z m 11.476563,0.24414 v 0.517579 h -0.373047 v 0.421875 h 0.373047 v 1.089843 c 0,0.248356 0.06766,0.436585 0.203125,0.566407 0.135466,0.129822 0.327816,0.195312 0.576172,0.195312 0.09878,0 0.191808,-0.01366 0.279297,-0.03906 0.09031,-0.0254 0.166426,-0.06248 0.228515,-0.113282 l -0.148437,-0.376953 c -0.07902,0.06209 -0.176389,0.0918 -0.294922,0.0918 -0.1016,0 -0.180753,-0.02754 -0.234375,-0.08398 -0.05362,-0.05927 -0.08008,-0.14384 -0.08008,-0.253906 v -1.076172 h 0.605468 v -0.421875 h -0.605468 v -0.517579 z m -11.476563,0.238282 c 0.197556,0 0.375159,0.04445 0.533203,0.134765 0.158045,0.08749 0.282736,0.212181 0.373047,0.373047 0.09031,0.158045 0.134766,0.335648 0.134766,0.533203 0,0.197556 -0.04445,0.376243 -0.134766,0.53711 -0.09031,0.158044 -0.215002,0.282736 -0.373047,0.373047 -0.158044,0.08749 -0.335647,0.130859 -0.533203,0.130859 -0.197555,0 -0.375159,-0.04337 -0.533203,-0.130859 -0.158044,-0.09031 -0.282736,-0.215003 -0.373047,-0.373047 -0.09031,-0.160867 -0.134765,-0.339554 -0.134765,-0.53711 0,-0.197555 0.04445,-0.375158 0.134765,-0.533203 0.09031,-0.160866 0.215003,-0.285558 0.373047,-0.373047 0.158044,-0.09031 0.335648,-0.134765 0.533203,-0.134765 z m 7.265625,0.236328 c -0.222955,0 -0.423762,0.04966 -0.601562,0.148437 -0.1778,0.09878 -0.318322,0.236263 -0.419922,0.414063 -0.09878,0.174978 -0.148438,0.373617 -0.148438,0.59375 0,0.222955 0.05074,0.423763 0.152344,0.601562 0.104422,0.174978 0.252318,0.311379 0.441406,0.410157 0.189089,0.09878 0.407895,0.148437 0.65625,0.148437 0.194734,0 0.370169,-0.03166 0.525391,-0.09375 0.155222,-0.06209 0.283166,-0.154035 0.384766,-0.27539 l -0.283203,-0.326172 c -0.160867,0.163688 -0.36688,0.246093 -0.615235,0.246093 -0.194733,0 -0.35759,-0.04857 -0.490234,-0.144531 -0.129822,-0.09878 -0.211143,-0.231926 -0.242188,-0.398437 h 1.773438 c 0.0056,-0.06773 0.0098,-0.119562 0.0098,-0.15625 0,-0.231422 -0.04966,-0.434398 -0.148437,-0.609375 -0.09596,-0.1778 -0.231272,-0.314201 -0.40625,-0.410157 -0.172156,-0.09878 -0.367758,-0.148437 -0.587891,-0.148437 z m 2.6875,0 c -0.237066,0 -0.448499,0.04966 -0.634765,0.148437 -0.183445,0.09878 -0.327219,0.235179 -0.431641,0.410157 -0.104422,0.174977 -0.15625,0.374701 -0.15625,0.597656 0,0.222955 0.05183,0.423763 0.15625,0.601562 0.104422,0.174978 0.24928,0.311379 0.435547,0.410157 0.186266,0.09878 0.396615,0.148437 0.630859,0.148437 0.220133,0 0.413567,-0.04641 0.580078,-0.136719 0.169334,-0.09313 0.297277,-0.223245 0.384766,-0.392578 L 60.09375,24 c -0.06491,0.104422 -0.147316,0.184659 -0.246094,0.238281 -0.09596,0.0508 -0.200695,0.07617 -0.316406,0.07617 -0.200378,0 -0.366272,-0.06441 -0.496094,-0.191406 -0.127,-0.129822 -0.189453,-0.301136 -0.189453,-0.515625 0,-0.214489 0.06354,-0.384719 0.193359,-0.511719 0.129823,-0.129822 0.294633,-0.195312 0.492188,-0.195312 0.115711,0 0.220451,0.02646 0.316406,0.08008 0.09878,0.0508 0.181183,0.127999 0.246094,0.232422 L 60.5,22.976562 c -0.08467,-0.169333 -0.211526,-0.300313 -0.380859,-0.390624 -0.166511,-0.09031 -0.361029,-0.134766 -0.583985,-0.134766 z m -4.894531,0.02539 v 2.316407 c 0,0.118533 -0.02646,0.206358 -0.08008,0.265625 -0.0508,0.06209 -0.125832,0.09375 -0.224609,0.09375 -0.127,0 -0.229572,-0.03058 -0.308594,-0.08984 L 53.875,25.457031 c 0.115711,0.08749 0.284857,0.13086 0.507812,0.13086 0.248356,0 0.44179,-0.07091 0.580079,-0.214844 0.138288,-0.143933 0.207031,-0.342573 0.207031,-0.59375 V 22.476562 Z M 56.847656,22.875 c 0.172156,0 0.31593,0.05074 0.431641,0.152344 0.115711,0.1016 0.184453,0.234748 0.207031,0.398437 h -1.283203 c 0.0254,-0.166511 0.09718,-0.29966 0.212891,-0.398437 0.118533,-0.1016 0.262307,-0.152344 0.43164,-0.152344 z m -3.941406,0.02539 c 0.194733,0 0.354338,0.06549 0.478516,0.195312 0.127,0.129822 0.189453,0.300052 0.189453,0.511719 0,0.211666 -0.06245,0.381897 -0.189453,0.511719 -0.124178,0.129822 -0.283783,0.195312 -0.478516,0.195312 -0.127,0 -0.24215,-0.02949 -0.34375,-0.08594 -0.1016,-0.05927 -0.180968,-0.140803 -0.240234,-0.248047 -0.05927,-0.107245 -0.08984,-0.231936 -0.08984,-0.373047 0,-0.141111 0.03058,-0.265803 0.08984,-0.373047 0.05927,-0.107244 0.138634,-0.189649 0.240234,-0.246094 0.1016,-0.05927 0.21675,-0.08789 0.34375,-0.08789 z" />
      <g
         aria-label="Object"
         id="text790"
         style="font-weight:600;font-size:4.23333px;font-family:Montserrat;-inkscape-font-specification:'Montserrat Semi-Bold';letter-spacing:0px;word-spacing:0px;stroke-width:0.264583">
        <path
           d="m 49.582456,24.779651 q -0.452966,0 -0.817033,-0.194733 -0.364066,-0.198966 -0.571499,-0.546099 -0.207433,-0.351367 -0.207433,-0.783166 0,-0.4318 0.207433,-0.778933 0.207433,-0.351366 0.571499,-0.5461 0.364067,-0.198966 0.817033,-0.198966 0.452966,0 0.817033,0.198966 0.364066,0.194734 0.571499,0.541867 0.207433,0.347133 0.207433,0.783166 0,0.436033 -0.207433,0.783166 -0.207433,0.347133 -0.571499,0.546099 -0.364067,0.194733 -0.817033,0.194733 z m 0,-0.482599 q 0.296333,0 0.5334,-0.131233 0.237066,-0.135467 0.372533,-0.372534 0.135466,-0.241299 0.135466,-0.537632 0,-0.296333 -0.135466,-0.5334 -0.135467,-0.2413 -0.372533,-0.372533 -0.237067,-0.135467 -0.5334,-0.135467 -0.296333,0 -0.533399,0.135467 -0.237067,0.131233 -0.372533,0.372533 -0.135467,0.237067 -0.135467,0.5334 0,0.296333 0.135467,0.537632 0.135466,0.237067 0.372533,0.372534 0.237066,0.131233 0.533399,0.131233 z"
           id="path3670" />
        <path
           d="m 52.964891,22.45132 q 0.330199,0 0.588432,0.143933 0.262467,0.143933 0.410633,0.4064 0.148167,0.262466 0.148167,0.605366 0,0.3429 -0.148167,0.609599 -0.148166,0.262467 -0.410633,0.4064 -0.258233,0.143933 -0.588432,0.143933 -0.232834,0 -0.427567,-0.08043 -0.1905,-0.08043 -0.321733,-0.2413 v 0.2921 H 51.711825 V 21.59619 h 0.529166 v 1.155699 q 0.135467,-0.148166 0.3175,-0.224366 0.186266,-0.0762 0.4064,-0.0762 z m -0.05927,1.862665 q 0.2921,0 0.478366,-0.194733 0.1905,-0.194733 0.1905,-0.512233 0,-0.3175 -0.1905,-0.512233 -0.186266,-0.194733 -0.478366,-0.194733 -0.1905,0 -0.3429,0.0889 -0.1524,0.08467 -0.241299,0.245533 -0.0889,0.160867 -0.0889,0.372533 0,0.211666 0.0889,0.372533 0.0889,0.160867 0.241299,0.249766 0.1524,0.08467 0.3429,0.08467 z"
           id="path3672" />
        <path
           d="m 54.38306,25.588217 q -0.334433,0 -0.508,-0.131233 l 0.1524,-0.3937 q 0.118533,0.0889 0.309033,0.0889 0.148167,0 0.224366,-0.09313 0.08043,-0.0889 0.08043,-0.2667 V 22.47672 h 0.529166 v 2.302931 q 0,0.376767 -0.207433,0.592667 -0.207433,0.215899 -0.579966,0.215899 z m 0.520699,-3.48403 q -0.143933,0 -0.2413,-0.0889 -0.09737,-0.09313 -0.09737,-0.2286 0,-0.135466 0.09737,-0.224366 0.09737,-0.09313 0.2413,-0.09313 0.143933,0 0.2413,0.0889 0.09737,0.08467 0.09737,0.2159 0,0.1397 -0.09737,0.237067 -0.09313,0.09313 -0.2413,0.09313 z"
           id="path3674" />
        <path
           d="m 57.989857,23.619719 q 0,0.05503 -0.0085,0.156633 h -1.773765 q 0.04657,0.249767 0.2413,0.397933 0.198966,0.143933 0.491066,0.143933 0.372533,0 0.613833,-0.245533 l 0.283633,0.325967 q -0.1524,0.182033 -0.385233,0.275166 -0.232833,0.09313 -0.524933,0.09313 -0.372533,0 -0.656166,-0.148166 -0.283633,-0.148167 -0.440266,-0.410633 -0.1524,-0.2667 -0.1524,-0.601133 0,-0.3302 0.148167,-0.592666 0.152399,-0.2667 0.419099,-0.414866 0.2667,-0.148167 0.601133,-0.148167 0.3302,0 0.588433,0.148167 0.262466,0.143933 0.406399,0.410632 0.148167,0.262467 0.148167,0.6096 z m -1.142999,-0.745066 q -0.254,0 -0.4318,0.1524 -0.173566,0.148166 -0.211666,0.397933 h 1.282699 q -0.03387,-0.245533 -0.207433,-0.397933 -0.173567,-0.1524 -0.4318,-0.1524 z"
           id="path3676" />
        <path
           d="m 59.535021,24.766951 q -0.351366,0 -0.630766,-0.148166 -0.2794,-0.148167 -0.436033,-0.410633 -0.156633,-0.2667 -0.156633,-0.601133 0,-0.334433 0.156633,-0.5969 0.156633,-0.262466 0.4318,-0.410632 0.2794,-0.148167 0.634999,-0.148167 0.334433,0 0.5842,0.135467 0.254,0.135466 0.381,0.389466 l -0.4064,0.237066 q -0.09737,-0.156633 -0.245533,-0.232833 -0.143933,-0.08043 -0.3175,-0.08043 -0.296333,0 -0.491066,0.194733 -0.194733,0.1905 -0.194733,0.512233 0,0.321733 0.190499,0.516466 0.194734,0.1905 0.4953,0.1905 0.173567,0 0.3175,-0.0762 0.148166,-0.08043 0.245533,-0.237066 l 0.4064,0.237066 q -0.131234,0.254 -0.385233,0.3937 -0.249767,0.135466 -0.579967,0.135466 z"
           id="path3678" />
        <path
           d="m 62.345949,24.614551 q -0.09313,0.0762 -0.2286,0.1143 -0.131233,0.0381 -0.279399,0.0381 -0.372533,0 -0.575733,-0.194733 -0.2032,-0.194733 -0.2032,-0.567266 v -1.087966 h -0.372533 v -0.423333 h 0.372533 v -0.516466 h 0.529166 v 0.516466 h 0.605366 v 0.423333 h -0.605366 v 1.075266 q 0,0.1651 0.08043,0.254 0.08043,0.08467 0.232833,0.08467 0.177799,0 0.296333,-0.09313 z"
           id="path3680" />
      </g>
      <path
         style="color:#000000;fill:#000000;-inkscape-stroke:none"
         d="m 46.140625,19.720703 v 0.201172 7.390625 h 18.205078 v -7.591797 z m 0.398437,0.400391 h 17.40625 v 6.792968 h -17.40625 z"
         id="rect2734" />
    </g>
    <g
       id="g2830"
       transform="translate(-87.082741,52.630116)">
      <g
         aria-label="User Class 2"
         id="text844-3-3"
         style="font-weight:600;font-size:4.23333px;font-family:Montserrat;-inkscape-font-specification:'Montserrat Semi-Bold';letter-spacing:0px;word-spacing:0px;stroke-width:0">
        <path
           d="m 132.73152,25.163774 q -0.61383,0 -0.95673,-0.3429 -0.3429,-0.347133 -0.3429,-0.990599 V 22.15811 h 0.55033 v 1.650999 q 0,0.872066 0.75354,0.872066 0.74929,0 0.74929,-0.872066 V 22.15811 h 0.54187 v 1.672165 q 0,0.643466 -0.3429,0.990599 -0.33867,0.3429 -0.9525,0.3429 z"
           id="path3699" />
        <path
           d="m 135.44508,25.151074 q -0.27516,0 -0.53763,-0.07197 -0.26246,-0.07197 -0.4191,-0.182034 l 0.2032,-0.402166 q 0.1524,0.1016 0.36407,0.1651 0.2159,0.05927 0.42333,0.05927 0.47413,0 0.47413,-0.249767 0,-0.118533 -0.12276,-0.1651 -0.11854,-0.04657 -0.38524,-0.0889 -0.2794,-0.04233 -0.4572,-0.09737 -0.17356,-0.05503 -0.30479,-0.1905 -0.127,-0.1397 -0.127,-0.385233 0,-0.321733 0.26669,-0.512233 0.27094,-0.194733 0.72814,-0.194733 0.23283,0 0.46566,0.05503 0.23284,0.0508 0.381,0.1397 l -0.2032,0.402166 q -0.28786,-0.169333 -0.6477,-0.169333 -0.23283,0 -0.3556,0.07197 -0.11853,0.06773 -0.11853,0.182033 0,0.127 0.127,0.182033 0.13123,0.0508 0.40217,0.09737 0.27093,0.04233 0.4445,0.09737 0.17356,0.05503 0.29633,0.186267 0.127,0.131233 0.127,0.372533 0,0.3175 -0.27517,0.507999 -0.27516,0.1905 -0.7493,0.1905 z"
           id="path3701" />
        <path
           d="m 139.05188,24.003842 q 0,0.05503 -0.008,0.156633 h -1.77376 q 0.0466,0.249766 0.2413,0.397933 0.19896,0.143933 0.49106,0.143933 0.37254,0 0.61384,-0.245533 l 0.28363,0.325967 q -0.1524,0.182033 -0.38523,0.275166 -0.23284,0.09313 -0.52494,0.09313 -0.37253,0 -0.65616,-0.148166 -0.28364,-0.148167 -0.44027,-0.410633 -0.1524,-0.2667 -0.1524,-0.601133 0,-0.3302 0.14817,-0.592666 0.1524,-0.2667 0.4191,-0.414867 0.2667,-0.148166 0.60113,-0.148166 0.3302,0 0.58843,0.148166 0.26247,0.143934 0.4064,0.410633 0.14817,0.262467 0.14817,0.6096 z m -1.143,-0.745066 q -0.254,0 -0.4318,0.1524 -0.17357,0.148166 -0.21167,0.397933 h 1.2827 q -0.0339,-0.245533 -0.20743,-0.397933 -0.17357,-0.1524 -0.4318,-0.1524 z"
           id="path3703" />
        <path
           d="m 140.06364,23.191043 q 0.2286,-0.3556 0.80434,-0.3556 v 0.503766 q -0.0677,-0.0127 -0.12277,-0.0127 -0.30903,0 -0.4826,0.182033 -0.17357,0.1778 -0.17357,0.516466 v 1.096433 h -0.52916 v -2.260598 h 0.50376 z"
           id="path3705" />
        <path
           d="m 143.92867,25.163774 q -0.44873,0 -0.8128,-0.194733 -0.35983,-0.198966 -0.56727,-0.5461 -0.2032,-0.347133 -0.2032,-0.783166 0,-0.436032 0.20744,-0.783166 0.20743,-0.347133 0.56726,-0.541866 0.36407,-0.198966 0.8128,-0.198966 0.36407,0 0.66464,0.127 0.30056,0.127 0.508,0.368299 l -0.3556,0.334433 q -0.32174,-0.347133 -0.79164,-0.347133 -0.3048,0 -0.5461,0.135467 -0.2413,0.131233 -0.37676,0.3683 -0.13547,0.237066 -0.13547,0.537632 0,0.300567 0.13547,0.537633 0.13546,0.237067 0.37676,0.372533 0.2413,0.131234 0.5461,0.131234 0.4699,0 0.79164,-0.351367 l 0.3556,0.338667 q -0.20744,0.241299 -0.51224,0.368299 -0.30056,0.127 -0.66463,0.127 z"
           id="path3707" />
        <path
           d="m 145.5839,21.98031 h 0.52917 v 3.141131 h -0.52917 z"
           id="path3709" />
        <path
           d="m 147.67093,22.835443 q 0.49953,0 0.762,0.2413 0.2667,0.237066 0.2667,0.719666 v 1.325032 h -0.49953 v -0.275167 q -0.0974,0.148167 -0.2794,0.2286 -0.1778,0.0762 -0.4318,0.0762 -0.254,0 -0.4445,-0.08467 -0.1905,-0.0889 -0.29634,-0.2413 -0.1016,-0.156633 -0.1016,-0.351367 0,-0.304799 0.22437,-0.486832 0.2286,-0.186267 0.71543,-0.186267 h 0.5842 v -0.03387 q 0,-0.237066 -0.14393,-0.364066 -0.1397,-0.127 -0.4191,-0.127 -0.1905,0 -0.37677,0.05927 -0.18203,0.05927 -0.30903,0.1651 l -0.20743,-0.385233 q 0.1778,-0.135467 0.42756,-0.207434 0.24977,-0.07197 0.52917,-0.07197 z m -0.072,1.930398 q 0.19897,0 0.35137,-0.0889 0.15663,-0.09313 0.22013,-0.262466 v -0.262467 h -0.5461 q -0.4572,0 -0.4572,0.300567 0,0.143933 0.1143,0.2286 0.1143,0.08467 0.3175,0.08467 z"
           id="path3711" />
        <path
           d="m 150.07546,25.151074 q -0.27516,0 -0.53763,-0.07197 -0.26247,-0.07197 -0.4191,-0.182034 l 0.2032,-0.402166 q 0.1524,0.1016 0.36407,0.1651 0.21589,0.05927 0.42333,0.05927 0.47413,0 0.47413,-0.249767 0,-0.118533 -0.12277,-0.1651 -0.11853,-0.04657 -0.38523,-0.0889 -0.2794,-0.04233 -0.4572,-0.09737 -0.17356,-0.05503 -0.3048,-0.1905 -0.127,-0.1397 -0.127,-0.385233 0,-0.321733 0.2667,-0.512233 0.27094,-0.194733 0.72813,-0.194733 0.23284,0 0.46567,0.05503 0.23283,0.0508 0.381,0.1397 l -0.2032,0.402166 q -0.28787,-0.169333 -0.6477,-0.169333 -0.23283,0 -0.3556,0.07197 -0.11853,0.06773 -0.11853,0.182033 0,0.127 0.127,0.182033 0.13123,0.0508 0.40216,0.09737 0.27094,0.04233 0.4445,0.09737 0.17357,0.05503 0.29634,0.186267 0.127,0.131233 0.127,0.372533 0,0.3175 -0.27517,0.507999 -0.27517,0.1905 -0.7493,0.1905 z"
           id="path3713" />
        <path
           d="m 152.25562,25.151074 q -0.27516,0 -0.53763,-0.07197 -0.26247,-0.07197 -0.4191,-0.182034 l 0.2032,-0.402166 q 0.1524,0.1016 0.36407,0.1651 0.2159,0.05927 0.42333,0.05927 0.47413,0 0.47413,-0.249767 0,-0.118533 -0.12276,-0.1651 -0.11854,-0.04657 -0.38524,-0.0889 -0.2794,-0.04233 -0.4572,-0.09737 -0.17356,-0.05503 -0.3048,-0.1905 -0.127,-0.1397 -0.127,-0.385233 0,-0.321733 0.2667,-0.512233 0.27094,-0.194733 0.72814,-0.194733 0.23283,0 0.46566,0.05503 0.23284,0.0508 0.381,0.1397 l -0.2032,0.402166 q -0.28786,-0.169333 -0.6477,-0.169333 -0.23283,0 -0.3556,0.07197 -0.11853,0.06773 -0.11853,0.182033 0,0.127 0.127,0.182033 0.13123,0.0508 0.40217,0.09737 0.27093,0.04233 0.4445,0.09737 0.17356,0.05503 0.29633,0.186267 0.127,0.131233 0.127,0.372533 0,0.3175 -0.27517,0.507999 -0.27516,0.1905 -0.7493,0.1905 z"
           id="path3715" />
        <path
           d="m 156.89111,24.655775 v 0.465666 h -2.1844 v -0.3683 l 1.17687,-1.117599 q 0.19897,-0.1905 0.2667,-0.3302 0.072,-0.143933 0.072,-0.283633 0,-0.207433 -0.1397,-0.317499 -0.1397,-0.110067 -0.41064,-0.110067 -0.45296,0 -0.69426,0.309033 l -0.38524,-0.296333 q 0.17357,-0.232833 0.46567,-0.359833 0.29633,-0.131233 0.6604,-0.131233 0.4826,0 0.77047,0.2286 0.28786,0.228599 0.28786,0.622299 0,0.2413 -0.1016,0.452966 -0.1016,0.211667 -0.38946,0.4826 l -0.79164,0.753533 z"
           id="path3717" />
      </g>
      <path
         style="color:#000000;fill:#000000;-inkscape-stroke:none"
         d="m 129.70117,20.238281 v 0.199219 6.585937 h 29.07227 v -6.785156 z m 0.40039,0.400391 h 28.27149 v 5.984375 h -28.27149 z"
         id="rect2734-2" />
    </g>
    <g
       id="g2825"
       transform="translate(-5.0413207,52.200476)">
      <g
         aria-label="User Class 1"
         id="text844-3"
         style="font-weight:600;font-size:4.23333px;font-family:Montserrat;-inkscape-font-specification:'Montserrat Semi-Bold';letter-spacing:0px;word-spacing:0px;stroke-width:0">
        <path
           d="m 87.965943,25.472854 q -0.613833,0 -0.956733,-0.342899 -0.3429,-0.347133 -0.3429,-0.9906 V 22.46719 h 0.550333 v 1.650999 q 0,0.872066 0.753533,0.872066 0.749299,0 0.749299,-0.872066 V 22.46719 h 0.541867 v 1.672165 q 0,0.643467 -0.3429,0.9906 -0.338666,0.342899 -0.952499,0.342899 z"
           id="path3744" />
        <path
           d="m 90.679505,25.460154 q -0.275166,0 -0.537633,-0.07197 -0.262466,-0.07197 -0.419099,-0.182033 l 0.2032,-0.402167 q 0.152399,0.1016 0.364066,0.1651 0.2159,0.05927 0.423333,0.05927 0.474133,0 0.474133,-0.249767 0,-0.118533 -0.122767,-0.1651 -0.118533,-0.04657 -0.385233,-0.0889 -0.2794,-0.04233 -0.457199,-0.09737 -0.173567,-0.05503 -0.3048,-0.1905 -0.127,-0.1397 -0.127,-0.385233 0,-0.321733 0.2667,-0.512233 0.270933,-0.194733 0.728132,-0.194733 0.232834,0 0.465667,0.05503 0.232833,0.0508 0.380999,0.1397 l -0.203199,0.402166 q -0.287867,-0.169333 -0.6477,-0.169333 -0.232833,0 -0.3556,0.07197 -0.118533,0.06773 -0.118533,0.182033 0,0.127 0.127,0.182033 0.131233,0.0508 0.402166,0.09737 0.270934,0.04233 0.4445,0.09737 0.173567,0.05503 0.296333,0.186267 0.127,0.131233 0.127,0.372533 0,0.3175 -0.275166,0.507999 -0.275167,0.1905 -0.7493,0.1905 z"
           id="path3746" />
        <path
           d="m 94.2863,24.312922 q 0,0.05503 -0.0085,0.156633 h -1.773765 q 0.04657,0.249767 0.241299,0.397933 0.198967,0.143933 0.491067,0.143933 0.372533,0 0.613833,-0.245533 l 0.283633,0.325967 q -0.1524,0.182033 -0.385233,0.275166 -0.232833,0.09313 -0.524933,0.09313 -0.372533,0 -0.656166,-0.148166 -0.283633,-0.148167 -0.440267,-0.410633 -0.1524,-0.2667 -0.1524,-0.601133 0,-0.3302 0.148167,-0.592666 0.1524,-0.2667 0.4191,-0.414867 0.266699,-0.148166 0.601132,-0.148166 0.3302,0 0.588433,0.148166 0.262467,0.143934 0.4064,0.410633 0.148167,0.262467 0.148167,0.6096 z m -1.143,-0.745066 q -0.253999,0 -0.431799,0.1524 -0.173567,0.148166 -0.211667,0.397933 h 1.282699 q -0.03387,-0.245533 -0.207433,-0.397933 -0.173566,-0.1524 -0.4318,-0.1524 z"
           id="path3748" />
        <path
           d="m 95.298064,23.500123 q 0.2286,-0.3556 0.804332,-0.3556 v 0.503766 q -0.06773,-0.0127 -0.122766,-0.0127 -0.309033,0 -0.4826,0.182033 -0.173566,0.1778 -0.173566,0.516467 v 1.096432 h -0.529166 v -2.260598 h 0.503766 z"
           id="path3750" />
        <path
           d="m 99.16309,25.472854 q -0.448733,0 -0.812799,-0.194733 -0.359833,-0.198966 -0.567266,-0.546099 -0.2032,-0.347133 -0.2032,-0.783166 0,-0.436033 0.207433,-0.783166 0.207433,-0.347133 0.567266,-0.541867 0.364067,-0.198966 0.8128,-0.198966 0.364066,0 0.664632,0.127 0.300564,0.127 0.508004,0.368299 l -0.355604,0.334434 q -0.321733,-0.347134 -0.791632,-0.347134 -0.3048,0 -0.5461,0.135467 -0.2413,0.131233 -0.376766,0.3683 -0.135467,0.237066 -0.135467,0.537633 0,0.300566 0.135467,0.537632 0.135466,0.237067 0.376766,0.372533 0.2413,0.131234 0.5461,0.131234 0.469899,0 0.791632,-0.351367 l 0.355604,0.338667 q -0.20744,0.2413 -0.512237,0.368299 -0.300566,0.127 -0.664633,0.127 z"
           id="path3752" />
        <path
           d="m 100.81832,22.28939 h 0.52917 v 3.141131 h -0.52917 z"
           id="path3754" />
        <path
           d="m 102.90535,23.144523 q 0.49953,0 0.762,0.2413 0.2667,0.237066 0.2667,0.719666 v 1.325032 h -0.49953 v -0.275166 q -0.0974,0.148166 -0.2794,0.228599 -0.1778,0.0762 -0.4318,0.0762 -0.254,0 -0.4445,-0.08467 -0.1905,-0.0889 -0.29634,-0.2413 -0.1016,-0.156633 -0.1016,-0.351366 0,-0.3048 0.22437,-0.486833 0.2286,-0.186267 0.71543,-0.186267 h 0.5842 v -0.03387 q 0,-0.237066 -0.14393,-0.364066 -0.1397,-0.127 -0.4191,-0.127 -0.1905,0 -0.37677,0.05927 -0.18203,0.05927 -0.30903,0.1651 l -0.20743,-0.385233 q 0.1778,-0.135467 0.42756,-0.207433 0.24977,-0.07197 0.52917,-0.07197 z m -0.072,1.930398 q 0.19897,0 0.35137,-0.0889 0.15663,-0.09313 0.22013,-0.262466 v -0.262467 h -0.5461 q -0.4572,0 -0.4572,0.300567 0,0.143933 0.1143,0.2286 0.1143,0.08467 0.3175,0.08467 z"
           id="path3756" />
        <path
           d="m 105.30988,25.460154 q -0.27516,0 -0.53763,-0.07197 -0.26247,-0.07197 -0.4191,-0.182033 l 0.2032,-0.402167 q 0.1524,0.1016 0.36407,0.1651 0.2159,0.05927 0.42333,0.05927 0.47413,0 0.47413,-0.249767 0,-0.118533 -0.12276,-0.1651 -0.11854,-0.04657 -0.38524,-0.0889 -0.2794,-0.04233 -0.4572,-0.09737 -0.17356,-0.05503 -0.3048,-0.1905 -0.127,-0.1397 -0.127,-0.385233 0,-0.321733 0.2667,-0.512233 0.27094,-0.194733 0.72814,-0.194733 0.23283,0 0.46566,0.05503 0.23283,0.0508 0.381,0.1397 l -0.2032,0.402166 q -0.28786,-0.169333 -0.6477,-0.169333 -0.23283,0 -0.3556,0.07197 -0.11853,0.06773 -0.11853,0.182033 0,0.127 0.127,0.182033 0.13123,0.0508 0.40217,0.09737 0.27093,0.04233 0.4445,0.09737 0.17356,0.05503 0.29633,0.186267 0.127,0.131233 0.127,0.372533 0,0.3175 -0.27517,0.507999 -0.27516,0.1905 -0.7493,0.1905 z"
           id="path3758" />
        <path
           d="m 107.49004,25.460154 q -0.27516,0 -0.53763,-0.07197 -0.26246,-0.07197 -0.4191,-0.182033 l 0.2032,-0.402167 q 0.1524,0.1016 0.36407,0.1651 0.2159,0.05927 0.42333,0.05927 0.47413,0 0.47413,-0.249767 0,-0.118533 -0.12276,-0.1651 -0.11854,-0.04657 -0.38524,-0.0889 -0.2794,-0.04233 -0.45719,-0.09737 -0.17357,-0.05503 -0.3048,-0.1905 -0.127,-0.1397 -0.127,-0.385233 0,-0.321733 0.2667,-0.512233 0.27093,-0.194733 0.72813,-0.194733 0.23283,0 0.46566,0.05503 0.23284,0.0508 0.381,0.1397 l -0.2032,0.402166 q -0.28786,-0.169333 -0.6477,-0.169333 -0.23283,0 -0.3556,0.07197 -0.11853,0.06773 -0.11853,0.182033 0,0.127 0.127,0.182033 0.13123,0.0508 0.40217,0.09737 0.27093,0.04233 0.4445,0.09737 0.17356,0.05503 0.29633,0.186267 0.127,0.131233 0.127,0.372533 0,0.3175 -0.27517,0.507999 -0.27516,0.1905 -0.7493,0.1905 z"
           id="path3760" />
        <path
           d="m 111.0037,22.46719 v 2.963331 h -0.55033 v -2.501898 h -0.62653 V 22.46719 Z"
           id="path3762" />
      </g>
      <path
         style="color:#000000;fill:#000000;-inkscape-stroke:none"
         d="m 85.001953,20.625 v 0.201172 6.667969 H 112.84766 V 20.625 Z m 0.400391,0.400391 H 112.44727 V 27.09375 H 85.402344 Z"
         id="rect2734-3" />
    </g>
    <g
       id="path2886">
      <path
         style="color:#000000;fill:#000000;-inkscape-stroke:none"
         d="m 78.136719,76.060547 -6.646485,0.0098 0.002,0.400391 6.644532,-0.0098 z"
         id="path3799" />
      <g
         id="g3791">
        <path
           style="color:#000000;fill:#000000;fill-rule:evenodd;-inkscape-stroke:none"
           d="m 77.757812,74.914062 0.0039,2.69336 2.328125,-1.34961 -0.300782,-0.171875 z m 0.400391,0.691407 1.132813,0.654297 -1.128907,0.654296 z"
           id="path3793" />
      </g>
    </g>
    <g
       id="path2886-2">
      <path
         style="color:#000000;fill:#000000;-inkscape-stroke:none"
         d="m 117.03516,76.060547 -9.42969,0.0098 v 0.400391 l 9.43164,-0.0098 z"
         id="path3811" />
      <g
         id="g3803">
        <path
           style="color:#000000;fill:#000000;fill-rule:evenodd;-inkscape-stroke:none"
           d="m 116.6582,74.914062 0.004,2.69336 2.32812,-1.34961 -0.30078,-0.171875 z m 0.40039,0.691407 1.13282,0.654297 -1.13086,0.654296 z"
           id="path3805" />
      </g>
    </g>
    <g
       id="g574">
      <g
         id="rect394">
        <path
           style="color:#000000;fill:#97afe6;stroke-width:0.4;-inkscape-stroke:none"
           d="m 22.377537,57.248085 h 42.77227 v 8.659073 h -42.77227 z"
           id="path3815" />
        <path
           style="color:#000000;fill:#000000;-inkscape-stroke:none"
           d="m 22.177734,57.048828 v 0.199219 8.859375 h 43.171875 v -9.058594 z m 0.400391,0.398438 h 42.371094 v 8.259765 H 22.578125 Z"
           id="path3817" />
      </g>
      <g
         aria-label=".save_object(file)"
         id="text1023"
         style="font-size:3.52778px;font-family:Hack;-inkscape-font-specification:Hack;text-align:center;text-anchor:middle;stroke-width:0.4">
        <path
           d="m 25.678564,62.635628 q -0.117133,0 -0.198093,-0.08096 -0.08096,-0.08096 -0.08096,-0.210151 0,-0.129191 0.08096,-0.210151 0.08096,-0.08096 0.198093,-0.08096 0.117133,0 0.198093,0.08096 0.08096,0.08096 0.08096,0.210151 0,0.129191 -0.08096,0.210151 -0.08096,0.08096 -0.198093,0.08096 z"
           id="path3819" />
        <path
           d="m 27.761126,62.639073 q -0.275608,0 -0.647679,-0.120579 V 62.19121 q 0.361736,0.18259 0.644234,0.18259 0.201538,0 0.322116,-0.08441 0.120579,-0.0844 0.120579,-0.225653 0,-0.122301 -0.101631,-0.196371 -0.09991,-0.07579 -0.320394,-0.122301 l -0.132636,-0.02756 q -0.272163,-0.05512 -0.399631,-0.180867 -0.125746,-0.127469 -0.125746,-0.346233 0,-0.27733 0.18948,-0.427192 0.18948,-0.149862 0.539158,-0.149862 0.296278,0 0.573608,0.113689 v 0.310058 q -0.27044,-0.158474 -0.564996,-0.158474 -0.416856,0 -0.416856,0.284221 0,0.09302 0.03617,0.148139 0.03617,0.0534 0.137804,0.09129 0.10163,0.03617 0.299724,0.07579 l 0.127468,0.02412 q 0.478869,0.09474 0.478869,0.521932 0,0.285943 -0.203261,0.451308 -0.203261,0.163642 -0.556383,0.163642 z"
           id="path3821" />
        <path
           d="m 29.747225,62.639073 q -0.279053,0 -0.461644,-0.160197 -0.180867,-0.16192 -0.180867,-0.463366 0,-0.249769 0.120578,-0.389296 0.120579,-0.141249 0.315227,-0.198093 0.194648,-0.05684 0.415134,-0.05684 h 0.42547 v -0.04995 q 0,-0.246324 -0.125747,-0.342787 -0.124023,-0.09646 -0.349677,-0.09646 -0.1757,0 -0.34451,0.04823 -0.168809,0.04823 -0.315226,0.134359 v -0.316949 q 0.158474,-0.05857 0.320394,-0.09646 0.16192,-0.0379 0.330729,-0.0379 0.172255,0 0.334175,0.04823 0.163642,0.04651 0.282498,0.155029 0.118856,0.106798 0.158474,0.287666 0.02756,0.127468 0.02756,0.384128 v 0.394464 q 0,0.16192 0.01723,0.35829 0.01895,0.196371 0.0844,0.347955 h -0.318671 q -0.02928,-0.06718 -0.04651,-0.142972 -0.01722,-0.07751 -0.02756,-0.149861 -0.10163,0.173977 -0.282498,0.258382 -0.179145,0.08441 -0.37896,0.08441 z m 0.07751,-0.265273 q 0.196371,0 0.318672,-0.09646 0.124023,-0.09646 0.180867,-0.251493 0.05684,-0.156751 0.05684,-0.335897 V 61.61933 H 29.97976 q -0.134359,0 -0.26355,0.03101 -0.127469,0.02928 -0.211874,0.113688 -0.08268,0.0844 -0.08268,0.246325 0,0.18259 0.111966,0.273885 0.111965,0.08957 0.29111,0.08957 z"
           id="path3823" />
        <path
           d="m 31.166605,60.659864 h 0.329007 l 0.559828,1.619196 0.561551,-1.619196 h 0.329007 l -0.685575,1.929255 h -0.408244 z"
           id="path3825" />
        <path
           d="m 34.286141,62.639073 q -0.44614,0 -0.701077,-0.266995 -0.253215,-0.268718 -0.253215,-0.732083 0,-0.287666 0.09991,-0.52021 0.10163,-0.232544 0.299723,-0.368626 0.199816,-0.137804 0.492649,-0.137804 0.385851,0 0.597725,0.248047 0.213596,0.246325 0.213596,0.683852 v 0.15503 H 33.66258 v 0.01033 q 0,0.301446 0.158475,0.480591 0.158474,0.179145 0.468533,0.179145 0.179145,0 0.346232,-0.05684 0.16881,-0.05684 0.325562,-0.137804 v 0.315227 q -0.163642,0.06718 -0.332452,0.106798 -0.167087,0.04134 -0.342787,0.04134 z m 0.43236,-1.186836 q 0,-0.160197 -0.04823,-0.289388 -0.04823,-0.129192 -0.155029,-0.204984 -0.105076,-0.07579 -0.279053,-0.07579 -0.1757,0 -0.294556,0.07751 -0.117133,0.07579 -0.184313,0.204983 -0.06546,0.129191 -0.08268,0.287666 z"
           id="path3827" />
        <path
           d="m 35.404076,62.916403 h 1.798341 v 0.206706 h -1.798341 z"
           id="path3829" />
        <path
           d="m 38.430594,62.639073 q -0.403077,0 -0.616673,-0.260105 -0.211873,-0.261827 -0.211873,-0.751031 0,-0.490927 0.213596,-0.752754 0.213596,-0.261828 0.613227,-0.261828 0.399631,0 0.611505,0.261828 0.213596,0.260105 0.213596,0.754476 0,0.490927 -0.211874,0.751032 -0.211873,0.258382 -0.611504,0.258382 z m -0.0017,-0.268718 q 0.235989,0 0.361735,-0.192925 0.127469,-0.192926 0.127469,-0.552938 0,-0.358291 -0.127469,-0.549493 -0.125746,-0.192926 -0.361735,-0.192926 -0.237712,0 -0.36518,0.192926 -0.125746,0.191202 -0.125746,0.549493 0,0.360012 0.127468,0.552938 0.127469,0.192925 0.363458,0.192925 z"
           id="path3831" />
        <path
           d="m 40.669907,62.639073 q -0.365181,0 -0.530545,-0.292833 l -0.03101,0.242879 h -0.285943 v -2.680286 h 0.316949 v 0.997356 q 0.07924,-0.149862 0.218763,-0.220487 0.139527,-0.07235 0.313504,-0.07235 0.206706,0 0.347955,0.08957 0.141249,0.08785 0.225654,0.235989 0.08613,0.146417 0.122301,0.325562 0.0379,0.179145 0.0379,0.35829 0,0.180868 -0.0379,0.361735 -0.0379,0.179145 -0.124024,0.327285 -0.0844,0.148139 -0.225653,0.237711 -0.141249,0.08957 -0.347955,0.08957 z m -0.06374,-0.268718 q 0.151585,0 0.24288,-0.07062 0.09302,-0.07062 0.139526,-0.184313 0.04823,-0.113688 0.06546,-0.242879 0.01723,-0.129192 0.01723,-0.246325 0,-0.117133 -0.01723,-0.246324 -0.01722,-0.130914 -0.06546,-0.24288 -0.04651,-0.113688 -0.139526,-0.184312 -0.0913,-0.07062 -0.24288,-0.07062 -0.149861,0 -0.242879,0.07062 -0.09129,0.07062 -0.141249,0.18259 -0.04823,0.111965 -0.06546,0.242879 -0.01723,0.129191 -0.01723,0.246325 0,0.118855 0.01723,0.249769 0.01723,0.129191 0.06546,0.24288 0.04995,0.111965 0.141249,0.18259 0.09302,0.07062 0.242879,0.07062 z"
           id="path3833" />
        <path
           d="m 42.736966,60.310187 q -0.05168,0 -0.05168,-0.05168 v -0.298001 q 0,-0.05168 0.05168,-0.05168 h 0.248047 q 0.05168,0 0.05168,0.05168 v 0.298001 q 0,0.05168 -0.05168,0.05168 z m -0.713135,2.74402 h 0.403076 q 0.310059,0 0.310059,-0.430637 v -1.717381 h -0.546048 v -0.246325 h 0.862997 v 1.963706 q 0,0.334174 -0.15503,0.516765 -0.155029,0.18259 -0.437527,0.18259 h -0.437527 z"
           id="path3835" />
        <path
           d="m 44.905655,62.639073 q -0.44614,0 -0.701077,-0.266995 -0.253215,-0.268718 -0.253215,-0.732083 0,-0.287666 0.09991,-0.52021 0.101631,-0.232544 0.299724,-0.368626 0.199815,-0.137804 0.492649,-0.137804 0.385851,0 0.597724,0.248047 0.213596,0.246325 0.213596,0.683852 v 0.15503 h -1.372871 v 0.01033 q 0,0.301446 0.158474,0.480591 0.158475,0.179145 0.468533,0.179145 0.179146,0 0.346233,-0.05684 0.16881,-0.05684 0.325562,-0.137804 v 0.315227 q -0.163643,0.06718 -0.332452,0.106798 -0.167088,0.04134 -0.342788,0.04134 z m 0.43236,-1.186836 q 0,-0.160197 -0.04823,-0.289388 -0.04823,-0.129192 -0.15503,-0.204984 -0.105075,-0.07579 -0.279053,-0.07579 -0.1757,0 -0.294555,0.07751 -0.117134,0.07579 -0.184313,0.204983 -0.06546,0.129191 -0.08268,0.287666 z"
           id="path3837" />
        <path
           d="m 47.076067,62.639073 q -0.304891,0 -0.513319,-0.127469 -0.206706,-0.129191 -0.313504,-0.35829 -0.105075,-0.229099 -0.105075,-0.5271 0,-0.299723 0.106798,-0.5271 0.106798,-0.229099 0.315226,-0.356567 0.208428,-0.129192 0.516765,-0.129192 0.160197,0 0.289388,0.0379 0.129191,0.03617 0.26355,0.110244 v 0.332452 q -0.122301,-0.108521 -0.246325,-0.160197 -0.122301,-0.05168 -0.279053,-0.05168 -0.232544,0 -0.37207,0.09991 -0.137804,0.09991 -0.199816,0.268717 -0.06029,0.16881 -0.06029,0.375516 0,0.204983 0.06201,0.375516 0.06201,0.16881 0.199815,0.268717 0.137804,0.09991 0.368626,0.09991 0.151584,0 0.282498,-0.04995 0.130914,-0.04995 0.244602,-0.158474 v 0.329007 q -0.246325,0.148139 -0.559829,0.148139 z"
           id="path3839" />
        <path
           d="m 49.375669,62.596009 q -0.354845,0 -0.502984,-0.142971 -0.146417,-0.144695 -0.146417,-0.492649 v -1.0542 h -0.515042 v -0.246325 h 0.515042 v -0.504707 l 0.316949,-0.137803 v 0.64251 h 0.720025 v 0.246325 h -0.720025 v 1.0542 q 0,0.211873 0.08096,0.298001 0.08096,0.0844 0.282498,0.0844 h 0.356567 v 0.253215 z"
           id="path3841" />
        <path
           d="m 51.134392,63.054207 q -0.26355,-0.418579 -0.387574,-0.799263 -0.127468,-0.392741 -0.127468,-0.773424 0,-0.377238 0.127468,-0.773424 0.06546,-0.198094 0.160197,-0.392742 0.09474,-0.19637 0.227377,-0.403076 H 51.41 q -0.122301,0.208428 -0.204984,0.399631 -0.08096,0.189481 -0.136081,0.382406 -0.113688,0.396186 -0.113688,0.787205 0,0.782037 0.454753,1.572687 z"
           id="path3843" />
        <path
           d="m 53.036086,60.906189 h -0.515042 v -0.246325 h 0.515042 v -0.134359 q 0,-0.316949 0.144694,-0.46681 0.146417,-0.149862 0.454753,-0.149862 h 0.380684 v 0.26355 h -0.360013 q -0.16881,0 -0.235989,0.07062 -0.06718,0.0689 -0.06718,0.246325 v 0.170532 h 0.663182 v 0.246325 h -0.663182 v 1.68293 h -0.316949 z"
           id="path3845" />
        <path
           d="m 55.258173,60.310187 q -0.05168,0 -0.05168,-0.05168 v -0.298001 q 0,-0.05168 0.05168,-0.05168 h 0.248047 q 0.05168,0 0.05168,0.05168 v 0.298001 q 0,0.05168 -0.05168,0.05168 z m 0.578776,2.292712 q -0.28422,0 -0.440972,-0.18259 -0.15503,-0.184313 -0.15503,-0.516764 v -0.995634 h -0.422024 v -0.248047 h 0.738973 v 1.243681 q 0,0.21015 0.07924,0.320394 0.07924,0.110243 0.230821,0.110243 h 0.370348 v 0.268717 z"
           id="path3847" />
        <path
           d="m 57.895396,62.602899 q -0.284221,0 -0.440973,-0.18259 -0.155029,-0.184313 -0.155029,-0.516764 V 60.15688 h -0.508152 v -0.248047 h 0.825101 v 1.994712 q 0,0.21015 0.07924,0.320394 0.07924,0.110243 0.230822,0.110243 h 0.370348 v 0.268717 z"
           id="path3849" />
        <path
           d="m 59.772975,62.639073 q -0.446141,0 -0.701078,-0.266995 -0.253215,-0.268718 -0.253215,-0.732083 0,-0.287666 0.09991,-0.52021 0.101631,-0.232544 0.299724,-0.368626 0.199815,-0.137804 0.492649,-0.137804 0.385851,0 0.597724,0.248047 0.213596,0.246325 0.213596,0.683852 v 0.15503 h -1.372871 v 0.01033 q 0,0.301446 0.158474,0.480591 0.158475,0.179145 0.468534,0.179145 0.179145,0 0.346232,-0.05684 0.16881,-0.05684 0.325562,-0.137804 v 0.315227 q -0.163642,0.06718 -0.332452,0.106798 -0.167088,0.04134 -0.342787,0.04134 z m 0.432359,-1.186836 q 0,-0.160197 -0.04823,-0.289388 -0.04823,-0.129192 -0.155029,-0.204984 -0.105076,-0.07579 -0.279053,-0.07579 -0.1757,0 -0.294556,0.07751 -0.117134,0.07579 -0.184313,0.204983 -0.06546,0.129191 -0.08268,0.287666 z"
           id="path3851" />
        <path
           d="m 61.552366,63.054207 q 0.225654,-0.394464 0.342787,-0.79065 0.0534,-0.184313 0.08268,-0.382406 0.02928,-0.198093 0.02928,-0.399631 0,-0.396186 -0.111966,-0.78376 -0.0534,-0.184312 -0.139526,-0.382406 -0.0844,-0.198093 -0.203261,-0.403076 h 0.275608 q 0.26355,0.408244 0.387573,0.795818 0.127469,0.396186 0.127469,0.773424 0,0.380683 -0.127469,0.77687 -0.125746,0.389296 -0.387573,0.795817 z"
           id="path3853" />
      </g>
    </g>
    <g
       id="g579">
      <g
         id="rect394-2">
        <path
           style="color:#000000;fill:#a1e697;stroke-width:0.4;-inkscape-stroke:none"
           d="m 75.155914,57.248081 h 52.254406 v 8.659073 H 75.155914 Z"
           id="path3894" />
        <path
           style="color:#000000;fill:#000000;-inkscape-stroke:none"
           d="m 74.955078,57.048828 v 0.199219 8.859375 h 52.654302 v -9.058594 z m 0.400391,0.398438 h 51.855471 v 8.259765 H 75.355469 Z"
           id="path3896" />
      </g>
      <g
         aria-label=".save_object_imp(file)"
         id="text1023-3"
         style="font-size:3.52778px;font-family:Hack;-inkscape-font-specification:Hack;text-align:center;text-anchor:middle;stroke-width:0.4">
        <path
           d="m 79.512702,62.635624 q -0.117133,0 -0.198093,-0.08096 -0.08096,-0.08096 -0.08096,-0.210151 0,-0.129191 0.08096,-0.210151 0.08096,-0.08096 0.198093,-0.08096 0.117133,0 0.198093,0.08096 0.08096,0.08096 0.08096,0.210151 0,0.129191 -0.08096,0.210151 -0.08096,0.08096 -0.198093,0.08096 z"
           id="path3898" />
        <path
           d="m 81.595264,62.639069 q -0.275608,0 -0.647679,-0.120578 v -0.327285 q 0.361736,0.182591 0.644234,0.182591 0.201538,0 0.322116,-0.08441 0.120579,-0.0844 0.120579,-0.225654 0,-0.122301 -0.101631,-0.196371 -0.09991,-0.07579 -0.320394,-0.122301 l -0.132636,-0.02756 q -0.272163,-0.05512 -0.399631,-0.180867 -0.125746,-0.127469 -0.125746,-0.346233 0,-0.27733 0.18948,-0.427192 0.18948,-0.149861 0.539158,-0.149861 0.296278,0 0.573608,0.113688 v 0.310059 q -0.27044,-0.158475 -0.564996,-0.158475 -0.416856,0 -0.416856,0.284221 0,0.09302 0.03617,0.148139 0.03617,0.0534 0.137804,0.0913 0.10163,0.03617 0.299724,0.07579 l 0.127468,0.02412 q 0.478869,0.09474 0.478869,0.521932 0,0.285943 -0.203261,0.451308 -0.203261,0.163642 -0.556383,0.163642 z"
           id="path3901" />
        <path
           d="m 83.581363,62.639069 q -0.279053,0 -0.461643,-0.160197 -0.180868,-0.16192 -0.180868,-0.463366 0,-0.249769 0.120578,-0.389296 0.120579,-0.141249 0.315227,-0.198093 0.194648,-0.05684 0.415134,-0.05684 h 0.42547 v -0.04995 q 0,-0.246324 -0.125746,-0.342787 -0.124024,-0.09646 -0.349678,-0.09646 -0.1757,0 -0.34451,0.04823 -0.168809,0.04823 -0.315226,0.134358 V 60.74771 q 0.158474,-0.05857 0.320394,-0.09646 0.16192,-0.0379 0.330729,-0.0379 0.172255,0 0.334175,0.04823 0.163642,0.04651 0.282498,0.155029 0.118856,0.106798 0.158474,0.287666 0.02756,0.127469 0.02756,0.384128 v 0.394464 q 0,0.16192 0.01723,0.35829 0.01895,0.196371 0.08441,0.347955 h -0.318672 q -0.02928,-0.06718 -0.04651,-0.142971 -0.01722,-0.07751 -0.02756,-0.149862 -0.10163,0.173977 -0.282498,0.258382 -0.179145,0.0844 -0.37896,0.0844 z m 0.07751,-0.265272 q 0.196371,0 0.318672,-0.09646 0.124023,-0.09646 0.180867,-0.251492 0.05684,-0.156752 0.05684,-0.335897 v -0.07062 h -0.401354 q -0.134359,0 -0.26355,0.03101 -0.127469,0.02928 -0.211874,0.113688 -0.08268,0.0844 -0.08268,0.246325 0,0.18259 0.111966,0.273885 0.111965,0.08957 0.29111,0.08957 z"
           id="path3903" />
        <path
           d="m 85.000743,60.65986 h 0.329007 l 0.559828,1.619196 0.561551,-1.619196 h 0.329007 l -0.685575,1.929255 h -0.408244 z"
           id="path3905" />
        <path
           d="m 88.120279,62.639069 q -0.44614,0 -0.701077,-0.266995 -0.253215,-0.268718 -0.253215,-0.732083 0,-0.287666 0.09991,-0.52021 0.10163,-0.232544 0.299723,-0.368625 0.199816,-0.137804 0.492649,-0.137804 0.385851,0 0.597725,0.248047 0.213596,0.246324 0.213596,0.683852 v 0.155029 h -1.372872 v 0.01033 q 0,0.301446 0.158475,0.480591 0.158474,0.179145 0.468533,0.179145 0.179145,0 0.346232,-0.05684 0.16881,-0.05684 0.325562,-0.137804 v 0.315227 q -0.163642,0.06718 -0.332452,0.106798 -0.167087,0.04134 -0.342787,0.04134 z m 0.43236,-1.186836 q 0,-0.160197 -0.04823,-0.289388 -0.04823,-0.129191 -0.155029,-0.204984 -0.105076,-0.07579 -0.279053,-0.07579 -0.1757,0 -0.294556,0.07751 -0.117133,0.07579 -0.184313,0.204983 -0.06546,0.129191 -0.08268,0.287666 z"
           id="path3907" />
        <path
           d="m 89.238214,62.916399 h 1.798341 v 0.206706 h -1.798341 z"
           id="path3909" />
        <path
           d="m 92.264732,62.639069 q -0.403077,0 -0.616673,-0.260105 -0.211873,-0.261827 -0.211873,-0.751031 0,-0.490927 0.213596,-0.752754 0.213596,-0.261827 0.613227,-0.261827 0.399631,0 0.611505,0.261827 0.213596,0.260105 0.213596,0.754476 0,0.490927 -0.211874,0.751032 -0.211873,0.258382 -0.611504,0.258382 z m -0.0017,-0.268718 q 0.235989,0 0.361735,-0.192925 0.127469,-0.192926 0.127469,-0.552938 0,-0.35829 -0.127469,-0.549493 -0.125746,-0.192926 -0.361735,-0.192926 -0.237712,0 -0.36518,0.192926 -0.125746,0.191203 -0.125746,0.549493 0,0.360012 0.127468,0.552938 0.127469,0.192925 0.363458,0.192925 z"
           id="path3911" />
        <path
           d="m 94.504045,62.639069 q -0.365181,0 -0.530545,-0.292833 l -0.03101,0.242879 H 93.656551 V 59.908829 H 93.9735 v 0.997356 q 0.07924,-0.149862 0.218763,-0.220486 0.139527,-0.07235 0.313504,-0.07235 0.206706,0 0.347955,0.08957 0.141249,0.08785 0.225654,0.235989 0.08613,0.146417 0.122301,0.325562 0.0379,0.179145 0.0379,0.35829 0,0.180868 -0.0379,0.361735 -0.0379,0.179146 -0.124024,0.327285 -0.0844,0.148139 -0.225653,0.237712 -0.141249,0.08957 -0.347955,0.08957 z m -0.06374,-0.268718 q 0.151585,0 0.24288,-0.07062 0.09302,-0.07062 0.139526,-0.184313 0.04823,-0.113688 0.06546,-0.242879 0.01723,-0.129191 0.01723,-0.246325 0,-0.117133 -0.01723,-0.246324 -0.01722,-0.130914 -0.06546,-0.24288 -0.04651,-0.113688 -0.139526,-0.184312 -0.0913,-0.07062 -0.24288,-0.07062 -0.149861,0 -0.242879,0.07062 -0.09129,0.07062 -0.141249,0.18259 -0.04823,0.111966 -0.06546,0.242879 -0.01722,0.129191 -0.01722,0.246325 0,0.118856 0.01722,0.249769 0.01723,0.129192 0.06546,0.24288 0.04995,0.111965 0.141249,0.18259 0.09302,0.07062 0.242879,0.07062 z"
           id="path3913" />
        <path
           d="m 96.571104,60.310183 q -0.05168,0 -0.05168,-0.05168 v -0.298001 q 0,-0.05168 0.05168,-0.05168 h 0.248047 q 0.05168,0 0.05168,0.05168 v 0.298001 q 0,0.05168 -0.05168,0.05168 z m -0.713135,2.74402 h 0.403076 q 0.310059,0 0.310059,-0.430637 V 60.906185 H 96.025056 V 60.65986 h 0.862997 v 1.963706 q 0,0.334175 -0.15503,0.516765 -0.155029,0.18259 -0.437527,0.18259 h -0.437527 z"
           id="path3915" />
        <path
           d="m 98.739793,62.639069 q -0.44614,0 -0.701077,-0.266995 -0.253215,-0.268718 -0.253215,-0.732083 0,-0.287666 0.09991,-0.52021 0.101631,-0.232544 0.299724,-0.368625 0.199815,-0.137804 0.492649,-0.137804 0.385851,0 0.597724,0.248047 0.213596,0.246324 0.213596,0.683852 v 0.155029 h -1.372871 v 0.01033 q 0,0.301446 0.158474,0.480591 0.158475,0.179145 0.468534,0.179145 0.179145,0 0.346232,-0.05684 0.16881,-0.05684 0.325562,-0.137804 v 0.315227 q -0.163643,0.06718 -0.332452,0.106798 -0.167088,0.04134 -0.342788,0.04134 z m 0.43236,-1.186836 q 0,-0.160197 -0.04823,-0.289388 -0.04823,-0.129191 -0.15503,-0.204984 -0.105075,-0.07579 -0.279052,-0.07579 -0.1757,0 -0.294556,0.07751 -0.117134,0.07579 -0.184313,0.204983 -0.06546,0.129191 -0.08268,0.287666 z"
           id="path3917" />
        <path
           d="m 100.91021,62.639069 q -0.3049,0 -0.51332,-0.127469 -0.20671,-0.129191 -0.31351,-0.35829 -0.105073,-0.229099 -0.105073,-0.5271 0,-0.299723 0.106793,-0.5271 0.1068,-0.229099 0.31523,-0.356567 0.20843,-0.129191 0.51677,-0.129191 0.16019,0 0.28938,0.0379 0.1292,0.03617 0.26355,0.110243 v 0.332452 q -0.1223,-0.108521 -0.24632,-0.160197 -0.1223,-0.05168 -0.27905,-0.05168 -0.23255,0 -0.37207,0.09991 -0.13781,0.09991 -0.19982,0.268718 -0.0603,0.168809 -0.0603,0.375515 0,0.204984 0.062,0.375516 0.062,0.16881 0.19982,0.268718 0.1378,0.09991 0.36862,0.09991 0.15159,0 0.2825,-0.04995 0.13092,-0.04995 0.2446,-0.158475 v 0.329007 q -0.24632,0.148139 -0.55982,0.148139 z"
           id="path3919" />
        <path
           d="m 103.20981,62.596005 q -0.35485,0 -0.50299,-0.142971 -0.14641,-0.144694 -0.14641,-0.492649 v -1.0542 h -0.51505 V 60.65986 h 0.51505 v -0.504706 l 0.31694,-0.137804 v 0.64251 h 0.72003 v 0.246325 h -0.72003 v 1.0542 q 0,0.211873 0.081,0.298001 0.081,0.0844 0.2825,0.0844 h 0.35657 V 62.596 Z"
           id="path3921" />
        <path
           d="m 104.10553,62.916399 h 1.79834 v 0.206706 h -1.79834 z"
           id="path3923" />
        <path
           d="m 106.96841,60.310183 q -0.0517,0 -0.0517,-0.05168 v -0.298001 q 0,-0.05168 0.0517,-0.05168 h 0.24805 q 0.0517,0 0.0517,0.05168 v 0.298001 q 0,0.05168 -0.0517,0.05168 z m 0.57878,2.292713 q -0.28422,0 -0.44098,-0.182591 -0.15503,-0.184312 -0.15503,-0.516764 v -0.995634 h -0.42202 V 60.65986 h 0.73897 v 1.243681 q 0,0.210151 0.0792,0.320394 0.0792,0.110243 0.23082,0.110243 h 0.37035 v 0.268718 z"
           id="path3925" />
        <path
           d="m 108.37918,60.65986 h 0.2601 l 0.0276,0.165365 q 0.11713,-0.211873 0.34623,-0.211873 0.24633,0 0.34279,0.242879 0.11713,-0.242879 0.36863,-0.242879 0.23426,0 0.32728,0.1757 0.0947,0.180867 0.0947,0.682129 v 1.117934 h -0.28939 v -1.104154 q 0,-0.217041 -0.0121,-0.335897 -0.0103,-0.118856 -0.0345,-0.1757 -0.0431,-0.09474 -0.17053,-0.09474 -0.13091,0 -0.18087,0.103353 -0.0293,0.06029 -0.0413,0.1757 -0.0121,0.115411 -0.0121,0.327284 v 1.104154 h -0.28938 v -1.104154 q 0,-0.208428 -0.0121,-0.330729 -0.0121,-0.122301 -0.0379,-0.179145 -0.0465,-0.09646 -0.17397,-0.09646 -0.12747,0 -0.17398,0.101631 -0.0276,0.05857 -0.0396,0.179145 -0.0121,0.118855 -0.0121,0.325561 v 1.104154 h -0.28766 z"
           id="path3927" />
        <path
           d="m 110.64261,60.65986 h 0.28766 l 0.031,0.246325 q 0.16536,-0.292833 0.51848,-0.292833 0.34624,0 0.54433,0.27044 0.19982,0.27044 0.19982,0.738973 0,0.471979 -0.20154,0.744141 -0.19982,0.272163 -0.54261,0.272163 -0.36173,0 -0.51848,-0.292833 v 0.976685 h -0.31867 z m 0.79581,1.710491 q 0.45303,0 0.45303,-0.744141 0,-0.744141 -0.45303,-0.744141 -0.23254,0 -0.35484,0.192926 -0.1223,0.192925 -0.1223,0.549493 0,0.35829 0.1223,0.552938 0.12402,0.192925 0.35484,0.192925 z"
           id="path3929" />
        <path
           d="m 113.46414,63.054203 q -0.26355,-0.418579 -0.38757,-0.799262 -0.12747,-0.392741 -0.12747,-0.773425 0,-0.377238 0.12747,-0.773424 0.0654,-0.198093 0.16019,-0.392741 0.0947,-0.196371 0.22738,-0.403077 h 0.27561 q -0.1223,0.208429 -0.20498,0.399632 -0.081,0.18948 -0.13609,0.382405 -0.11368,0.396187 -0.11368,0.787205 0,0.782037 0.45475,1.572687 z"
           id="path3931" />
        <path
           d="m 115.36583,60.906185 h -0.51504 V 60.65986 h 0.51504 v -0.134358 q 0,-0.316949 0.1447,-0.466811 0.14641,-0.149862 0.45475,-0.149862 h 0.38068 v 0.26355 h -0.36001 q -0.16881,0 -0.23599,0.07062 -0.0672,0.0689 -0.0672,0.246324 v 0.170532 h 0.66318 v 0.246325 h -0.66318 v 1.68293 h -0.31695 z"
           id="path3933" />
        <path
           d="m 117.58792,60.310183 q -0.0517,0 -0.0517,-0.05168 v -0.298001 q 0,-0.05168 0.0517,-0.05168 h 0.24805 q 0.0517,0 0.0517,0.05168 v 0.298001 q 0,0.05168 -0.0517,0.05168 z m 0.57878,2.292713 q -0.28422,0 -0.44097,-0.182591 -0.15503,-0.184312 -0.15503,-0.516764 v -0.995634 h -0.42203 V 60.65986 h 0.73898 v 1.243681 q 0,0.210151 0.0792,0.320394 0.0792,0.110243 0.23083,0.110243 h 0.37034 v 0.268718 z"
           id="path3935" />
        <path
           d="m 120.22514,62.602896 q -0.28422,0 -0.44097,-0.182591 -0.15503,-0.184312 -0.15503,-0.516764 v -1.746665 h -0.50815 v -0.248047 h 0.8251 v 1.994712 q 0,0.210151 0.0792,0.320394 0.0792,0.110243 0.23082,0.110243 h 0.37035 v 0.268718 z"
           id="path3937" />
        <path
           d="m 122.10273,62.639069 q -0.44614,0 -0.70108,-0.266995 -0.25322,-0.268718 -0.25322,-0.732083 0,-0.287666 0.0999,-0.52021 0.10163,-0.232544 0.29972,-0.368625 0.19982,-0.137804 0.49265,-0.137804 0.38585,0 0.59773,0.248047 0.21359,0.246324 0.21359,0.683852 v 0.155029 h -1.37287 v 0.01033 q 0,0.301446 0.15848,0.480591 0.15847,0.179145 0.46853,0.179145 0.17915,0 0.34623,-0.05684 0.16881,-0.05684 0.32556,-0.137804 v 0.315227 q -0.16364,0.06718 -0.33245,0.106798 -0.16708,0.04134 -0.34278,0.04134 z m 0.43236,-1.186836 q 0,-0.160197 -0.0482,-0.289388 -0.0482,-0.129191 -0.15503,-0.204984 -0.10507,-0.07579 -0.27905,-0.07579 -0.1757,0 -0.29455,0.07751 -0.11714,0.07579 -0.18432,0.204983 -0.0654,0.129191 -0.0827,0.287666 z"
           id="path3939" />
        <path
           d="m 123.88212,63.054203 q 0.22565,-0.394463 0.34278,-0.79065 0.0534,-0.184312 0.0827,-0.382405 0.0293,-0.198094 0.0293,-0.399632 0,-0.396186 -0.11197,-0.78376 -0.0534,-0.184312 -0.13952,-0.382405 -0.0844,-0.198093 -0.20326,-0.403077 h 0.27561 q 0.26355,0.408244 0.38757,0.795818 0.12747,0.396186 0.12747,0.773424 0,0.380684 -0.12747,0.77687 -0.12575,0.389296 -0.38757,0.795817 z"
           id="path3941" />
      </g>
    </g>
    <path
       style="color:#000000;fill:#000000;-inkscape-stroke:none"
       d="M 127.78711,79.857422 V 182.20898 h 0.40039 V 79.857422 Z"
       id="path3778-9-5" />
    <g
       id="rect394-7-9-4"
       transform="rotate(90)">
      <path
         style="color:#000000;fill:#97afe6;stroke-width:0.4;-inkscape-stroke:none"
         d="m 140.56012,-130.914 h 3.18949 v 5.85229 h -3.18949 z"
         id="path3994" />
      <path
         style="color:#000000;fill:#000000;-inkscape-stroke:none"
         d="m 140.35937,-131.11328 v 0.19922 6.05273 h 3.58985 v -6.25195 z m 0.4004,0.39844 h 2.78906 v 5.45312 h -2.78906 z"
         id="path3996" />
    </g>
    <g
       id="path3900">
      <path
         style="color:#000000;fill:#000000;-inkscape-stroke:none"
         d="m 9.859375,92.021484 v 0.398438 h 45.681641 v -0.398438 z"
         id="path4010" />
      <g
         id="g4000">
        <g
           id="path4002">
          <path
             style="color:#000000;fill:#000000;fill-rule:evenodd;stroke-width:0.2pt;-inkscape-stroke:none"
             d="m 56.694242,92.220612 -1.73,1 v -2 z"
             id="path4006" />
          <path
             style="color:#000000;fill:#000000;fill-rule:evenodd;-inkscape-stroke:none"
             d="m 54.830078,90.990234 v 2.460938 l 2.130859,-1.230469 -0.199218,-0.115234 z m 0.267578,0.460938 1.330078,0.769531 -1.330078,0.769531 z"
             id="path4008" />
        </g>
      </g>
    </g>
    <g
       id="path3900-4">
      <path
         style="color:#000000;fill:#000000;-inkscape-stroke:none"
         d="m 11.271484,156.63672 v 0.40039 h 45.681641 v -0.40039 z"
         id="path4024" />
      <g
         id="g4014">
        <g
           id="path4016">
          <path
             style="color:#000000;fill:#000000;fill-rule:evenodd;stroke-width:0.2pt;-inkscape-stroke:none"
             d="m 10.118233,156.83627 1.73,-1 v 2 z"
             id="path4020" />
          <path
             style="color:#000000;fill:#000000;fill-rule:evenodd;-inkscape-stroke:none"
             d="m 11.982422,155.60547 -2.1308595,1.23047 0.1992185,0.11523 1.931641,1.11524 z m -0.267578,0.46094 v 1.53906 l -1.330078,-0.76953 z"
             id="path4022" />
        </g>
      </g>
    </g>
    <g
       id="path3900-0">
      <path
         style="color:#000000;fill:#000000;-inkscape-stroke:none"
         d="m 57.353516,115.7793 v 0.40039 h 34.9375 v -0.40039 z"
         id="path4038" />
      <g
         id="g4028">
        <g
           id="path4030">
          <path
             style="color:#000000;fill:#000000;fill-rule:evenodd;stroke-width:0.2pt;-inkscape-stroke:none"
             d="m 93.444484,115.98 -1.73,1 v -2 z"
             id="path4034" />
          <path
             style="color:#000000;fill:#000000;fill-rule:evenodd;-inkscape-stroke:none"
             d="m 91.582031,114.74805 v 2.46289 l 2.128906,-1.23047 -0.199218,-0.11524 z m 0.265625,0.46289 1.330078,0.76953 -1.330078,0.76953 z"
             id="path4036" />
        </g>
      </g>
    </g>
    <path
       style="color:#000000;fill:#000000;-inkscape-stroke:none"
       d="M 56.955078,79.453125 V 182.20898 h 0.400391 V 79.453125 Z"
       id="path3778" />
    <g
       id="rect394-7"
       transform="rotate(90)">
      <path
         style="color:#000000;fill:#97afe6;stroke-width:0.4;-inkscape-stroke:none"
         d="m 94.006821,-60.080654 h 61.003049 v 5.852287 H 94.006821 Z"
         id="path4046" />
      <path
         style="color:#000000;fill:#000000;-inkscape-stroke:none"
         d="m 93.806641,-60.28125 v 0.201172 6.050781 h 61.402339 v -6.251953 z m 0.40039,0.400391 h 60.603519 v 5.453125 H 94.207031 Z"
         id="path4048" />
    </g>
    <g
       id="rect394-2-0"
       transform="rotate(90)">
      <path
         style="color:#000000;fill:#a1e697;stroke-width:0.4;-inkscape-stroke:none"
         d="m 97.898445,-58.995487 h 16.100705 v 3.765362 H 97.898445 Z"
         id="path4052" />
      <path
         style="color:#000000;fill:#000000;-inkscape-stroke:none"
         d="m 97.699219,-59.195312 v 0.199218 3.966797 h 16.500001 v -4.166015 z m 0.398437,0.40039 h 15.701174 v 3.365235 H 98.097656 Z"
         id="path4054" />
    </g>
    <g
       id="path3900-0-45">
      <path
         style="color:#000000;fill:#000000;-inkscape-stroke:none"
         d="m 61.658203,151.30273 v 0.40039 h 32.224609 v -0.40039 z"
         id="path4068" />
      <g
         id="g4058">
        <g
           id="path4060">
          <path
             style="color:#000000;fill:#000000;fill-rule:evenodd;stroke-width:0.2pt;-inkscape-stroke:none"
             d="m 60.504631,151.50298 1.73,-1 v 2 z"
             id="path4064" />
          <path
             style="color:#000000;fill:#000000;fill-rule:evenodd;-inkscape-stroke:none"
             d="m 62.367187,150.27148 -2.128906,1.23243 0.199219,0.11523 1.929687,1.11523 z m -0.265625,0.46289 v 1.53711 l -1.328125,-0.76757 z"
             id="path4066" />
        </g>
      </g>
    </g>
    <g
       id="path3900-0-4">
      <path
         style="color:#000000;fill:#000000;-inkscape-stroke:none"
         d="m 94.09375,138.17187 v 0.4004 h 32.27539 v -0.4004 z"
         id="path4082" />
      <g
         id="g4072">
        <g
           id="path4074">
          <path
             style="color:#000000;fill:#000000;fill-rule:evenodd;stroke-width:0.2pt;-inkscape-stroke:none"
             d="m 127.52238,138.37272 -1.73,1 v -2 z"
             id="path4078" />
          <path
             style="color:#000000;fill:#000000;fill-rule:evenodd;-inkscape-stroke:none"
             d="m 125.6582,137.14258 v 2.46094 l 2.13086,-1.23047 -0.19922,-0.11524 z m 0.26758,0.46094 1.33008,0.76953 -1.33008,0.76953 z"
             id="path4080" />
        </g>
      </g>
    </g>
    <path
       style="color:#000000;fill:#000000;-inkscape-stroke:none"
       d="M 93.683594,79.318359 V 182.20898 h 0.40039 V 79.318359 Z"
       id="path3778-9" />
    <g
       id="rect394-7-9"
       transform="rotate(90)">
      <path
         style="color:#000000;fill:#97afe6;stroke-width:0.4;-inkscape-stroke:none"
         d="m 117.88972,-96.809616 h 32.10816 v 5.852287 h -32.10816 z"
         id="path4090" />
      <path
         style="color:#000000;fill:#000000;-inkscape-stroke:none"
         d="m 117.68945,-97.009766 v 0.199219 6.052735 h 32.50782 v -6.251954 z m 0.40039,0.400391 h 31.70899 v 5.451172 h -31.70899 z"
         id="path4092" />
    </g>
    <g
       id="rect394-2-0-8"
       transform="rotate(90)">
      <path
         style="color:#000000;fill:#a1e697;stroke-width:0.4;-inkscape-stroke:none"
         d="m 121.57386,-95.8797 h 14.85799 v 3.992455 h -14.85799 z"
         id="path4096" />
      <path
         style="color:#000000;fill:#000000;-inkscape-stroke:none"
         d="m 121.37305,-96.080078 v 0.201172 4.191406 h 15.25976 v -4.392578 z m 0.40039,0.400391 h 14.45898 v 3.591796 h -14.45898 z"
         id="path4098" />
    </g>
    <g
       id="path3900-0-4-4">
      <path
         style="color:#000000;fill:#000000;-inkscape-stroke:none"
         d="m 98.412109,145.73633 v 0.40039 h 29.576171 v -0.40039 z"
         id="path4112" />
      <g
         id="g4102">
        <g
           id="path4104">
          <path
             style="color:#000000;fill:#000000;fill-rule:evenodd;stroke-width:0.2pt;-inkscape-stroke:none"
             d="m 97.258666,145.93701 1.73,-1 v 2 z"
             id="path4108" />
          <path
             style="color:#000000;fill:#000000;fill-rule:evenodd;-inkscape-stroke:none"
             d="m 99.121094,144.70508 -2.128907,1.23242 0.199219,0.11523 1.929688,1.11524 z m -0.265625,0.46289 v 1.53906 l -1.330078,-0.76953 z"
             id="path4110" />
        </g>
      </g>
    </g>
  </g>
</svg>
