<?xml version="1.0" encoding="UTF-8" standalone="no"?>
<!-- Created with Inkscape (http://www.inkscape.org/) -->

<svg
   width="69.96048mm"
   height="59.241589mm"
   viewBox="0 0 69.96048 59.241589"
   version="1.1"
   id="svg5"
   inkscape:version="1.2.2 (732a01da63, 2022-12-09)"
   sodipodi:docname="20230320_dryml_Repo_Selector_1.svg"
   inkscape:export-filename="20230320_dryml_Repo_Selector_1_Render.svg"
   inkscape:export-xdpi="96"
   inkscape:export-ydpi="96"
   xmlns:inkscape="http://www.inkscape.org/namespaces/inkscape"
   xmlns:sodipodi="http://sodipodi.sourceforge.net/DTD/sodipodi-0.dtd"
   xmlns="http://www.w3.org/2000/svg"
   xmlns:svg="http://www.w3.org/2000/svg">
  <sodipodi:namedview
     id="namedview7"
     pagecolor="#ffffff"
     bordercolor="#000000"
     borderopacity="0.25"
     inkscape:showpageshadow="2"
     inkscape:pageopacity="0.0"
     inkscape:pagecheckerboard="0"
     inkscape:deskcolor="#d1d1d1"
     inkscape:document-units="mm"
     showgrid="false"
     inkscape:zoom="2.2173472"
     inkscape:cx="238.79887"
     inkscape:cy="242.63228"
     inkscape:window-width="1636"
     inkscape:window-height="929"
     inkscape:window-x="1106"
     inkscape:window-y="1337"
     inkscape:window-maximized="0"
     inkscape:current-layer="layer1" />
  <defs
     id="defs2" />
  <g
     inkscape:label="Layer 1"
     inkscape:groupmode="layer"
     id="layer1"
     transform="translate(-21.654297,-27.616899)">
    <g
       id="rect5074"
       inkscape:export-filename="rect5074.svg"
       inkscape:export-xdpi="150"
       inkscape:export-ydpi="150">
      <path
         style="color:#000000;fill:#ffffff;stroke-width:0.264583;-inkscape-stroke:none"
         d="M 21.785709,48.212826 H 48.59606 v 30.25803 H 21.785709 Z"
         id="path9047" />
      <path
         style="color:#000000;fill:#000000;-inkscape-stroke:none"
         d="m 21.654297,48.080078 v 0.132813 30.390625 H 48.728516 V 48.080078 Z m 0.263672,0.265625 H 48.462891 V 78.337891 H 21.917969 Z"
         id="path9049" />
    </g>
    <g
       aria-label="Repo"
       id="text6636"
       style="font-weight:bold;font-size:4.23333px;font-family:Montserrat;-inkscape-font-specification:'Montserrat Bold';text-align:center;text-anchor:middle;stroke-width:0.264583">
      <path
         d="m 24.82592,52.220638 -0.5715,-0.825499 h -0.03387 -0.5969 v 0.825499 h -0.685799 v -2.963331 h 1.282699 q 0.393699,0 0.681566,0.131234 0.2921,0.131233 0.448733,0.372533 0.156633,0.241299 0.156633,0.571499 0,0.3302 -0.160867,0.5715 -0.156633,0.237066 -0.448733,0.364066 l 0.664633,0.952499 z m -0.0127,-1.888065 q 0,-0.249766 -0.160867,-0.380999 -0.160866,-0.135467 -0.469899,-0.135467 h -0.5588 v 1.032932 h 0.5588 q 0.309033,0 0.469899,-0.135466 0.160867,-0.135467 0.160867,-0.381 z"
         id="path9063" />
      <path
         d="m 28.233753,51.090339 q 0,0.0127 -0.0127,0.1778 h -1.722965 q 0.04657,0.211667 0.220133,0.334433 0.173566,0.122767 0.4318,0.122767 0.177799,0 0.313266,-0.0508 0.1397,-0.05503 0.258233,-0.169333 l 0.351366,0.380999 q -0.321733,0.3683 -0.939799,0.3683 -0.385233,0 -0.681566,-0.148167 -0.296333,-0.1524 -0.457199,-0.419099 -0.160867,-0.2667 -0.160867,-0.605366 0,-0.334433 0.156633,-0.601133 0.160867,-0.270933 0.436033,-0.4191 0.2794,-0.1524 0.6223,-0.1524 0.334433,0 0.605366,0.143933 0.270933,0.143934 0.423333,0.414867 0.156633,0.2667 0.156633,0.622299 z m -1.181099,-0.681566 q -0.224367,0 -0.376766,0.127 -0.1524,0.127 -0.186267,0.347133 h 1.121832 q -0.03387,-0.2159 -0.186266,-0.3429 -0.1524,-0.131233 -0.372533,-0.131233 z"
         id="path9065" />
      <path
         d="m 30.02022,49.90924 q 0.3175,0 0.575733,0.148167 0.262466,0.143933 0.410633,0.410633 0.148166,0.262466 0.148166,0.613833 0,0.351366 -0.148166,0.618066 -0.148167,0.262466 -0.410633,0.410633 -0.258233,0.143933 -0.575733,0.143933 -0.436033,0 -0.685799,-0.275167 v 1.062566 h -0.6604 v -3.098797 h 0.630766 v 0.262466 Q 29.55032,49.90924 30.02022,49.90924 Z m -0.1143,1.803399 q 0.254,0 0.414866,-0.169333 0.1651,-0.173567 0.1651,-0.461433 0,-0.287867 -0.1651,-0.4572 -0.160866,-0.173567 -0.414866,-0.173567 -0.254,0 -0.4191,0.173567 -0.160866,0.169333 -0.160866,0.4572 0,0.287866 0.160866,0.461433 0.1651,0.169333 0.4191,0.169333 z"
         id="path9067" />
      <path
         d="m 32.678754,52.254505 q -0.359833,0 -0.647699,-0.148167 -0.283634,-0.1524 -0.4445,-0.419099 -0.160867,-0.2667 -0.160867,-0.605366 0,-0.338667 0.160867,-0.605367 0.160866,-0.266699 0.4445,-0.414866 0.287866,-0.1524 0.647699,-0.1524 0.359833,0 0.643466,0.1524 0.283633,0.148167 0.4445,0.414866 0.160866,0.2667 0.160866,0.605367 0,0.338666 -0.160866,0.605366 -0.160867,0.266699 -0.4445,0.419099 -0.283633,0.148167 -0.643466,0.148167 z m 0,-0.541866 q 0.254,0 0.414866,-0.169333 0.1651,-0.173567 0.1651,-0.461433 0,-0.287867 -0.1651,-0.4572 -0.160866,-0.173567 -0.414866,-0.173567 -0.254,0 -0.4191,0.173567 -0.165099,0.169333 -0.165099,0.4572 0,0.287866 0.165099,0.461433 0.1651,0.169333 0.4191,0.169333 z"
         id="path9069" />
    </g>
    <g
       id="rect6528">
      <path
         style="color:#000000;fill:#ffffff;stroke-width:0.264583;-inkscape-stroke:none"
         d="M 28.872181,55.136326 H 46.486687 V 76.53023 H 28.872181 Z"
         id="path9086" />
      <path
         style="color:#000000;fill:#000000;-inkscape-stroke:none"
         d="m 28.740234,55.003906 v 0.132813 21.52539 H 46.619141 V 55.003906 Z m 0.263672,0.265625 h 17.34961 v 21.128906 h -17.34961 z"
         id="path9088" />
    </g>
    <g
       aria-label="- Object
- Object
- Object
- Object
..."
       id="text6851"
       style="font-size:2.82222px;font-family:Hack;-inkscape-font-specification:Hack;stroke-width:0.264583">
      <path
         d="m 31.162912,58.915376 h 1.131368 v 0.225998 h -1.131368 z"
         id="path9102" />
      <path
         d="m 35.126146,59.896538 q -0.348643,0 -0.518142,-0.263205 -0.169498,-0.261827 -0.169498,-0.803396 0,-0.541568 0.170877,-0.803395 0.172254,-0.264583 0.516763,-0.264583 0.169499,0 0.300413,0.06339 0.130913,0.06339 0.219107,0.201194 0.169499,0.264583 0.169499,0.803395 0,0.537435 -0.169499,0.802018 -0.08819,0.137804 -0.219107,0.201193 -0.130914,0.06339 -0.300413,0.06339 z m 0,-0.225998 q 0.212218,0 0.305925,-0.194303 0.09233,-0.188791 0.09233,-0.6463 0,-0.457508 -0.09233,-0.647677 -0.09371,-0.194303 -0.305925,-0.194303 -0.209461,0 -0.303168,0.194303 -0.09371,0.198437 -0.09371,0.647677 0,0.447862 0.09371,0.6463 0.09371,0.194303 0.303168,0.194303 z"
         id="path9104" />
      <path
         d="m 36.920351,59.896538 q -0.292144,0 -0.424435,-0.234266 l -0.02481,0.194303 h -0.228754 v -2.144226 h 0.253559 v 0.797884 q 0.06339,-0.11989 0.17501,-0.176389 0.111621,-0.05788 0.250803,-0.05788 0.165365,0 0.278364,0.07166 0.112999,0.07028 0.180522,0.188791 0.0689,0.117134 0.09784,0.260449 0.03032,0.143316 0.03032,0.286632 0,0.144694 -0.03032,0.289388 -0.03032,0.143316 -0.09922,0.261827 -0.06752,0.118511 -0.180522,0.190169 -0.112999,0.07166 -0.278364,0.07166 z m -0.05099,-0.214974 q 0.121267,0 0.194303,-0.0565 0.07441,-0.0565 0.111621,-0.14745 0.03858,-0.09095 0.05236,-0.194303 0.01378,-0.103353 0.01378,-0.19706 0,-0.09371 -0.01378,-0.197059 -0.01378,-0.104731 -0.05236,-0.194303 -0.03721,-0.09095 -0.111621,-0.14745 -0.07304,-0.0565 -0.194303,-0.0565 -0.11989,0 -0.194304,0.0565 -0.07304,0.0565 -0.112999,0.146072 -0.03858,0.08957 -0.05237,0.194303 -0.01378,0.103353 -0.01378,0.197059 0,0.09508 0.01378,0.199816 0.01378,0.103352 0.05237,0.194303 0.03996,0.08957 0.112999,0.146072 0.07441,0.0565 0.194304,0.0565 z"
         id="path9106" />
      <path
         d="m 38.573995,58.033432 q -0.04134,0 -0.04134,-0.04134 V 57.75369 q 0,-0.04134 0.04134,-0.04134 h 0.198438 q 0.04134,0 0.04134,0.04134 v 0.238401 q 0,0.04134 -0.04134,0.04134 z m -0.570507,2.195213 h 0.322461 q 0.248046,0 0.248046,-0.344509 v -1.373903 h -0.436837 v -0.19706 h 0.690396 v 1.570963 q 0,0.267339 -0.124023,0.413411 -0.124023,0.146072 -0.350022,0.146072 h -0.350021 z"
         id="path9108" />
      <path
         d="m 40.308944,59.896538 q -0.356912,0 -0.560861,-0.213596 -0.202572,-0.214973 -0.202572,-0.585665 0,-0.230133 0.07993,-0.416168 0.0813,-0.186035 0.239778,-0.2949 0.159852,-0.110243 0.394119,-0.110243 0.30868,0 0.478178,0.198438 0.170877,0.197059 0.170877,0.54708 v 0.124024 h -1.098296 v 0.0083 q 0,0.241157 0.12678,0.384472 0.126779,0.143316 0.374826,0.143316 0.143316,0 0.276985,-0.04548 0.135048,-0.04547 0.260449,-0.110243 v 0.252181 q -0.130913,0.05374 -0.265961,0.08544 -0.133669,0.03307 -0.274229,0.03307 z m 0.345887,-0.949468 q 0,-0.128157 -0.03859,-0.23151 -0.03858,-0.103353 -0.124023,-0.163986 -0.08406,-0.06063 -0.223242,-0.06063 -0.14056,0 -0.235644,0.06201 -0.09371,0.06063 -0.14745,0.163986 -0.05237,0.103353 -0.06615,0.230132 z"
         id="path9110" />
      <path
         d="m 42.045271,59.896538 q -0.243912,0 -0.410655,-0.101975 -0.165364,-0.103352 -0.250802,-0.286631 -0.08406,-0.183279 -0.08406,-0.42168 0,-0.239778 0.08544,-0.421679 0.08544,-0.183279 0.25218,-0.285254 0.166743,-0.103353 0.413412,-0.103353 0.128157,0 0.23151,0.03032 0.103353,0.02894 0.21084,0.08819 v 0.265961 q -0.09784,-0.08682 -0.19706,-0.128158 -0.09784,-0.04134 -0.223242,-0.04134 -0.186035,0 -0.297656,0.07993 -0.110243,0.07993 -0.159852,0.214974 -0.04823,0.135048 -0.04823,0.300412 0,0.163987 0.04961,0.300412 0.04961,0.135048 0.159852,0.214974 0.110243,0.07993 0.2949,0.07993 0.121267,0 0.225998,-0.03996 0.104731,-0.03996 0.195682,-0.126779 v 0.263205 q -0.19706,0.118511 -0.447863,0.118511 z"
         id="path9112" />
      <path
         d="m 43.884951,59.862087 q -0.283876,0 -0.402387,-0.114377 -0.117133,-0.115755 -0.117133,-0.394119 v -0.843358 h -0.412033 v -0.19706 h 0.412033 v -0.403764 l 0.253559,-0.110243 v 0.514007 h 0.576019 v 0.19706 H 43.61899 v 0.843358 q 0,0.169499 0.06477,0.238401 0.06477,0.06752 0.225998,0.06752 h 0.285254 v 0.202571 z"
         id="path9114" />
      <path
         d="m 31.162912,62.443151 h 1.131368 v 0.225998 h -1.131368 z"
         id="path9116" />
      <path
         d="m 35.126146,63.424313 q -0.348643,0 -0.518142,-0.263205 -0.169498,-0.261827 -0.169498,-0.803396 0,-0.541568 0.170877,-0.803395 0.172254,-0.264583 0.516763,-0.264583 0.169499,0 0.300413,0.06339 0.130913,0.06339 0.219107,0.201194 0.169499,0.264583 0.169499,0.803395 0,0.537435 -0.169499,0.802018 -0.08819,0.137804 -0.219107,0.201193 -0.130914,0.06339 -0.300413,0.06339 z m 0,-0.225998 q 0.212218,0 0.305925,-0.194303 0.09233,-0.188791 0.09233,-0.6463 0,-0.457508 -0.09233,-0.647677 -0.09371,-0.194303 -0.305925,-0.194303 -0.209461,0 -0.303168,0.194303 -0.09371,0.198437 -0.09371,0.647677 0,0.447863 0.09371,0.6463 0.09371,0.194303 0.303168,0.194303 z"
         id="path9118" />
      <path
         d="m 36.920351,63.424313 q -0.292144,0 -0.424435,-0.234266 l -0.02481,0.194303 h -0.228754 v -2.144226 h 0.253559 v 0.797884 q 0.06339,-0.119889 0.17501,-0.176389 0.111621,-0.05788 0.250803,-0.05788 0.165365,0 0.278364,0.07166 0.112999,0.07028 0.180522,0.188792 0.0689,0.117133 0.09784,0.260449 0.03032,0.143315 0.03032,0.286631 0,0.144694 -0.03032,0.289388 -0.03032,0.143316 -0.09922,0.261827 -0.06752,0.118511 -0.180522,0.190169 -0.112999,0.07166 -0.278364,0.07166 z m -0.05099,-0.214974 q 0.121267,0 0.194303,-0.0565 0.07441,-0.0565 0.111621,-0.14745 0.03858,-0.09095 0.05236,-0.194303 0.01378,-0.103353 0.01378,-0.19706 0,-0.09371 -0.01378,-0.197059 -0.01378,-0.104731 -0.05236,-0.194303 -0.03721,-0.09095 -0.111621,-0.14745 -0.07304,-0.0565 -0.194303,-0.0565 -0.11989,0 -0.194304,0.0565 -0.07304,0.0565 -0.112999,0.146072 -0.03858,0.08957 -0.05237,0.194303 -0.01378,0.103353 -0.01378,0.197059 0,0.09509 0.01378,0.199816 0.01378,0.103352 0.05237,0.194303 0.03996,0.08957 0.112999,0.146072 0.07441,0.0565 0.194304,0.0565 z"
         id="path9120" />
      <path
         d="m 38.573995,61.561207 q -0.04134,0 -0.04134,-0.04134 v -0.238401 q 0,-0.04134 0.04134,-0.04134 h 0.198438 q 0.04134,0 0.04134,0.04134 v 0.238401 q 0,0.04134 -0.04134,0.04134 z m -0.570507,2.195213 h 0.322461 q 0.248046,0 0.248046,-0.344509 v -1.373903 h -0.436837 v -0.197059 h 0.690396 v 1.570962 q 0,0.267339 -0.124023,0.413411 -0.124023,0.146072 -0.350022,0.146072 h -0.350021 z"
         id="path9122" />
      <path
         d="m 40.308944,63.424313 q -0.356912,0 -0.560861,-0.213596 -0.202572,-0.214973 -0.202572,-0.585665 0,-0.230133 0.07993,-0.416168 0.0813,-0.186035 0.239778,-0.2949 0.159852,-0.110242 0.394119,-0.110242 0.30868,0 0.478178,0.198437 0.170877,0.197059 0.170877,0.547081 v 0.124023 h -1.098296 v 0.0083 q 0,0.241157 0.12678,0.384473 0.126779,0.143315 0.374826,0.143315 0.143316,0 0.276985,-0.04548 0.135048,-0.04547 0.260449,-0.110243 v 0.252181 q -0.130913,0.05374 -0.265961,0.08544 -0.133669,0.03307 -0.274229,0.03307 z m 0.345887,-0.949467 q 0,-0.128158 -0.03859,-0.231511 -0.03858,-0.103352 -0.124023,-0.163986 -0.08406,-0.06063 -0.223242,-0.06063 -0.14056,0 -0.235644,0.06201 -0.09371,0.06063 -0.14745,0.163986 -0.05237,0.103353 -0.06615,0.230133 z"
         id="path9124" />
      <path
         d="m 42.045271,63.424313 q -0.243912,0 -0.410655,-0.101975 -0.165364,-0.103352 -0.250802,-0.286631 -0.08406,-0.183279 -0.08406,-0.42168 0,-0.239778 0.08544,-0.421679 0.08544,-0.183279 0.25218,-0.285254 0.166743,-0.103352 0.413412,-0.103352 0.128157,0 0.23151,0.03032 0.103353,0.02894 0.21084,0.08819 v 0.265961 q -0.09784,-0.08682 -0.19706,-0.128158 -0.09784,-0.04134 -0.223242,-0.04134 -0.186035,0 -0.297656,0.07993 -0.110243,0.07993 -0.159852,0.214974 -0.04823,0.135048 -0.04823,0.300412 0,0.163987 0.04961,0.300412 0.04961,0.135048 0.159852,0.214974 0.110243,0.07993 0.2949,0.07993 0.121267,0 0.225998,-0.03996 0.104731,-0.03996 0.195682,-0.126779 v 0.263205 q -0.19706,0.118511 -0.447863,0.118511 z"
         id="path9126" />
      <path
         d="m 43.884951,63.389862 q -0.283876,0 -0.402387,-0.114377 -0.117133,-0.115755 -0.117133,-0.394118 v -0.843359 h -0.412033 v -0.197059 h 0.412033 v -0.403765 l 0.253559,-0.110243 v 0.514008 h 0.576019 v 0.197059 H 43.61899 v 0.843359 q 0,0.169498 0.06477,0.2384 0.06477,0.06752 0.225998,0.06752 h 0.285254 v 0.202571 z"
         id="path9128" />
      <path
         d="m 31.162912,65.970926 h 1.131368 v 0.225998 h -1.131368 z"
         id="path9130" />
      <path
         d="m 35.126146,66.952088 q -0.348643,0 -0.518142,-0.263205 -0.169498,-0.261827 -0.169498,-0.803395 0,-0.541569 0.170877,-0.803396 0.172254,-0.264583 0.516763,-0.264583 0.169499,0 0.300413,0.06339 0.130913,0.06339 0.219107,0.201194 0.169499,0.264583 0.169499,0.803396 0,0.537434 -0.169499,0.802017 -0.08819,0.137804 -0.219107,0.201194 -0.130914,0.06339 -0.300413,0.06339 z m 0,-0.225998 q 0.212218,0 0.305925,-0.194303 0.09233,-0.188791 0.09233,-0.646299 0,-0.457509 -0.09233,-0.647678 -0.09371,-0.194303 -0.305925,-0.194303 -0.209461,0 -0.303168,0.194303 -0.09371,0.198437 -0.09371,0.647678 0,0.447862 0.09371,0.646299 0.09371,0.194303 0.303168,0.194303 z"
         id="path9132" />
      <path
         d="m 36.920351,66.952088 q -0.292144,0 -0.424435,-0.234266 l -0.02481,0.194303 h -0.228754 v -2.144226 h 0.253559 v 0.797884 q 0.06339,-0.119889 0.17501,-0.176389 0.111621,-0.05788 0.250803,-0.05788 0.165365,0 0.278364,0.07166 0.112999,0.07028 0.180522,0.188791 0.0689,0.117133 0.09784,0.260449 0.03032,0.143316 0.03032,0.286631 0,0.144694 -0.03032,0.289388 -0.03032,0.143316 -0.09922,0.261827 -0.06752,0.118511 -0.180522,0.190169 -0.112999,0.07166 -0.278364,0.07166 z m -0.05099,-0.214973 q 0.121267,0 0.194303,-0.0565 0.07441,-0.0565 0.111621,-0.14745 0.03858,-0.09095 0.05236,-0.194303 0.01378,-0.103353 0.01378,-0.19706 0,-0.09371 -0.01378,-0.197059 -0.01378,-0.104731 -0.05236,-0.194303 -0.03721,-0.09095 -0.111621,-0.14745 -0.07304,-0.0565 -0.194303,-0.0565 -0.11989,0 -0.194304,0.0565 -0.07304,0.0565 -0.112999,0.146072 -0.03858,0.08957 -0.05237,0.194303 -0.01378,0.103353 -0.01378,0.197059 0,0.09508 0.01378,0.199816 0.01378,0.103353 0.05237,0.194303 0.03996,0.08957 0.112999,0.146072 0.07441,0.0565 0.194304,0.0565 z"
         id="path9134" />
      <path
         d="m 38.573995,65.088982 q -0.04134,0 -0.04134,-0.04134 v -0.2384 q 0,-0.04134 0.04134,-0.04134 h 0.198438 q 0.04134,0 0.04134,0.04134 v 0.2384 q 0,0.04134 -0.04134,0.04134 z m -0.570507,2.195213 h 0.322461 q 0.248046,0 0.248046,-0.344509 v -1.373903 h -0.436837 v -0.197059 h 0.690396 v 1.570962 q 0,0.267339 -0.124023,0.413411 -0.124023,0.146072 -0.350022,0.146072 h -0.350021 z"
         id="path9136" />
      <path
         d="m 40.308944,66.952088 q -0.356912,0 -0.560861,-0.213595 -0.202572,-0.214974 -0.202572,-0.585666 0,-0.230132 0.07993,-0.416167 0.0813,-0.186035 0.239778,-0.2949 0.159852,-0.110243 0.394119,-0.110243 0.30868,0 0.478178,0.198437 0.170877,0.197059 0.170877,0.547081 v 0.124023 h -1.098296 v 0.0083 q 0,0.241157 0.12678,0.384473 0.126779,0.143316 0.374826,0.143316 0.143316,0 0.276985,-0.04548 0.135048,-0.04547 0.260449,-0.110243 v 0.252181 q -0.130913,0.05374 -0.265961,0.08544 -0.133669,0.03307 -0.274229,0.03307 z m 0.345887,-0.949467 q 0,-0.128158 -0.03859,-0.231511 -0.03858,-0.103352 -0.124023,-0.163986 -0.08406,-0.06063 -0.223242,-0.06063 -0.14056,0 -0.235644,0.06201 -0.09371,0.06063 -0.14745,0.163987 -0.05237,0.103352 -0.06615,0.230132 z"
         id="path9138" />
      <path
         d="m 42.045271,66.952088 q -0.243912,0 -0.410655,-0.101974 -0.165364,-0.103353 -0.250802,-0.286632 -0.08406,-0.183279 -0.08406,-0.42168 0,-0.239778 0.08544,-0.421679 0.08544,-0.183279 0.25218,-0.285254 0.166743,-0.103352 0.413412,-0.103352 0.128157,0 0.23151,0.03032 0.103353,0.02894 0.21084,0.08819 v 0.265961 q -0.09784,-0.08682 -0.19706,-0.128157 -0.09784,-0.04134 -0.223242,-0.04134 -0.186035,0 -0.297656,0.07993 -0.110243,0.07993 -0.159852,0.214973 -0.04823,0.135048 -0.04823,0.300412 0,0.163987 0.04961,0.300413 0.04961,0.135047 0.159852,0.214973 0.110243,0.07993 0.2949,0.07993 0.121267,0 0.225998,-0.03996 0.104731,-0.03996 0.195682,-0.126779 v 0.263205 q -0.19706,0.118511 -0.447863,0.118511 z"
         id="path9140" />
      <path
         d="m 43.884951,66.917637 q -0.283876,0 -0.402387,-0.114377 -0.117133,-0.115755 -0.117133,-0.394118 v -0.843359 h -0.412033 v -0.197059 h 0.412033 v -0.403765 l 0.253559,-0.110243 v 0.514008 h 0.576019 v 0.197059 H 43.61899 v 0.843359 q 0,0.169498 0.06477,0.2384 0.06477,0.06752 0.225998,0.06752 h 0.285254 v 0.202571 z"
         id="path9142" />
      <path
         d="m 31.162912,69.498701 h 1.131368 v 0.225998 h -1.131368 z"
         id="path9144" />
      <path
         d="m 35.126146,70.479863 q -0.348643,0 -0.518142,-0.263205 -0.169498,-0.261827 -0.169498,-0.803395 0,-0.541569 0.170877,-0.803396 0.172254,-0.264583 0.516763,-0.264583 0.169499,0 0.300413,0.06339 0.130913,0.06339 0.219107,0.201193 0.169499,0.264583 0.169499,0.803396 0,0.537434 -0.169499,0.802017 -0.08819,0.137804 -0.219107,0.201194 -0.130914,0.06339 -0.300413,0.06339 z m 0,-0.225998 q 0.212218,0 0.305925,-0.194303 0.09233,-0.188791 0.09233,-0.646299 0,-0.457509 -0.09233,-0.647678 -0.09371,-0.194303 -0.305925,-0.194303 -0.209461,0 -0.303168,0.194303 -0.09371,0.198438 -0.09371,0.647678 0,0.447862 0.09371,0.646299 0.09371,0.194303 0.303168,0.194303 z"
         id="path9146" />
      <path
         d="m 36.920351,70.479863 q -0.292144,0 -0.424435,-0.234266 l -0.02481,0.194303 h -0.228754 v -2.144225 h 0.253559 v 0.797883 q 0.06339,-0.119889 0.17501,-0.176389 0.111621,-0.05788 0.250803,-0.05788 0.165365,0 0.278364,0.07166 0.112999,0.07028 0.180522,0.188791 0.0689,0.117133 0.09784,0.260449 0.03032,0.143316 0.03032,0.286631 0,0.144694 -0.03032,0.289388 -0.03032,0.143316 -0.09922,0.261827 -0.06752,0.118512 -0.180522,0.190169 -0.112999,0.07166 -0.278364,0.07166 z m -0.05099,-0.214973 q 0.121267,0 0.194303,-0.0565 0.07441,-0.0565 0.111621,-0.14745 0.03858,-0.09095 0.05236,-0.194303 0.01378,-0.103353 0.01378,-0.197059 0,-0.09371 -0.01378,-0.19706 -0.01378,-0.104731 -0.05236,-0.194303 -0.03721,-0.09095 -0.111621,-0.14745 -0.07304,-0.0565 -0.194303,-0.0565 -0.11989,0 -0.194304,0.0565 -0.07304,0.0565 -0.112999,0.146072 -0.03858,0.08957 -0.05237,0.194303 -0.01378,0.103353 -0.01378,0.19706 0,0.09508 0.01378,0.199815 0.01378,0.103353 0.05237,0.194303 0.03996,0.08957 0.112999,0.146072 0.07441,0.0565 0.194304,0.0565 z"
         id="path9148" />
      <path
         d="m 38.573995,68.616757 q -0.04134,0 -0.04134,-0.04134 v -0.2384 q 0,-0.04134 0.04134,-0.04134 h 0.198438 q 0.04134,0 0.04134,0.04134 v 0.2384 q 0,0.04134 -0.04134,0.04134 z m -0.570507,2.195213 h 0.322461 q 0.248046,0 0.248046,-0.344509 v -1.373903 h -0.436837 v -0.197059 h 0.690396 v 1.570962 q 0,0.267339 -0.124023,0.413411 -0.124023,0.146072 -0.350022,0.146072 h -0.350021 z"
         id="path9150" />
      <path
         d="m 40.308944,70.479863 q -0.356912,0 -0.560861,-0.213595 -0.202572,-0.214974 -0.202572,-0.585666 0,-0.230132 0.07993,-0.416167 0.0813,-0.186035 0.239778,-0.2949 0.159852,-0.110243 0.394119,-0.110243 0.30868,0 0.478178,0.198437 0.170877,0.197059 0.170877,0.547081 v 0.124023 h -1.098296 v 0.0083 q 0,0.241157 0.12678,0.384473 0.126779,0.143316 0.374826,0.143316 0.143316,0 0.276985,-0.04548 0.135048,-0.04547 0.260449,-0.110243 v 0.252181 q -0.130913,0.05374 -0.265961,0.08544 -0.133669,0.03307 -0.274229,0.03307 z m 0.345887,-0.949467 q 0,-0.128158 -0.03859,-0.23151 -0.03858,-0.103353 -0.124023,-0.163987 -0.08406,-0.06063 -0.223242,-0.06063 -0.14056,0 -0.235644,0.06201 -0.09371,0.06063 -0.14745,0.163987 -0.05237,0.103352 -0.06615,0.230132 z"
         id="path9152" />
      <path
         d="m 42.045271,70.479863 q -0.243912,0 -0.410655,-0.101974 -0.165364,-0.103353 -0.250802,-0.286632 -0.08406,-0.183279 -0.08406,-0.421679 0,-0.239779 0.08544,-0.42168 0.08544,-0.183279 0.25218,-0.285253 0.166743,-0.103353 0.413412,-0.103353 0.128157,0 0.23151,0.03032 0.103353,0.02894 0.21084,0.08819 v 0.265961 q -0.09784,-0.08682 -0.19706,-0.128157 -0.09784,-0.04134 -0.223242,-0.04134 -0.186035,0 -0.297656,0.07993 -0.110243,0.07993 -0.159852,0.214973 -0.04823,0.135048 -0.04823,0.300413 0,0.163986 0.04961,0.300412 0.04961,0.135047 0.159852,0.214973 0.110243,0.07993 0.2949,0.07993 0.121267,0 0.225998,-0.03996 0.104731,-0.03996 0.195682,-0.12678 v 0.263205 q -0.19706,0.118511 -0.447863,0.118511 z"
         id="path9154" />
      <path
         d="m 43.884951,70.445412 q -0.283876,0 -0.402387,-0.114377 -0.117133,-0.115755 -0.117133,-0.394118 v -0.843359 h -0.412033 v -0.197059 h 0.412033 v -0.403765 l 0.253559,-0.110243 v 0.514008 h 0.576019 v 0.197059 H 43.61899 v 0.843359 q 0,0.169498 0.06477,0.2384 0.06477,0.06752 0.225998,0.06752 h 0.285254 v 0.202571 z"
         id="path9156" />
      <path
         d="m 31.723773,74.004882 q -0.09371,0 -0.158475,-0.06477 -0.06477,-0.06477 -0.06477,-0.168121 0,-0.103353 0.06477,-0.16812 0.06477,-0.06477 0.158475,-0.06477 0.09371,0 0.158474,0.06477 0.06477,0.06477 0.06477,0.16812 0,0.103353 -0.06477,0.168121 -0.06477,0.06477 -0.158474,0.06477 z"
         id="path9158" />
      <path
         d="m 33.422893,74.004882 q -0.09371,0 -0.158475,-0.06477 -0.06477,-0.06477 -0.06477,-0.168121 0,-0.103353 0.06477,-0.16812 0.06477,-0.06477 0.158475,-0.06477 0.09371,0 0.158474,0.06477 0.06477,0.06477 0.06477,0.16812 0,0.103353 -0.06477,0.168121 -0.06477,0.06477 -0.158474,0.06477 z"
         id="path9160" />
      <path
         d="m 35.122012,74.004882 q -0.09371,0 -0.158474,-0.06477 -0.06477,-0.06477 -0.06477,-0.168121 0,-0.103353 0.06477,-0.16812 0.06477,-0.06477 0.158474,-0.06477 0.09371,0 0.158475,0.06477 0.06477,0.06477 0.06477,0.16812 0,0.103353 -0.06477,0.168121 -0.06477,0.06477 -0.158475,0.06477 z"
         id="path9162" />
    </g>
    <g
       id="g6943"
       transform="translate(2.35111,32.509565)">
      <g
         id="rect6528-4">
        <path
           style="color:#000000;fill:#ffffff;stroke-width:0.264583;-inkscape-stroke:none"
           d="M 71.517746,26.428049 H 89.132248 V 41.071953 H 71.517746 Z"
           id="path9233" />
        <path
           style="color:#000000;fill:#000000;-inkscape-stroke:none"
           d="m 71.384766,26.294922 v 0.132812 14.777344 H 89.263672 V 26.294922 Z m 0.265625,0.265625 H 89 V 40.939453 H 71.650391 Z"
           id="path9235" />
      </g>
      <g
         aria-label="- Object
- Object
- Object"
         id="text6851-4"
         style="font-size:2.82222px;font-family:Hack;-inkscape-font-specification:Hack;stroke-width:0.264583">
        <path
           d="m 73.80848,30.207099 h 1.131369 v 0.225998 H 73.80848 Z"
           id="path9237" />
        <path
           d="m 77.771715,31.188261 q -0.348643,0 -0.518142,-0.263205 -0.169498,-0.261827 -0.169498,-0.803395 0,-0.541569 0.170876,-0.803396 0.172255,-0.264583 0.516764,-0.264583 0.169499,0 0.300412,0.06339 0.130914,0.06339 0.219108,0.201193 0.169499,0.264583 0.169499,0.803396 0,0.537434 -0.169499,0.802017 -0.08819,0.137804 -0.219108,0.201194 -0.130913,0.06339 -0.300412,0.06339 z m 0,-0.225998 q 0.212218,0 0.305925,-0.194303 0.09233,-0.188791 0.09233,-0.646299 0,-0.457509 -0.09233,-0.647678 -0.09371,-0.194303 -0.305925,-0.194303 -0.209461,0 -0.303168,0.194303 -0.09371,0.198437 -0.09371,0.647678 0,0.447862 0.09371,0.646299 0.09371,0.194303 0.303168,0.194303 z"
           id="path9239" />
        <path
           d="m 79.56592,31.188261 q -0.292144,0 -0.424436,-0.234266 l -0.0248,0.194303 H 78.88793 v -2.144226 h 0.253558 v 0.797884 q 0.06339,-0.119889 0.175011,-0.176389 0.111621,-0.05788 0.250803,-0.05788 0.165364,0 0.278363,0.07166 0.112999,0.07028 0.180523,0.188791 0.0689,0.117133 0.09784,0.260449 0.03032,0.143316 0.03032,0.286631 0,0.144694 -0.03032,0.289388 -0.03032,0.143316 -0.09922,0.261827 -0.06752,0.118511 -0.180523,0.190169 -0.112999,0.07166 -0.278363,0.07166 z m -0.05099,-0.214973 q 0.121267,0 0.194303,-0.0565 0.07441,-0.0565 0.111621,-0.14745 0.03858,-0.09095 0.05236,-0.194303 0.01378,-0.103353 0.01378,-0.19706 0,-0.09371 -0.01378,-0.197059 -0.01378,-0.104731 -0.05236,-0.194303 -0.03721,-0.09095 -0.111621,-0.14745 -0.07304,-0.0565 -0.194303,-0.0565 -0.11989,0 -0.194304,0.0565 -0.07304,0.0565 -0.112999,0.146072 -0.03858,0.08957 -0.05236,0.194303 -0.01378,0.103353 -0.01378,0.197059 0,0.09509 0.01378,0.199816 0.01378,0.103353 0.05236,0.194303 0.03996,0.08957 0.112999,0.146072 0.07441,0.0565 0.194304,0.0565 z"
           id="path9241" />
        <path
           d="m 81.219564,29.325155 q -0.04134,0 -0.04134,-0.04134 v -0.2384 q 0,-0.04134 0.04134,-0.04134 h 0.198438 q 0.04134,0 0.04134,0.04134 v 0.2384 q 0,0.04134 -0.04134,0.04134 z m -0.570507,2.195213 h 0.322461 q 0.248046,0 0.248046,-0.344509 v -1.373903 h -0.436838 v -0.197059 h 0.690397 v 1.570962 q 0,0.267339 -0.124023,0.413411 -0.124024,0.146072 -0.350022,0.146072 h -0.350021 z"
           id="path9243" />
        <path
           d="m 82.954513,31.188261 q -0.356912,0 -0.560861,-0.213595 Q 82.19108,30.759692 82.19108,30.389 q 0,-0.230132 0.07993,-0.416167 0.08131,-0.186035 0.239779,-0.2949 0.159852,-0.110243 0.394118,-0.110243 0.308681,0 0.478179,0.198437 0.170877,0.197059 0.170877,0.547081 v 0.124023 h -1.098296 v 0.0083 q 0,0.241157 0.12678,0.384473 0.126779,0.143316 0.374826,0.143316 0.143316,0 0.276985,-0.04548 0.135048,-0.04547 0.260449,-0.110243 v 0.252181 q -0.130913,0.05374 -0.265961,0.08544 -0.133669,0.03307 -0.274229,0.03307 z M 83.3004,30.238794 q 0,-0.128158 -0.03858,-0.23151 -0.03858,-0.103353 -0.124023,-0.163987 -0.08406,-0.06063 -0.223242,-0.06063 -0.14056,0 -0.235645,0.06201 -0.09371,0.06063 -0.14745,0.163987 -0.05236,0.103352 -0.06614,0.230132 z"
           id="path9245" />
        <path
           d="m 84.69084,31.188261 q -0.243912,0 -0.410655,-0.101974 -0.165364,-0.103353 -0.250803,-0.286632 -0.08406,-0.183279 -0.08406,-0.42168 0,-0.239778 0.08544,-0.421679 0.08544,-0.183279 0.25218,-0.285254 0.166743,-0.103352 0.413411,-0.103352 0.128158,0 0.231511,0.03032 0.103352,0.02894 0.210839,0.08819 v 0.265961 q -0.09784,-0.08682 -0.197059,-0.128157 -0.09784,-0.04134 -0.223242,-0.04134 -0.186035,0 -0.297656,0.07993 -0.110243,0.07993 -0.159852,0.214973 -0.04823,0.135048 -0.04823,0.300412 0,0.163987 0.04961,0.300413 0.04961,0.135047 0.159852,0.214973 0.110243,0.07993 0.2949,0.07993 0.121267,0 0.225998,-0.03996 0.104731,-0.03996 0.195681,-0.126779 v 0.263205 q -0.197059,0.118511 -0.447862,0.118511 z"
           id="path9247" />
        <path
           d="m 86.53052,31.15381 q -0.283876,0 -0.402387,-0.114377 Q 86.011,30.923678 86.011,30.645315 V 29.801956 H 85.598967 V 29.604897 H 86.011 v -0.403765 l 0.253558,-0.110243 v 0.514008 h 0.57602 v 0.197059 h -0.57602 v 0.843359 q 0,0.169498 0.06477,0.2384 0.06477,0.06752 0.225998,0.06752 h 0.285254 v 0.202571 z"
           id="path9249" />
        <path
           d="m 73.80848,33.734874 h 1.131369 v 0.225998 H 73.80848 Z"
           id="path9251" />
        <path
           d="m 77.771715,34.716036 q -0.348643,0 -0.518142,-0.263205 -0.169498,-0.261827 -0.169498,-0.803395 0,-0.541569 0.170876,-0.803396 0.172255,-0.264583 0.516764,-0.264583 0.169499,0 0.300412,0.06339 0.130914,0.06339 0.219108,0.201193 0.169499,0.264583 0.169499,0.803396 0,0.537434 -0.169499,0.802017 -0.08819,0.137804 -0.219108,0.201194 -0.130913,0.06339 -0.300412,0.06339 z m 0,-0.225998 q 0.212218,0 0.305925,-0.194303 0.09233,-0.188791 0.09233,-0.646299 0,-0.457509 -0.09233,-0.647678 -0.09371,-0.194303 -0.305925,-0.194303 -0.209461,0 -0.303168,0.194303 -0.09371,0.198438 -0.09371,0.647678 0,0.447862 0.09371,0.646299 0.09371,0.194303 0.303168,0.194303 z"
           id="path9253" />
        <path
           d="m 79.56592,34.716036 q -0.292144,0 -0.424436,-0.234266 l -0.0248,0.194303 H 78.88793 v -2.144225 h 0.253558 v 0.797883 q 0.06339,-0.119889 0.175011,-0.176389 0.111621,-0.05788 0.250803,-0.05788 0.165364,0 0.278363,0.07166 0.112999,0.07028 0.180523,0.188791 0.0689,0.117133 0.09784,0.260449 0.03032,0.143316 0.03032,0.286632 0,0.144693 -0.03032,0.289387 -0.03032,0.143316 -0.09922,0.261827 -0.06752,0.118512 -0.180523,0.19017 -0.112999,0.07166 -0.278363,0.07166 z m -0.05099,-0.214973 q 0.121267,0 0.194303,-0.0565 0.07441,-0.0565 0.111621,-0.14745 0.03858,-0.09095 0.05236,-0.194303 0.01378,-0.103353 0.01378,-0.197059 0,-0.09371 -0.01378,-0.19706 -0.01378,-0.104731 -0.05236,-0.194303 -0.03721,-0.09095 -0.111621,-0.14745 -0.07304,-0.0565 -0.194303,-0.0565 -0.11989,0 -0.194304,0.0565 -0.07304,0.0565 -0.112999,0.146072 -0.03858,0.08957 -0.05236,0.194303 -0.01378,0.103353 -0.01378,0.19706 0,0.09508 0.01378,0.199815 0.01378,0.103353 0.05236,0.194303 0.03996,0.08957 0.112999,0.146072 0.07441,0.0565 0.194304,0.0565 z"
           id="path9255" />
        <path
           d="m 81.219564,32.85293 q -0.04134,0 -0.04134,-0.04134 v -0.2384 q 0,-0.04134 0.04134,-0.04134 h 0.198438 q 0.04134,0 0.04134,0.04134 v 0.2384 q 0,0.04134 -0.04134,0.04134 z m -0.570507,2.195213 h 0.322461 q 0.248046,0 0.248046,-0.344509 v -1.373903 h -0.436838 v -0.197059 h 0.690397 v 1.570962 q 0,0.267339 -0.124023,0.413411 -0.124024,0.146072 -0.350022,0.146072 h -0.350021 z"
           id="path9257" />
        <path
           d="m 82.954513,34.716036 q -0.356912,0 -0.560861,-0.213595 -0.202572,-0.214974 -0.202572,-0.585666 0,-0.230132 0.07993,-0.416167 0.08131,-0.186035 0.239779,-0.2949 0.159852,-0.110243 0.394118,-0.110243 0.308681,0 0.478179,0.198437 0.170877,0.197059 0.170877,0.547081 v 0.124023 h -1.098296 v 0.0083 q 0,0.241157 0.12678,0.384473 0.126779,0.143316 0.374826,0.143316 0.143316,0 0.276985,-0.04548 0.135048,-0.04548 0.260449,-0.110243 v 0.252181 q -0.130913,0.05374 -0.265961,0.08544 -0.133669,0.03307 -0.274229,0.03307 z M 83.3004,33.766569 q 0,-0.128158 -0.03858,-0.23151 -0.03858,-0.103353 -0.124023,-0.163987 -0.08406,-0.06063 -0.223242,-0.06063 -0.14056,0 -0.235645,0.06201 -0.09371,0.06063 -0.14745,0.163987 -0.05236,0.103352 -0.06614,0.230132 z"
           id="path9259" />
        <path
           d="m 84.69084,34.716036 q -0.243912,0 -0.410655,-0.101974 -0.165364,-0.103353 -0.250803,-0.286632 -0.08406,-0.183279 -0.08406,-0.421679 0,-0.239779 0.08544,-0.42168 0.08544,-0.183279 0.25218,-0.285253 0.166743,-0.103353 0.413411,-0.103353 0.128158,0 0.231511,0.03032 0.103352,0.02894 0.210839,0.08819 v 0.265961 q -0.09784,-0.08682 -0.197059,-0.128157 -0.09784,-0.04134 -0.223242,-0.04134 -0.186035,0 -0.297656,0.07993 -0.110243,0.07993 -0.159852,0.214974 -0.04823,0.135047 -0.04823,0.300412 0,0.163986 0.04961,0.300412 0.04961,0.135047 0.159852,0.214973 0.110243,0.07993 0.2949,0.07993 0.121267,0 0.225998,-0.03996 0.104731,-0.03996 0.195681,-0.12678 v 0.263205 q -0.197059,0.118511 -0.447862,0.118511 z"
           id="path9261" />
        <path
           d="m 86.53052,34.681586 q -0.283876,0 -0.402387,-0.114378 Q 86.011,34.451453 86.011,34.17309 V 33.329731 H 85.598967 V 33.132672 H 86.011 v -0.403765 l 0.253558,-0.110243 v 0.514008 h 0.57602 v 0.197059 h -0.57602 v 0.843359 q 0,0.169498 0.06477,0.2384 0.06477,0.06752 0.225998,0.06752 h 0.285254 v 0.202572 z"
           id="path9263" />
        <path
           d="m 73.80848,37.262649 h 1.131369 v 0.225998 H 73.80848 Z"
           id="path9265" />
        <path
           d="m 77.771715,38.243812 q -0.348643,0 -0.518142,-0.263206 -0.169498,-0.261827 -0.169498,-0.803395 0,-0.541569 0.170876,-0.803396 0.172255,-0.264583 0.516764,-0.264583 0.169499,0 0.300412,0.06339 0.130914,0.06339 0.219108,0.201193 0.169499,0.264583 0.169499,0.803396 0,0.537434 -0.169499,0.802017 -0.08819,0.137804 -0.219108,0.201194 -0.130913,0.06339 -0.300412,0.06339 z m 0,-0.225999 q 0.212218,0 0.305925,-0.194303 0.09233,-0.188791 0.09233,-0.646299 0,-0.457509 -0.09233,-0.647678 -0.09371,-0.194303 -0.305925,-0.194303 -0.209461,0 -0.303168,0.194303 -0.09371,0.198438 -0.09371,0.647678 0,0.447862 0.09371,0.646299 0.09371,0.194303 0.303168,0.194303 z"
           id="path9267" />
        <path
           d="m 79.56592,38.243812 q -0.292144,0 -0.424436,-0.234267 l -0.0248,0.194303 H 78.88793 v -2.144225 h 0.253558 v 0.797883 q 0.06339,-0.119889 0.175011,-0.176389 0.111621,-0.05788 0.250803,-0.05788 0.165364,0 0.278363,0.07166 0.112999,0.07028 0.180523,0.188791 0.0689,0.117133 0.09784,0.260449 0.03032,0.143316 0.03032,0.286632 0,0.144694 -0.03032,0.289387 -0.03032,0.143316 -0.09922,0.261827 -0.06752,0.118512 -0.180523,0.19017 -0.112999,0.07166 -0.278363,0.07166 z m -0.05099,-0.214974 q 0.121267,0 0.194303,-0.0565 0.07441,-0.0565 0.111621,-0.14745 0.03858,-0.09095 0.05236,-0.194303 0.01378,-0.103353 0.01378,-0.197059 0,-0.09371 -0.01378,-0.19706 -0.01378,-0.10473 -0.05236,-0.194303 -0.03721,-0.09095 -0.111621,-0.14745 -0.07304,-0.0565 -0.194303,-0.0565 -0.11989,0 -0.194304,0.0565 -0.07304,0.0565 -0.112999,0.146072 -0.03858,0.08957 -0.05236,0.194303 -0.01378,0.103353 -0.01378,0.19706 0,0.09508 0.01378,0.199815 0.01378,0.103353 0.05236,0.194303 0.03996,0.08957 0.112999,0.146072 0.07441,0.0565 0.194304,0.0565 z"
           id="path9269" />
        <path
           d="m 81.219564,36.380705 q -0.04134,0 -0.04134,-0.04134 v -0.2384 q 0,-0.04134 0.04134,-0.04134 h 0.198438 q 0.04134,0 0.04134,0.04134 v 0.2384 q 0,0.04134 -0.04134,0.04134 z m -0.570507,2.195214 h 0.322461 q 0.248046,0 0.248046,-0.34451 v -1.373903 h -0.436838 v -0.197059 h 0.690397 v 1.570962 q 0,0.267339 -0.124023,0.413411 -0.124024,0.146072 -0.350022,0.146072 h -0.350021 z"
           id="path9271" />
        <path
           d="m 82.954513,38.243812 q -0.356912,0 -0.560861,-0.213596 -0.202572,-0.214974 -0.202572,-0.585666 0,-0.230132 0.07993,-0.416167 0.08131,-0.186035 0.239779,-0.2949 0.159852,-0.110243 0.394118,-0.110243 0.308681,0 0.478179,0.198437 0.170877,0.19706 0.170877,0.547081 v 0.124023 h -1.098296 v 0.0083 q 0,0.241156 0.12678,0.384472 0.126779,0.143316 0.374826,0.143316 0.143316,0 0.276985,-0.04548 0.135048,-0.04548 0.260449,-0.110243 v 0.25218 q -0.130913,0.05374 -0.265961,0.08544 -0.133669,0.03307 -0.274229,0.03307 z M 83.3004,37.294344 q 0,-0.128157 -0.03858,-0.23151 -0.03858,-0.103353 -0.124023,-0.163987 -0.08406,-0.06063 -0.223242,-0.06063 -0.14056,0 -0.235645,0.06201 -0.09371,0.06063 -0.14745,0.163987 -0.05236,0.103353 -0.06614,0.230132 z"
           id="path9273" />
        <path
           d="m 84.69084,38.243812 q -0.243912,0 -0.410655,-0.101975 -0.165364,-0.103353 -0.250803,-0.286632 -0.08406,-0.183279 -0.08406,-0.421679 0,-0.239779 0.08544,-0.42168 0.08544,-0.183279 0.25218,-0.285253 0.166743,-0.103353 0.413411,-0.103353 0.128158,0 0.231511,0.03032 0.103352,0.02894 0.210839,0.08819 v 0.265961 q -0.09784,-0.08682 -0.197059,-0.128157 -0.09784,-0.04134 -0.223242,-0.04134 -0.186035,0 -0.297656,0.07993 -0.110243,0.07993 -0.159852,0.214974 -0.04823,0.135047 -0.04823,0.300412 0,0.163986 0.04961,0.300412 0.04961,0.135047 0.159852,0.214974 0.110243,0.07993 0.2949,0.07993 0.121267,0 0.225998,-0.03996 0.104731,-0.03996 0.195681,-0.12678 V 38.1253 q -0.197059,0.118512 -0.447862,0.118512 z"
           id="path9275" />
        <path
           d="m 86.53052,38.209361 q -0.283876,0 -0.402387,-0.114377 Q 86.011,37.979228 86.011,37.700865 V 36.857506 H 85.598967 V 36.660447 H 86.011 v -0.403765 l 0.253558,-0.110243 v 0.514008 h 0.57602 v 0.197059 h -0.57602 v 0.843359 q 0,0.169498 0.06477,0.2384 0.06477,0.06752 0.225998,0.06752 h 0.285254 v 0.202572 z"
           id="path9277" />
      </g>
    </g>
    <g
       id="path7182">
      <path
         style="color:#000000;fill:#000000;-inkscape-stroke:none"
         d="m 47.400391,71.625 0.0039,0.265625 c 2.811472,-0.03174 5.166772,2.111971 5.398437,4.914062 0.231665,2.802092 -1.739067,5.30591 -4.517578,5.736329 -2.778511,0.430418 -5.415977,-1.358758 -6.042969,-4.09961 L 41.984375,78.5 c 0.657439,2.873953 3.426402,4.754055 6.339844,4.302734 2.913442,-0.45132 4.985102,-3.081364 4.742187,-6.019531 C 52.823491,73.845036 50.348394,71.591721 47.400391,71.625 Z"
         id="path9334" />
      <g
         id="g9324">
        <g
           id="path9326">
          <path
             style="color:#000000;fill:#000000;fill-rule:evenodd;stroke-width:0.1325pt;-inkscape-stroke:none"
             d="m 48.166755,71.749645 -1.138573,0.675395 -0.01496,-1.324915 z"
             id="path9330" />
          <path
             style="color:#000000;fill:#000000;fill-rule:evenodd;-inkscape-stroke:none"
             d="m 46.923828,70.947266 0.01758,1.632812 1.402344,-0.832031 -0.132813,-0.07617 z m 0.179688,0.304687 0.886718,0.5 -0.875,0.519531 z"
             id="path9332" />
        </g>
      </g>
    </g>
    <g
       aria-label=".add_object(Object)"
       id="text7491"
       style="font-size:2.82223px;font-family:Hack;-inkscape-font-specification:Hack;stroke-width:0.264999">
      <path
         d="m 33.420267,86.308653 q -0.09371,0 -0.158475,-0.06477 -0.06477,-0.06477 -0.06477,-0.168121 0,-0.103353 0.06477,-0.168121 0.06477,-0.06477 0.158475,-0.06477 0.09371,0 0.158475,0.06477 0.06477,0.06477 0.06477,0.168121 0,0.103353 -0.06477,0.168121 -0.06477,0.06477 -0.158475,0.06477 z"
         style="stroke-width:0.265"
         id="path9342" />
      <path
         d="m 34.976076,86.311409 q -0.223242,0 -0.369315,-0.128157 -0.144694,-0.129536 -0.144694,-0.370694 0,-0.199816 0.09646,-0.311437 0.09646,-0.113 0.252181,-0.158475 0.155719,-0.04547 0.332109,-0.04547 h 0.340376 v -0.03996 q 0,-0.19706 -0.100597,-0.27423 -0.09922,-0.07717 -0.279743,-0.07717 -0.14056,0 -0.275608,0.03858 -0.135048,0.03859 -0.252182,0.107487 v -0.25356 q 0.12678,-0.04685 0.256316,-0.07717 0.129536,-0.03032 0.264584,-0.03032 0.137804,0 0.26734,0.03858 0.130914,0.03721 0.225999,0.124024 0.09508,0.08544 0.12678,0.230133 0.02205,0.101975 0.02205,0.307303 v 0.315572 q 0,0.129536 0.01378,0.286633 0.01516,0.157097 0.06752,0.278364 H 35.5645 q -0.02343,-0.05374 -0.03721,-0.114377 -0.01378,-0.06201 -0.02205,-0.11989 -0.08131,0.139182 -0.225999,0.206706 -0.143317,0.06752 -0.30317,0.06752 z m 0.06201,-0.212218 q 0.157097,0 0.254938,-0.07717 0.09922,-0.07717 0.144695,-0.201195 0.04547,-0.125401 0.04547,-0.268718 v -0.0565 h -0.321084 q -0.107487,0 -0.21084,0.0248 -0.101975,0.02343 -0.169499,0.09095 -0.06615,0.06752 -0.06615,0.19706 0,0.146073 0.08957,0.219109 0.08957,0.07166 0.232889,0.07166 z"
         style="stroke-width:0.265"
         id="path9344" />
      <path
         d="m 36.737214,86.311409 q -0.168121,0 -0.282498,-0.07166 -0.114378,-0.07166 -0.18328,-0.191548 -0.06752,-0.119889 -0.09784,-0.264584 -0.03032,-0.146072 -0.03032,-0.293523 0,-0.369315 0.161231,-0.584289 0.162609,-0.214975 0.438217,-0.214975 0.135049,0 0.242536,0.05788 0.107487,0.0565 0.170877,0.176389 v -0.797886 h 0.25356 v 2.144233 h -0.228755 l -0.0248,-0.194304 q -0.136426,0.234267 -0.418925,0.234267 z m 0.04548,-0.214974 q 0.119889,0 0.192926,-0.0565 0.07441,-0.0565 0.112999,-0.146072 0.03996,-0.09095 0.05374,-0.194304 0.01378,-0.104731 0.01378,-0.199816 0,-0.09371 -0.01378,-0.19706 -0.01378,-0.103353 -0.05374,-0.192926 -0.03858,-0.09095 -0.112999,-0.147451 -0.07304,-0.0565 -0.192926,-0.0565 -0.121268,0 -0.195682,0.0565 -0.07304,0.0565 -0.111622,0.147451 -0.03721,0.08957 -0.05099,0.192926 -0.01378,0.103353 -0.01378,0.19706 0,0.09371 0.01378,0.198438 0.01378,0.103353 0.05099,0.194304 0.03858,0.08957 0.111622,0.14745 0.07441,0.0565 0.195682,0.0565 z"
         style="stroke-width:0.265"
         id="path9346" />
      <path
         d="m 38.43634,86.311409 q -0.168121,0 -0.282498,-0.07166 -0.114378,-0.07166 -0.18328,-0.191548 -0.06752,-0.119889 -0.09784,-0.264584 -0.03032,-0.146072 -0.03032,-0.293523 0,-0.369315 0.161231,-0.584289 0.162609,-0.214975 0.438217,-0.214975 0.135049,0 0.242536,0.05788 0.107487,0.0565 0.170877,0.176389 v -0.797886 h 0.25356 v 2.144233 H 38.88007 l -0.02481,-0.194304 q -0.136426,0.234267 -0.418925,0.234267 z m 0.04548,-0.214974 q 0.119889,0 0.192926,-0.0565 0.07441,-0.0565 0.112999,-0.146072 0.03996,-0.09095 0.05374,-0.194304 0.01378,-0.104731 0.01378,-0.199816 0,-0.09371 -0.01378,-0.19706 -0.01378,-0.103353 -0.05374,-0.192926 -0.03858,-0.09095 -0.112999,-0.147451 -0.07304,-0.0565 -0.192926,-0.0565 -0.121268,0 -0.195682,0.0565 -0.07304,0.0565 -0.111622,0.147451 -0.03721,0.08957 -0.05099,0.192926 -0.01378,0.103353 -0.01378,0.19706 0,0.09371 0.01378,0.198438 0.01378,0.103353 0.05099,0.194304 0.03858,0.08957 0.111622,0.14745 0.07441,0.0565 0.195682,0.0565 z"
         style="stroke-width:0.265"
         id="path9348" />
      <path
         d="m 39.501567,86.533274 h 1.438676 v 0.165365 h -1.438676 z"
         style="stroke-width:0.265"
         id="path9350" />
      <path
         d="m 41.922786,86.311409 q -0.322461,0 -0.493339,-0.208084 -0.169499,-0.209462 -0.169499,-0.600826 0,-0.392742 0.170877,-0.602205 0.170878,-0.209462 0.490583,-0.209462 0.319706,0 0.489205,0.209462 0.170878,0.208085 0.170878,0.603583 0,0.392742 -0.1695,0.600826 -0.169499,0.206706 -0.489205,0.206706 z m -0.0014,-0.214974 q 0.188792,0 0.289389,-0.154341 0.101975,-0.154341 0.101975,-0.442351 0,-0.286633 -0.101975,-0.439596 -0.100597,-0.15434 -0.289389,-0.15434 -0.190169,0 -0.292144,0.15434 -0.100598,0.152963 -0.100598,0.439596 0,0.28801 0.101976,0.442351 0.101975,0.154341 0.290766,0.154341 z"
         style="stroke-width:0.265"
         id="path9352" />
      <path
         d="m 43.714242,86.311409 q -0.292145,0 -0.424437,-0.234267 L 43.265,86.271446 h -0.228755 v -2.144233 h 0.25356 v 0.797886 q 0.06339,-0.11989 0.175011,-0.176389 0.111621,-0.05788 0.250804,-0.05788 0.165365,0 0.278364,0.07166 0.113,0.07028 0.180524,0.188792 0.0689,0.117134 0.09784,0.26045 0.03032,0.143316 0.03032,0.286633 0,0.144694 -0.03032,0.289388 -0.03032,0.143317 -0.09922,0.261828 -0.06753,0.118512 -0.180524,0.19017 -0.112999,0.07166 -0.278364,0.07166 z m -0.05099,-0.214974 q 0.121268,0 0.194304,-0.0565 0.07441,-0.0565 0.111621,-0.14745 0.03859,-0.09095 0.05237,-0.194304 0.01378,-0.103353 0.01378,-0.19706 0,-0.09371 -0.01378,-0.19706 -0.01378,-0.104731 -0.05237,-0.194304 -0.03721,-0.09095 -0.111621,-0.147451 -0.07304,-0.0565 -0.194304,-0.0565 -0.11989,0 -0.194304,0.0565 -0.07304,0.0565 -0.112999,0.146073 -0.03859,0.08957 -0.05237,0.194304 -0.01378,0.103353 -0.01378,0.19706 0,0.09509 0.01378,0.199816 0.01378,0.103353 0.05237,0.194304 0.03996,0.08957 0.112999,0.146072 0.07441,0.0565 0.194304,0.0565 z"
         style="stroke-width:0.265"
         id="path9354" />
      <path
         d="m 45.367891,84.448297 q -0.04134,0 -0.04134,-0.04134 v -0.238401 q 0,-0.04134 0.04134,-0.04134 h 0.198439 q 0.04134,0 0.04134,0.04134 v 0.238401 q 0,0.04134 -0.04134,0.04134 z m -0.570509,2.195221 h 0.322462 q 0.248047,0 0.248047,-0.344511 v -1.373908 h -0.436839 v -0.19706 h 0.690399 v 1.570968 q 0,0.26734 -0.124024,0.413413 -0.124023,0.146072 -0.350022,0.146072 h -0.350023 z"
         style="stroke-width:0.265"
         id="path9356" />
      <path
         d="m 47.102847,86.311409 q -0.356913,0 -0.560863,-0.213596 -0.202573,-0.214975 -0.202573,-0.585668 0,-0.230133 0.07993,-0.416169 0.0813,-0.186035 0.239779,-0.294901 0.159853,-0.110243 0.39412,-0.110243 0.308682,0 0.478181,0.198438 0.170877,0.19706 0.170877,0.547083 v 0.124024 h -1.098299 v 0.0083 q 0,0.241157 0.126779,0.384474 0.12678,0.143316 0.374828,0.143316 0.143316,0 0.276986,-0.04547 0.135048,-0.04548 0.26045,-0.110244 v 0.252182 q -0.130914,0.05374 -0.265962,0.08544 -0.13367,0.03307 -0.27423,0.03307 z m 0.345888,-0.949471 q 0,-0.128157 -0.03858,-0.231511 -0.03859,-0.103353 -0.124024,-0.163987 -0.08406,-0.06063 -0.223242,-0.06063 -0.140561,0 -0.235646,0.06201 -0.09371,0.06063 -0.14745,0.163987 -0.05237,0.103354 -0.06615,0.230133 z"
         style="stroke-width:0.265"
         id="path9358" />
      <path
         d="m 48.83918,86.311409 q -0.243913,0 -0.410656,-0.101975 -0.165365,-0.103353 -0.250804,-0.286632 -0.08406,-0.18328 -0.08406,-0.421681 0,-0.23978 0.08544,-0.421681 0.08544,-0.18328 0.252182,-0.285255 0.166743,-0.103353 0.413412,-0.103353 0.128158,0 0.231511,0.03032 0.103354,0.02894 0.210841,0.08819 v 0.265962 q -0.09784,-0.08682 -0.19706,-0.128158 -0.09784,-0.04134 -0.223243,-0.04134 -0.186036,0 -0.297657,0.07993 -0.110243,0.07993 -0.159853,0.214975 -0.04823,0.135048 -0.04823,0.300413 0,0.163987 0.04961,0.300413 0.04961,0.135048 0.159853,0.214974 0.110243,0.07993 0.294901,0.07993 0.121268,0 0.225999,-0.03996 0.104731,-0.03996 0.195682,-0.12678 v 0.263206 q -0.19706,0.118511 -0.447864,0.118511 z"
         style="stroke-width:0.265"
         id="path9360" />
      <path
         d="m 50.678866,86.276958 q -0.283877,0 -0.402389,-0.114377 -0.117133,-0.115756 -0.117133,-0.39412 v -0.843362 h -0.412035 v -0.19706 h 0.412035 v -0.403766 l 0.25356,-0.110244 v 0.51401 h 0.576021 v 0.19706 h -0.576021 v 0.843362 q 0,0.169499 0.06477,0.238401 0.06477,0.06752 0.225998,0.06752 h 0.285255 v 0.202572 z"
         style="stroke-width:0.265"
         id="path9362" />
      <path
         d="m 52.085846,86.643518 q -0.21084,-0.334865 -0.310059,-0.639412 -0.101975,-0.314194 -0.101975,-0.618741 0,-0.301791 0.101975,-0.618741 0.05237,-0.158475 0.128158,-0.314193 0.07579,-0.157097 0.181901,-0.322462 h 0.220487 q -0.09784,0.166743 -0.163987,0.319706 -0.06477,0.151584 -0.108865,0.305925 -0.09095,0.31695 -0.09095,0.629765 0,0.625631 0.363803,1.258153 z"
         style="stroke-width:0.265"
         id="path9364" />
      <path
         d="m 53.813912,86.311409 q -0.348644,0 -0.518144,-0.263206 -0.169499,-0.261828 -0.169499,-0.803398 0,-0.541571 0.170877,-0.803399 0.172256,-0.264584 0.516766,-0.264584 0.169499,0 0.300413,0.06339 0.130914,0.06339 0.219109,0.201194 0.169499,0.264584 0.169499,0.803399 0,0.537436 -0.169499,0.80202 -0.08819,0.137805 -0.219109,0.201195 -0.130914,0.06339 -0.300413,0.06339 z m 0,-0.225998 q 0.212219,0 0.305926,-0.194304 0.09233,-0.188792 0.09233,-0.646302 0,-0.45751 -0.09233,-0.64768 -0.09371,-0.194304 -0.305926,-0.194304 -0.209462,0 -0.303169,0.194304 -0.09371,0.198438 -0.09371,0.64768 0,0.447864 0.09371,0.646302 0.09371,0.194304 0.303169,0.194304 z"
         style="stroke-width:0.265"
         id="path9366" />
      <path
         d="m 55.608122,86.311409 q -0.292145,0 -0.424437,-0.234267 l -0.0248,0.194304 H 54.93013 v -2.144233 h 0.253559 v 0.797886 q 0.06339,-0.11989 0.175012,-0.176389 0.111621,-0.05788 0.250803,-0.05788 0.165365,0 0.278365,0.07166 0.112999,0.07028 0.180523,0.188792 0.0689,0.117134 0.09784,0.26045 0.03032,0.143316 0.03032,0.286633 0,0.144694 -0.03032,0.289388 -0.03032,0.143317 -0.09922,0.261828 -0.06752,0.118512 -0.180523,0.19017 -0.113,0.07166 -0.278365,0.07166 z m -0.05099,-0.214974 q 0.121268,0 0.194304,-0.0565 0.07441,-0.0565 0.111621,-0.14745 0.03859,-0.09095 0.05237,-0.194304 0.01378,-0.103353 0.01378,-0.19706 0,-0.09371 -0.01378,-0.19706 -0.01378,-0.104731 -0.05237,-0.194304 -0.03721,-0.09095 -0.111621,-0.147451 -0.07304,-0.0565 -0.194304,-0.0565 -0.11989,0 -0.194304,0.0565 -0.07304,0.0565 -0.113,0.146073 -0.03858,0.08957 -0.05237,0.194304 -0.01378,0.103353 -0.01378,0.19706 0,0.09509 0.01378,0.199816 0.01378,0.103353 0.05237,0.194304 0.03996,0.08957 0.113,0.146072 0.07441,0.0565 0.194304,0.0565 z"
         style="stroke-width:0.265"
         id="path9368" />
      <path
         d="m 57.261772,84.448297 q -0.04134,0 -0.04134,-0.04134 v -0.238401 q 0,-0.04134 0.04134,-0.04134 h 0.198438 q 0.04134,0 0.04134,0.04134 v 0.238401 q 0,0.04134 -0.04134,0.04134 z m -0.570509,2.195221 h 0.322462 q 0.248047,0 0.248047,-0.344511 v -1.373908 h -0.436839 v -0.19706 h 0.690399 v 1.570968 q 0,0.26734 -0.124024,0.413413 -0.124024,0.146072 -0.350022,0.146072 h -0.350023 z"
         style="stroke-width:0.265"
         id="path9370" />
      <path
         d="m 58.996729,86.311409 q -0.356913,0 -0.560864,-0.213596 -0.202572,-0.214975 -0.202572,-0.585668 0,-0.230133 0.07993,-0.416169 0.0813,-0.186035 0.239779,-0.294901 0.159853,-0.110243 0.39412,-0.110243 0.308681,0 0.478181,0.198438 0.170877,0.19706 0.170877,0.547083 v 0.124024 h -1.0983 v 0.0083 q 0,0.241157 0.12678,0.384474 0.12678,0.143316 0.374828,0.143316 0.143316,0 0.276986,-0.04547 0.135048,-0.04548 0.26045,-0.110244 v 0.252182 q -0.130914,0.05374 -0.265962,0.08544 -0.13367,0.03307 -0.27423,0.03307 z m 0.345888,-0.949471 q 0,-0.128157 -0.03858,-0.231511 -0.03858,-0.103353 -0.124024,-0.163987 -0.08406,-0.06063 -0.223243,-0.06063 -0.14056,0 -0.235645,0.06201 -0.09371,0.06063 -0.14745,0.163987 -0.05237,0.103354 -0.06615,0.230133 z"
         style="stroke-width:0.265"
         id="path9372" />
      <path
         d="m 60.733061,86.311409 q -0.243913,0 -0.410657,-0.101975 -0.165365,-0.103353 -0.250803,-0.286632 -0.08406,-0.18328 -0.08406,-0.421681 0,-0.23978 0.08544,-0.421681 0.08544,-0.18328 0.252182,-0.285255 0.166743,-0.103353 0.413412,-0.103353 0.128158,0 0.231511,0.03032 0.103353,0.02894 0.210841,0.08819 v 0.265962 q -0.09784,-0.08682 -0.19706,-0.128158 -0.09784,-0.04134 -0.223243,-0.04134 -0.186036,0 -0.297657,0.07993 -0.110244,0.07993 -0.159853,0.214975 -0.04823,0.135048 -0.04823,0.300413 0,0.163987 0.04961,0.300413 0.04961,0.135048 0.159853,0.214974 0.110243,0.07993 0.294901,0.07993 0.121268,0 0.225999,-0.03996 0.104731,-0.03996 0.195682,-0.12678 v 0.263206 q -0.19706,0.118511 -0.447864,0.118511 z"
         style="stroke-width:0.265"
         id="path9374" />
      <path
         d="m 62.572747,86.276958 q -0.283877,0 -0.402389,-0.114377 -0.117133,-0.115756 -0.117133,-0.39412 V 84.925099 H 61.64119 v -0.19706 h 0.412035 v -0.403766 l 0.253559,-0.110244 v 0.51401 h 0.576022 v 0.19706 h -0.576022 v 0.843362 q 0,0.169499 0.06477,0.238401 0.06477,0.06752 0.225999,0.06752 h 0.285255 v 0.202572 z"
         style="stroke-width:0.265"
         id="path9376" />
      <path
         d="m 63.818498,86.643518 q 0.180523,-0.315572 0.27423,-0.632522 0.04272,-0.14745 0.06615,-0.305925 0.02343,-0.158475 0.02343,-0.319706 0,-0.316949 -0.08957,-0.627009 -0.04272,-0.14745 -0.111621,-0.305925 -0.06752,-0.158475 -0.162609,-0.322462 h 0.220487 q 0.21084,0.326596 0.310059,0.636655 0.101975,0.31695 0.101975,0.618741 0,0.304547 -0.101975,0.621497 -0.100597,0.311438 -0.310059,0.636656 z"
         style="stroke-width:0.265"
         id="path9378" />
    </g>
    <g
       aria-label=".get( )"
       id="text7491-9"
       style="font-size:2.82223px;font-family:Hack;-inkscape-font-specification:Hack;stroke-width:0.264999">
      <path
         d="m 56.023458,60.040282 q -0.09371,0 -0.158474,-0.06477 -0.06477,-0.06477 -0.06477,-0.168121 0,-0.103353 0.06477,-0.168121 0.06477,-0.06477 0.158474,-0.06477 0.09371,0 0.158475,0.06477 0.06477,0.06477 0.06477,0.168121 0,0.103353 -0.06477,0.168121 -0.06477,0.06477 -0.158475,0.06477 z"
         style="stroke-width:0.265"
         id="path9423" />
      <path
         d="m 57.703292,60.609413 q -0.111622,0 -0.224621,-0.02067 -0.111622,-0.02067 -0.220487,-0.05512 v -0.250804 q 0.104731,0.04961 0.220487,0.08682 0.117133,0.03721 0.238401,0.03721 0.148829,0 0.231511,-0.05926 0.08268,-0.05926 0.115756,-0.165365 0.03445,-0.104731 0.03445,-0.241157 v -0.18328 q -0.06201,0.132292 -0.168121,0.194304 -0.10611,0.06201 -0.249426,0.06201 -0.163987,0 -0.278365,-0.07028 -0.114377,-0.07028 -0.184657,-0.186036 -0.0689,-0.117133 -0.100597,-0.257694 -0.03169,-0.141938 -0.03169,-0.282498 0,-0.140561 0.03169,-0.281121 0.03169,-0.14056 0.101975,-0.256316 0.07028,-0.117133 0.184658,-0.187413 0.115755,-0.07028 0.28112,-0.07028 0.139182,0 0.242535,0.05788 0.103354,0.05788 0.170878,0.184658 l 0.0248,-0.199816 h 0.228755 v 1.438676 q 0,0.323839 -0.15434,0.514009 -0.152963,0.191548 -0.494717,0.191548 z m 0.02894,-0.806154 q 0.180523,0 0.272852,-0.150207 0.09371,-0.150207 0.09371,-0.436839 0,-0.09233 -0.01378,-0.192926 -0.01378,-0.100597 -0.05237,-0.187414 -0.03721,-0.08819 -0.110244,-0.143316 -0.07304,-0.05512 -0.191548,-0.05512 -0.183279,0 -0.28112,0.146072 -0.09646,0.146073 -0.09646,0.42995 0,0.286632 0.09922,0.438217 0.09922,0.151585 0.279743,0.151585 z"
         style="stroke-width:0.265"
         id="path9425" />
      <path
         d="m 59.511283,60.043038 q -0.356913,0 -0.560863,-0.213597 -0.202572,-0.214974 -0.202572,-0.585668 0,-0.230133 0.07993,-0.416168 0.0813,-0.186036 0.239779,-0.294901 0.159853,-0.110244 0.39412,-0.110244 0.308682,0 0.478181,0.198438 0.170877,0.19706 0.170877,0.547083 v 0.124024 h -1.098299 v 0.0083 q 0,0.241158 0.126779,0.384474 0.12678,0.143316 0.374828,0.143316 0.143316,0 0.276986,-0.04548 0.135048,-0.04547 0.26045,-0.110243 v 0.252181 q -0.130914,0.05374 -0.265962,0.08544 -0.13367,0.03307 -0.27423,0.03307 z m 0.345888,-0.949471 q 0,-0.128158 -0.03858,-0.231511 -0.03859,-0.103353 -0.124024,-0.163987 -0.08406,-0.06063 -0.223242,-0.06063 -0.140561,0 -0.235646,0.06201 -0.09371,0.06063 -0.14745,0.163987 -0.05237,0.103353 -0.06615,0.230133 z"
         style="stroke-width:0.265"
         id="path9427" />
      <path
         d="m 61.388176,60.008587 q -0.283876,0 -0.402388,-0.114378 -0.117134,-0.115755 -0.117134,-0.39412 V 58.656728 H 60.45662 v -0.19706 h 0.412034 v -0.403767 l 0.25356,-0.110243 v 0.51401 h 0.576022 v 0.19706 h -0.576022 v 0.843361 q 0,0.169499 0.06477,0.238402 0.06477,0.06752 0.225999,0.06752 h 0.285255 v 0.202572 z"
         style="stroke-width:0.265"
         id="path9429" />
      <path
         d="m 62.795157,60.375146 q -0.21084,-0.334864 -0.310059,-0.639412 -0.101975,-0.314193 -0.101975,-0.61874 0,-0.301792 0.101975,-0.618741 0.05237,-0.158475 0.128158,-0.314194 0.07579,-0.157097 0.181901,-0.322462 h 0.220487 q -0.09784,0.166743 -0.163987,0.319706 -0.06477,0.151585 -0.108865,0.305925 -0.09095,0.31695 -0.09095,0.629766 0,0.625631 0.363803,1.258152 z"
         style="stroke-width:0.265"
         id="path9431" />
      <path
         d="m 66.032178,60.375146 q 0.180524,-0.315572 0.274231,-0.632521 0.04272,-0.147451 0.06615,-0.305926 0.02343,-0.158474 0.02343,-0.319705 0,-0.31695 -0.08957,-0.62701 -0.04272,-0.14745 -0.111622,-0.305925 -0.06752,-0.158475 -0.162609,-0.322462 h 0.220487 q 0.21084,0.326596 0.310059,0.636656 0.101976,0.316949 0.101976,0.618741 0,0.304547 -0.101976,0.621497 -0.100597,0.311437 -0.310059,0.636655 z"
         style="stroke-width:0.265"
         id="path9433" />
    </g>
    <g
       id="path7813">
      <path
         style="color:#000000;fill:#000000;stroke-width:0.264999;-inkscape-stroke:none"
         d="M 48.59606,61.424999 H 72.476667"
         id="path9462" />
      <path
         style="color:#000000;fill:#000000;-inkscape-stroke:none"
         d="m 48.595703,61.292969 v 0.263672 h 23.880859 v -0.263672 z"
         id="path9464" />
      <g
         id="g9452">
        <g
           id="path9454">
          <path
             style="color:#000000;fill:#000000;fill-rule:evenodd;stroke-width:0.1325pt;-inkscape-stroke:none"
             d="m 73.506188,61.424999 -1.146121,0.662498 v -1.324996 z"
             id="path9458" />
          <path
             style="color:#000000;fill:#000000;fill-rule:evenodd;-inkscape-stroke:none"
             d="m 72.271484,60.609375 v 1.630859 l 1.41211,-0.814453 -0.132813,-0.07813 z m 0.177735,0.306641 0.880859,0.509765 -0.880859,0.509766 z"
             id="path9460" />
        </g>
      </g>
    </g>
    <g
       id="g8922"
       transform="translate(-6.9112987,8.0211952)">
      <g
         id="rect6945">
        <path
           style="color:#000000;fill:#ffffff;stroke-width:0.264583;-inkscape-stroke:none"
           d="M 60.56208,19.72821 H 83.609171 V 42.78348 H 60.56208 Z"
           id="path9472" />
        <path
           style="color:#000000;fill:#000000;-inkscape-stroke:none"
           d="m 60.429687,19.595703 v 0.132813 23.1875 h 23.3125 V 19.595703 Z m 0.265625,0.265625 h 22.78125 v 22.789063 h -22.78125 z"
           id="path9474" />
      </g>
      <g
         aria-label="- class
- args
- kwargs"
         id="text6851-5"
         style="font-size:2.82222px;font-family:Hack;-inkscape-font-specification:Hack;stroke-width:0.264583">
        <path
           d="m 63.323495,31.824552 h 1.131369 v 0.225998 h -1.131369 z"
           id="path9476" />
        <path
           d="m 67.409375,32.805714 q -0.243912,0 -0.410655,-0.101975 -0.165364,-0.103353 -0.250803,-0.286632 -0.08406,-0.183278 -0.08406,-0.421679 0,-0.239778 0.08544,-0.421679 0.08544,-0.183279 0.252181,-0.285254 0.166743,-0.103353 0.413411,-0.103353 0.128158,0 0.231511,0.03032 0.103352,0.02894 0.210839,0.08819 v 0.265962 q -0.09784,-0.08682 -0.197059,-0.128158 -0.09784,-0.04134 -0.223242,-0.04134 -0.186035,0 -0.297656,0.07993 -0.110243,0.07993 -0.159852,0.214974 -0.04823,0.135048 -0.04823,0.300412 0,0.163987 0.04961,0.300412 0.04961,0.135048 0.159852,0.214974 0.110243,0.07993 0.2949,0.07993 0.121267,0 0.225998,-0.03996 0.104731,-0.03996 0.195681,-0.126779 v 0.263205 q -0.197059,0.118511 -0.447862,0.118511 z"
           id="path9478" />
        <path
           d="m 69.268348,32.776775 q -0.227377,0 -0.352778,-0.146072 -0.124023,-0.14745 -0.124023,-0.413411 v -1.39733 h -0.406521 v -0.198437 h 0.66008 v 1.595767 q 0,0.168121 0.06339,0.256315 0.06339,0.08819 0.184657,0.08819 h 0.296278 v 0.214974 z"
           id="path9480" />
        <path
           d="m 70.53752,32.805714 q -0.223242,0 -0.369314,-0.128157 -0.144694,-0.129536 -0.144694,-0.370692 0,-0.199816 0.09646,-0.311437 0.09646,-0.112999 0.252181,-0.158474 0.155718,-0.04547 0.332107,-0.04547 h 0.340375 v -0.03996 q 0,-0.19706 -0.100596,-0.27423 -0.09922,-0.07717 -0.279742,-0.07717 -0.14056,0 -0.275607,0.03858 -0.135048,0.03859 -0.252181,0.107487 v -0.253559 q 0.126779,-0.04685 0.256315,-0.07717 0.129535,-0.03032 0.264583,-0.03032 0.137804,0 0.267339,0.03859 0.130914,0.03721 0.225998,0.124024 0.09508,0.08544 0.12678,0.230132 0.02205,0.101975 0.02205,0.307302 v 0.315571 q 0,0.129535 0.01378,0.286631 0.01516,0.157097 0.06752,0.278364 h -0.254937 q -0.02343,-0.05374 -0.03721,-0.114377 -0.01378,-0.06201 -0.02205,-0.119889 -0.0813,0.139181 -0.225998,0.206705 -0.143316,0.06752 -0.303168,0.06752 z m 0.06201,-0.212218 q 0.157096,0 0.254937,-0.07717 0.09922,-0.07717 0.144694,-0.201193 0.04547,-0.125402 0.04547,-0.268718 v -0.0565 h -0.321082 q -0.107487,0 -0.21084,0.02481 -0.101975,0.02343 -0.169499,0.09095 -0.06614,0.06752 -0.06614,0.197059 0,0.146072 0.08957,0.219108 0.08957,0.07166 0.232888,0.07166 z"
           id="path9482" />
        <path
           d="m 72.346882,32.805714 q -0.220486,0 -0.518142,-0.09646 v -0.261827 q 0.289388,0.146072 0.515386,0.146072 0.16123,0 0.257693,-0.06752 0.09646,-0.06752 0.09646,-0.180522 0,-0.09784 -0.08131,-0.157097 -0.07993,-0.06063 -0.256315,-0.09784 l -0.106108,-0.02205 q -0.21773,-0.0441 -0.319705,-0.144694 -0.100597,-0.101975 -0.100597,-0.276985 0,-0.221864 0.151584,-0.341753 0.151584,-0.11989 0.431326,-0.11989 0.237022,0 0.458886,0.09095 v 0.248046 q -0.216351,-0.126779 -0.451996,-0.126779 -0.333485,0 -0.333485,0.227376 0,0.07441 0.02894,0.118511 0.02894,0.04272 0.110243,0.07304 0.0813,0.02894 0.239778,0.06063 l 0.101975,0.01929 q 0.383095,0.07579 0.383095,0.417546 0,0.228754 -0.162609,0.361045 -0.162608,0.130914 -0.445106,0.130914 z"
           id="path9484" />
        <path
           d="m 74.046003,32.805714 q -0.220486,0 -0.518142,-0.09646 v -0.261827 q 0.289387,0.146072 0.515386,0.146072 0.16123,0 0.257693,-0.06752 0.09646,-0.06752 0.09646,-0.180522 0,-0.09784 -0.0813,-0.157097 -0.07993,-0.06063 -0.256315,-0.09784 l -0.106109,-0.02205 q -0.21773,-0.0441 -0.319704,-0.144694 -0.100597,-0.101975 -0.100597,-0.276985 0,-0.221864 0.151584,-0.341753 0.151584,-0.11989 0.431326,-0.11989 0.237022,0 0.458886,0.09095 v 0.248046 q -0.216352,-0.126779 -0.451996,-0.126779 -0.333485,0 -0.333485,0.227376 0,0.07441 0.02894,0.118511 0.02894,0.04272 0.110242,0.07304 0.08131,0.02894 0.239779,0.06063 l 0.101975,0.01929 q 0.383094,0.07579 0.383094,0.417546 0,0.228754 -0.162608,0.361045 -0.162609,0.130914 -0.445106,0.130914 z"
           id="path9486" />
        <path
           d="m 63.323495,35.352327 h 1.131369 v 0.225998 h -1.131369 z"
           id="path9488" />
        <path
           d="m 67.13928,36.333489 q -0.223242,0 -0.369314,-0.128157 -0.144694,-0.129536 -0.144694,-0.370692 0,-0.199816 0.09646,-0.311437 0.09646,-0.112999 0.252181,-0.158474 0.155718,-0.04547 0.332106,-0.04547 h 0.340376 v -0.03996 q 0,-0.19706 -0.100597,-0.27423 -0.09922,-0.07717 -0.279742,-0.07717 -0.140559,0 -0.275607,0.03858 -0.135048,0.03858 -0.252181,0.107487 v -0.253559 q 0.12678,-0.04685 0.256315,-0.07717 0.129536,-0.03032 0.264583,-0.03032 0.137804,0 0.267339,0.03859 0.130914,0.03721 0.225999,0.124024 0.09508,0.08544 0.126779,0.230132 0.02205,0.101975 0.02205,0.307302 v 0.315571 q 0,0.129535 0.01378,0.286631 0.01516,0.157097 0.06752,0.278364 h -0.254937 q -0.02343,-0.05374 -0.03721,-0.114377 -0.01378,-0.06201 -0.02205,-0.119889 -0.0813,0.139181 -0.225998,0.206705 -0.143316,0.06752 -0.303168,0.06752 z m 0.06201,-0.212218 q 0.157096,0 0.254937,-0.07717 0.09922,-0.07717 0.144693,-0.201193 0.04548,-0.125402 0.04548,-0.268717 v -0.0565 h -0.321083 q -0.107487,0 -0.21084,0.02481 -0.101974,0.02343 -0.169498,0.09095 -0.06615,0.06752 -0.06615,0.19706 0,0.146071 0.08957,0.219107 0.08957,0.07166 0.232889,0.07166 z"
           id="path9490" />
        <path
           d="m 68.553146,34.750124 h 0.230133 l 0.0248,0.301791 q 0.06477,-0.163987 0.194303,-0.250803 0.130914,-0.0882 0.312815,-0.0882 0.190169,0 0.330729,0.09646 v 0.259071 q -0.148828,-0.121267 -0.352778,-0.121267 -0.234266,0 -0.359667,0.150206 -0.125402,0.148828 -0.125402,0.428569 v 0.767567 h -0.254937 z"
           id="path9492" />
        <path
           d="m 70.661543,36.899862 q -0.111621,0 -0.22462,-0.02067 -0.111621,-0.02067 -0.220486,-0.05512 V 36.57327 q 0.104731,0.04961 0.220486,0.08682 0.117133,0.03721 0.2384,0.03721 0.148828,0 0.231511,-0.05926 0.08268,-0.05926 0.115755,-0.165364 0.03445,-0.104731 0.03445,-0.241157 V 36.04824 q -0.06201,0.132292 -0.168121,0.194304 -0.106109,0.06201 -0.249425,0.06201 -0.163986,0 -0.278363,-0.07028 -0.114377,-0.07028 -0.184657,-0.186035 -0.0689,-0.117133 -0.100597,-0.257693 -0.03169,-0.141937 -0.03169,-0.282497 0,-0.14056 0.03169,-0.28112 0.03169,-0.14056 0.101975,-0.256315 0.07028,-0.117133 0.184657,-0.187413 0.115755,-0.07028 0.281119,-0.07028 0.139182,0 0.242535,0.05788 0.103353,0.05788 0.170877,0.184657 l 0.0248,-0.199815 h 0.228754 v 1.43867 q 0,0.323839 -0.15434,0.514008 -0.152962,0.191547 -0.494715,0.191547 z m 0.02894,-0.806151 q 0.180523,0 0.272851,-0.150206 0.09371,-0.150206 0.09371,-0.436838 0,-0.09233 -0.01378,-0.192925 -0.01378,-0.100597 -0.05237,-0.187413 -0.03721,-0.08819 -0.110243,-0.143316 -0.07304,-0.05512 -0.191547,-0.05512 -0.183279,0 -0.28112,0.146072 -0.09646,0.146072 -0.09646,0.429948 0,0.286631 0.09922,0.438216 0.09922,0.151584 0.279742,0.151584 z"
           id="path9494" />
        <path
           d="m 72.346882,36.333489 q -0.220486,0 -0.518142,-0.09646 v -0.261827 q 0.289388,0.146072 0.515386,0.146072 0.16123,0 0.257693,-0.06752 0.09646,-0.06752 0.09646,-0.180523 0,-0.09784 -0.08131,-0.157097 -0.07993,-0.06063 -0.256315,-0.09784 l -0.106108,-0.02205 q -0.21773,-0.0441 -0.319705,-0.144694 -0.100597,-0.101974 -0.100597,-0.276985 0,-0.221864 0.151584,-0.341753 0.151584,-0.11989 0.431326,-0.11989 0.237022,0 0.458886,0.09095 v 0.248047 q -0.216351,-0.12678 -0.451996,-0.12678 -0.333485,0 -0.333485,0.227376 0,0.07441 0.02894,0.118511 0.02894,0.04272 0.110243,0.07304 0.0813,0.02894 0.239778,0.06063 l 0.101975,0.01929 q 0.383095,0.07579 0.383095,0.417545 0,0.228754 -0.162609,0.361046 -0.162608,0.130913 -0.445106,0.130913 z"
           id="path9496" />
        <path
           d="m 63.323495,38.880102 h 1.131369 V 39.1061 h -1.131369 z"
           id="path9498" />
        <path
           d="m 66.749295,37.677075 h 0.261828 v 1.241612 l 0.665591,-0.640788 h 0.308681 l -0.607715,0.581532 0.702799,0.96187 h -0.310058 l -0.570507,-0.796505 -0.188791,0.177766 v 0.618739 h -0.261828 z"
           id="path9500" />
        <path
           d="m 68.136979,38.277899 h 0.250803 l 0.268717,1.247124 0.220486,-0.796505 h 0.216352 l 0.223242,0.796505 0.268717,-1.247124 h 0.250803 l -0.361046,1.543402 h -0.242534 l -0.246669,-0.846115 -0.245291,0.846115 h -0.242534 z"
           id="path9502" />
        <path
           d="m 70.53752,39.861264 q -0.223242,0 -0.369314,-0.128157 -0.144694,-0.129536 -0.144694,-0.370692 0,-0.199816 0.09646,-0.311437 0.09646,-0.112999 0.252181,-0.158474 0.155718,-0.04548 0.332107,-0.04548 h 0.340375 v -0.03996 q 0,-0.19706 -0.100596,-0.27423 -0.09922,-0.07717 -0.279742,-0.07717 -0.14056,0 -0.275607,0.03858 -0.135048,0.03859 -0.252181,0.107487 v -0.253559 q 0.126779,-0.04685 0.256315,-0.07717 0.129535,-0.03032 0.264583,-0.03032 0.137804,0 0.267339,0.03859 0.130914,0.03721 0.225998,0.124023 0.09508,0.08544 0.12678,0.230132 0.02205,0.101975 0.02205,0.307302 V 39.2563 q 0,0.129535 0.01378,0.286632 0.01516,0.157096 0.06752,0.278363 h -0.254937 q -0.02343,-0.05374 -0.03721,-0.114377 -0.01378,-0.06201 -0.02205,-0.119889 -0.0813,0.139182 -0.225998,0.206705 -0.143316,0.06752 -0.303168,0.06752 z m 0.06201,-0.212218 q 0.157096,0 0.254937,-0.07717 0.09922,-0.07717 0.144694,-0.201193 0.04547,-0.125401 0.04547,-0.268717 v -0.0565 h -0.321082 q -0.107487,0 -0.21084,0.02481 -0.101975,0.02343 -0.169499,0.09095 -0.06614,0.06752 -0.06614,0.19706 0,0.146072 0.08957,0.219108 0.08957,0.07166 0.232888,0.07166 z"
           id="path9504" />
        <path
           d="m 71.951385,38.277899 h 0.230133 l 0.0248,0.301791 q 0.06477,-0.163987 0.194304,-0.250803 0.130913,-0.08819 0.312814,-0.08819 0.190169,0 0.330729,0.09646 v 0.259071 q -0.148828,-0.121267 -0.352778,-0.121267 -0.234266,0 -0.359667,0.150206 -0.125402,0.148828 -0.125402,0.428569 v 0.767567 h -0.254937 z"
           id="path9506" />
        <path
           d="m 74.059783,40.427637 q -0.111621,0 -0.22462,-0.02067 -0.111621,-0.02067 -0.220486,-0.05512 v -0.250802 q 0.104731,0.04961 0.220486,0.08682 0.117133,0.03721 0.2384,0.03721 0.148828,0 0.231511,-0.05926 0.08268,-0.05926 0.115755,-0.165364 0.03445,-0.104731 0.03445,-0.241157 V 39.57601 q -0.06201,0.132292 -0.168121,0.194304 -0.106109,0.06201 -0.249425,0.06201 -0.163986,0 -0.278363,-0.07028 -0.114377,-0.07028 -0.184657,-0.186036 -0.0689,-0.117133 -0.100597,-0.257692 -0.0317,-0.141938 -0.0317,-0.282498 0,-0.14056 0.0317,-0.28112 0.03169,-0.140559 0.101975,-0.256315 0.07028,-0.117133 0.184657,-0.187413 0.115755,-0.07028 0.28112,-0.07028 0.139181,0 0.242534,0.05788 0.103353,0.05788 0.170877,0.184657 l 0.0248,-0.199815 h 0.228755 v 1.43867 q 0,0.323839 -0.154341,0.514008 -0.152962,0.191547 -0.494715,0.191547 z m 0.02894,-0.806151 q 0.180523,0 0.272851,-0.150206 0.09371,-0.150206 0.09371,-0.436838 0,-0.09233 -0.01378,-0.192925 -0.01378,-0.100597 -0.05236,-0.187413 -0.03721,-0.08819 -0.110243,-0.143316 -0.07304,-0.05512 -0.191547,-0.05512 -0.183279,0 -0.28112,0.146072 -0.09646,0.146072 -0.09646,0.429948 0,0.286632 0.09922,0.438216 0.09922,0.151584 0.279742,0.151584 z"
           id="path9508" />
        <path
           d="m 75.745122,39.861264 q -0.220486,0 -0.518142,-0.09646 v -0.261827 q 0.289388,0.146071 0.515386,0.146071 0.16123,0 0.257693,-0.06752 0.09646,-0.06752 0.09646,-0.180523 0,-0.09784 -0.0813,-0.157096 -0.07993,-0.06063 -0.256314,-0.09784 l -0.106109,-0.02205 q -0.21773,-0.0441 -0.319705,-0.144694 -0.100597,-0.101974 -0.100597,-0.276985 0,-0.221864 0.151584,-0.341753 0.151585,-0.11989 0.431326,-0.11989 0.237022,0 0.458886,0.09095 v 0.248047 q -0.216351,-0.12678 -0.451996,-0.12678 -0.333485,0 -0.333485,0.227376 0,0.07441 0.02894,0.118512 0.02894,0.04272 0.110243,0.07304 0.0813,0.02894 0.239779,0.06063 l 0.101974,0.01929 q 0.383095,0.07579 0.383095,0.417545 0,0.228754 -0.162609,0.361046 -0.162608,0.130913 -0.445106,0.130913 z"
           id="path9510" />
      </g>
      <g
         aria-label="Selector"
         id="text6636-0"
         style="font-weight:bold;font-size:4.23333px;font-family:Montserrat;-inkscape-font-specification:'Montserrat Bold';text-align:center;text-anchor:middle;stroke-width:0.264583">
        <path
           d="m 64.589409,25.403476 q -0.351367,0 -0.681566,-0.09313 -0.325967,-0.09737 -0.524933,-0.249766 l 0.232833,-0.516467 q 0.1905,0.1397 0.452966,0.224367 0.262467,0.08467 0.524933,0.08467 0.2921,0 0.4318,-0.08467 0.1397,-0.0889 0.1397,-0.232833 0,-0.105833 -0.08467,-0.173567 -0.08043,-0.07197 -0.211666,-0.1143 -0.127,-0.04233 -0.347133,-0.09313 -0.338667,-0.08043 -0.554567,-0.160866 -0.215899,-0.08043 -0.372533,-0.258234 -0.1524,-0.177799 -0.1524,-0.474133 0,-0.258233 0.1397,-0.465666 0.1397,-0.211666 0.4191,-0.334433 0.283633,-0.122766 0.690033,-0.122766 0.283633,0 0.554566,0.06773 0.270933,0.06773 0.474133,0.194733 l -0.211667,0.5207 q -0.410633,-0.232834 -0.821266,-0.232834 -0.287866,0 -0.427566,0.09313 -0.135466,0.09313 -0.135466,0.245533 0,0.1524 0.156633,0.2286 0.160866,0.07197 0.486833,0.143933 0.338666,0.08043 0.554566,0.160866 0.2159,0.08043 0.3683,0.254 0.156633,0.173567 0.156633,0.4699 0,0.254 -0.143933,0.465666 -0.1397,0.207433 -0.423333,0.3302 -0.283634,0.122766 -0.690033,0.122766 z"
           id="path9549" />
        <path
           d="m 68.501008,24.222377 q 0,0.0127 -0.0127,0.1778 h -1.722966 q 0.04657,0.211667 0.220134,0.334433 0.173566,0.122767 0.431799,0.122767 0.1778,0 0.313267,-0.0508 0.139699,-0.05503 0.258233,-0.169333 l 0.351366,0.380999 q -0.321733,0.3683 -0.939799,0.3683 -0.385233,0 -0.681566,-0.148167 -0.296333,-0.152399 -0.4572,-0.419099 -0.160866,-0.2667 -0.160866,-0.605366 0,-0.334433 0.156633,-0.601133 0.160866,-0.270933 0.436033,-0.4191 0.2794,-0.1524 0.622299,-0.1524 0.334433,0 0.605366,0.143934 0.270934,0.143933 0.423333,0.414866 0.156634,0.2667 0.156634,0.622299 z m -1.181099,-0.681566 q -0.224367,0 -0.376767,0.127 -0.1524,0.127 -0.186266,0.347133 h 1.121832 q -0.03387,-0.2159 -0.186266,-0.3429 -0.1524,-0.131233 -0.372533,-0.131233 z"
           id="path9551" />
        <path
           d="m 68.941276,22.211546 h 0.6604 v 3.14113 h -0.6604 z"
           id="path9553" />
        <path
           d="m 72.446476,24.222377 q 0,0.0127 -0.0127,0.1778 h -1.722965 q 0.04657,0.211667 0.220133,0.334433 0.173566,0.122767 0.431799,0.122767 0.1778,0 0.313267,-0.0508 0.1397,-0.05503 0.258233,-0.169333 l 0.351366,0.380999 q -0.321733,0.3683 -0.939799,0.3683 -0.385233,0 -0.681566,-0.148167 -0.296333,-0.152399 -0.4572,-0.419099 -0.160866,-0.2667 -0.160866,-0.605366 0,-0.334433 0.156633,-0.601133 0.160867,-0.270933 0.436033,-0.4191 0.2794,-0.1524 0.622299,-0.1524 0.334434,0 0.605367,0.143934 0.270933,0.143933 0.423333,0.414866 0.156633,0.2667 0.156633,0.622299 z m -1.181099,-0.681566 q -0.224367,0 -0.376767,0.127 -0.152399,0.127 -0.186266,0.347133 h 1.121832 q -0.03387,-0.2159 -0.186266,-0.3429 -0.1524,-0.131233 -0.372533,-0.131233 z"
           id="path9555" />
        <path
           d="m 73.98741,25.386543 q -0.364066,0 -0.656166,-0.148167 -0.287867,-0.152399 -0.452966,-0.419099 -0.160867,-0.2667 -0.160867,-0.605366 0,-0.338667 0.160867,-0.605366 0.165099,-0.2667 0.452966,-0.414867 0.2921,-0.1524 0.656166,-0.1524 0.359833,0 0.626533,0.1524 0.270933,0.148167 0.393699,0.427567 l -0.512233,0.275166 q -0.177799,-0.313266 -0.512232,-0.313266 -0.258234,0 -0.427567,0.169333 -0.169333,0.169333 -0.169333,0.461433 0,0.292099 0.169333,0.461433 0.169333,0.169333 0.427567,0.169333 0.338666,0 0.512232,-0.313267 l 0.512233,0.2794 q -0.122766,0.270933 -0.393699,0.423333 -0.2667,0.1524 -0.626533,0.1524 z"
           id="path9557" />
        <path
           d="m 76.89147,25.24261 q -0.09737,0.07197 -0.2413,0.110066 -0.1397,0.03387 -0.296333,0.03387 -0.4064,0 -0.630766,-0.207433 -0.220134,-0.207433 -0.220134,-0.6096 v -0.935565 h -0.351366 v -0.508 h 0.351366 v -0.554566 h 0.6604 v 0.554566 h 0.567266 v 0.508 h -0.567266 v 0.927099 q 0,0.143933 0.07197,0.224366 0.0762,0.0762 0.211667,0.0762 0.156633,0 0.2667,-0.08467 z"
           id="path9559" />
        <path
           d="m 78.275766,25.386543 q -0.359833,0 -0.6477,-0.148167 -0.283633,-0.152399 -0.444499,-0.419099 -0.160867,-0.2667 -0.160867,-0.605366 0,-0.338667 0.160867,-0.605366 0.160866,-0.2667 0.444499,-0.414867 0.287867,-0.1524 0.6477,-0.1524 0.359833,0 0.643466,0.1524 0.283633,0.148167 0.4445,0.414867 0.160866,0.266699 0.160866,0.605366 0,0.338666 -0.160866,0.605366 -0.160867,0.2667 -0.4445,0.419099 -0.283633,0.148167 -0.643466,0.148167 z m 0,-0.541866 q 0.254,0 0.414866,-0.169333 0.1651,-0.173567 0.1651,-0.461433 0,-0.287867 -0.1651,-0.4572 -0.160866,-0.173566 -0.414866,-0.173566 -0.254,0 -0.4191,0.173566 -0.1651,0.169333 -0.1651,0.4572 0,0.287866 0.1651,0.461433 0.1651,0.169333 0.4191,0.169333 z"
           id="path9561" />
        <path
           d="m 80.595633,23.375711 q 0.118534,-0.165099 0.3175,-0.249766 0.2032,-0.08467 0.465666,-0.08467 v 0.6096 q -0.110066,-0.0085 -0.148166,-0.0085 -0.283633,0 -0.4445,0.160867 -0.160866,0.156633 -0.160866,0.474133 v 1.075265 h -0.6604 v -2.277531 h 0.630766 z"
           id="path9563" />
      </g>
      <g
         id="path8846">
        <path
           style="color:#000000;fill:#000000;stroke-width:0.264999;-inkscape-stroke:none"
           d="M 60.56208,28.0125 H 83.609171"
           id="path9584" />
        <path
           style="color:#000000;fill:#000000;-inkscape-stroke:none"
           d="m 60.5625,27.880859 v 0.263672 h 23.046875 v -0.263672 z"
           id="path9586" />
      </g>
    </g>
    <g
       id="path8926">
      <path
         style="color:#000000;fill:#000000;stroke-width:0.264999;-inkscape-stroke:none"
         d="m 64.577704,50.804672 v 6.083173"
         id="path9600" />
      <path
         style="color:#000000;fill:#000000;-inkscape-stroke:none"
         d="m 64.445312,50.804687 v 6.083985 h 0.265625 v -6.083985 z"
         id="path9602" />
      <g
         id="g9590">
        <g
           id="path9592">
          <path
             style="color:#000000;fill:#000000;fill-rule:evenodd;stroke-width:0.1325pt;-inkscape-stroke:none"
             d="m 64.577704,57.652367 -0.662498,-1.146121 h 1.324996 z"
             id="path9596" />
          <path
             style="color:#000000;fill:#000000;fill-rule:evenodd;-inkscape-stroke:none"
             d="m 63.761719,56.417969 0.816406,1.410156 0.07617,-0.130859 0.738281,-1.279297 z m 0.30664,0.175781 h 1.019532 l -0.509766,0.882812 z"
             id="path9598" />
        </g>
      </g>
    </g>
  </g>
</svg>
